SplineFontDB: 3.0
FontName: Merriweather-Light
FullName: Merriweather Light
FamilyName: Merriweather
Weight: Light
Copyright: Copyright (c) 2010 by Eben Sorkin (eben@eyebytes.com),with Reserved Font Name Merriweather.This Font Software is licensed under the SIL Open Font License, Version 1.1.This license is copied below, and is also available with a FAQ at:http://scripts.sil.org/OFL
Version: 1.276
ItalicAngle: 0
UnderlinePosition: -72
UnderlineWidth: 120
Ascent: 1638
Descent: 410
LayerCount: 2
Layer: 0 1 "Back"  1
Layer: 1 1 "Fore"  0
XUID: [1021 631 1661839179 15454522]
FSType: 0
OS2Version: 3
OS2_WeightWidthSlopeOnly: 0
OS2_UseTypoMetrics: 1
CreationTime: 1304097420
ModificationTime: 1304083174
PfmFamily: 17
TTFWeight: 300
TTFWidth: 5
LineGap: 0
VLineGap: 0
Panose: 2 6 5 3 5 4 6 3 7 4
OS2TypoAscent: 282
OS2TypoAOffset: 1
OS2TypoDescent: -230
OS2TypoDOffset: 1
OS2TypoLinegap: 0
OS2WinAscent: -58
OS2WinAOffset: 1
OS2WinDescent: 95
OS2WinDOffset: 1
HheadAscent: -58
HheadAOffset: 1
HheadDescent: -95
HheadDOffset: 1
OS2SubXSize: 1434
OS2SubYSize: 1331
OS2SubXOff: 0
OS2SubYOff: 287
OS2SupXSize: 1434
OS2SupYSize: 1331
OS2SupXOff: 0
OS2SupYOff: 977
OS2StrikeYSize: 85
OS2StrikeYPos: 520
OS2FamilyClass: 512
OS2Vendor: 'eye '
OS2CodePages: 00000001.00000000
OS2UnicodeRanges: 800000a7.50000000.00000000.00000000
Lookup: 4 0 0 "'dlig' Discretionary Ligatures in Latin lookup 0"  {"'dlig' Discretionary Ligatures in Latin lookup 0 subtable"  } ['dlig' ('latn' <'dflt' > ) ]
Lookup: 258 0 0 "'kern' Horizontal Kerning in Latin lookup 0"  {"'kern' Horizontal Kerning in Latin lookup 0 subtable"  } ['kern' ('latn' <'dflt' > ) ]
DEI: 91125
TtTable: prep
PUSHW_1
 511
SCANCTRL
PUSHB_1
 4
SCANTYPE
EndTTInstrs
ShortTable: maxp 16
  1
  0
  275
  135
  5
  0
  0
  1
  0
  0
  0
  0
  0
  0
  0
  0
EndShort

StartChar: .notdef
Encoding: 65536 -1 0
Width: 1259
Flags: W
LayerCount: 2
Fore
SplineSet
74 1330 m 1,0,-1
 1187 1330 l 1,1,-1
 1187 210 l 1,2,-1
 74 210 l 1,3,-1
 74 1330 l 1,0,-1
632 670 m 1,4,-1
 925 367 l 1,5,-1
 1038 480 l 1,6,-1
 734 773 l 1,7,-1
 1038 1057 l 1,8,-1
 919 1173 l 1,9,-1
 635 872 l 1,10,-1
 346 1174 l 1,11,-1
 232 1058 l 1,12,-1
 532 770 l 1,13,-1
 233 502 l 1,14,-1
 352 367 l 1,15,-1
 632 670 l 1,4,-1
EndSplineSet
EndChar

StartChar: numbersign
Encoding: 35 35 4
Width: 1427
Flags: W
LayerCount: 2
Fore
SplineSet
370 365 m 1,0,-1
 149 365 l 1,1,-1
 149 460 l 1,2,-1
 374 460 l 1,3,-1
 407 930 l 1,4,-1
 171 930 l 1,5,-1
 171 1025 l 1,6,-1
 413 1025 l 1,7,-1
 440 1355 l 1,8,-1
 565 1355 l 1,9,-1
 540 1025 l 1,10,-1
 935 1025 l 1,11,-1
 962 1355 l 1,12,-1
 1086 1355 l 1,13,-1
 1061 1025 l 1,14,-1
 1280 1025 l 1,15,-1
 1280 930 l 1,16,-1
 1055 930 l 1,17,-1
 1021 460 l 1,18,-1
 1245 460 l 1,19,-1
 1246 365 l 1,20,-1
 1017 365 l 1,21,-1
 987 0 l 1,22,-1
 868 0 l 1,23,-1
 892 365 l 1,24,-1
 496 365 l 1,25,-1
 464 0 l 1,26,-1
 342 0 l 1,27,-1
 370 365 l 1,0,-1
896 460 m 1,28,-1
 929 930 l 1,29,-1
 534 930 l 1,30,-1
 500 460 l 1,31,-1
 896 460 l 1,28,-1
EndSplineSet
EndChar

StartChar: ampersand
Encoding: 38 38 5
Width: 1601
Flags: W
LayerCount: 2
Fore
SplineSet
192 348 m 256,0,1
 192 423 192 423 220 484 c 128,-1,2
 248 545 248 545 292.5 595 c 128,-1,3
 337 645 337 645 393.5 684.5 c 128,-1,4
 450 724 450 724 507 756 c 1,5,6
 473 800 473 800 439.5 847 c 128,-1,7
 406 894 406 894 379 945.5 c 128,-1,8
 352 997 352 997 335.5 1053 c 128,-1,9
 319 1109 319 1109 319 1170 c 0,10,11
 319 1262 319 1262 348.5 1333 c 128,-1,12
 378 1404 378 1404 429.5 1452.5 c 128,-1,13
 481 1501 481 1501 550 1526 c 128,-1,14
 619 1551 619 1551 698 1551 c 0,15,16
 783 1551 783 1551 846.5 1525.5 c 128,-1,17
 910 1500 910 1500 951 1456.5 c 128,-1,18
 992 1413 992 1413 1012.5 1355.5 c 128,-1,19
 1033 1298 1033 1298 1033 1234 c 0,20,21
 1033 1155 1033 1155 1002.5 1085 c 128,-1,22
 972 1015 972 1015 922 955 c 128,-1,23
 872 895 872 895 808 845 c 128,-1,24
 744 795 744 795 677 755 c 1,25,26
 702 725 702 725 736.5 686 c 128,-1,27
 771 647 771 647 811 603 c 128,-1,28
 851 559 851 559 893.5 513.5 c 128,-1,29
 936 468 936 468 976 426 c 128,-1,30
 1016 384 1016 384 1052 348 c 128,-1,31
 1088 312 1088 312 1114 287 c 2,32,-1
 1144 259 l 1,33,34
 1179 318 1179 318 1192 384.5 c 128,-1,35
 1205 451 1205 451 1205 516 c 0,36,37
 1205 565 1205 565 1200 603 c 128,-1,38
 1195 641 1195 641 1188 668.5 c 128,-1,39
 1181 696 1181 696 1174 713 c 128,-1,40
 1167 730 1167 730 1163 738 c 1,41,-1
 1306 738 l 1,42,43
 1316 706 1316 706 1326.5 659 c 128,-1,44
 1337 612 1337 612 1335 542 c 1,45,46
 1330 433 1330 433 1303.5 349 c 128,-1,47
 1277 265 1277 265 1220 192 c 1,48,49
 1267 154 1267 154 1305 130.5 c 128,-1,50
 1343 107 1343 107 1376.5 95 c 128,-1,51
 1410 83 1410 83 1440 79.5 c 128,-1,52
 1470 76 1470 76 1501 79 c 1,53,-1
 1501 13 l 1,54,55
 1486 4 1486 4 1463 -1 c 128,-1,56
 1440 -6 1440 -6 1414 -7.5 c 128,-1,57
 1388 -9 1388 -9 1360 -7 c 128,-1,58
 1332 -5 1332 -5 1307 0 c 1,59,60
 1268 5 1268 5 1223.5 32.5 c 128,-1,61
 1179 60 1179 60 1129 101 c 1,62,63
 1091 69 1091 69 1043 44 c 128,-1,64
 995 19 995 19 942 2 c 128,-1,65
 889 -15 889 -15 834 -23.5 c 128,-1,66
 779 -32 779 -32 727 -32 c 0,67,68
 676 -32 676 -32 616.5 -25 c 128,-1,69
 557 -18 557 -18 497.5 -0.5 c 128,-1,70
 438 17 438 17 383 45 c 128,-1,71
 328 73 328 73 285.5 115.5 c 128,-1,72
 243 158 243 158 217.5 215.5 c 128,-1,73
 192 273 192 273 192 348 c 256,0,1
622 822 m 1,74,75
 684 852 684 852 737 891.5 c 128,-1,76
 790 931 790 931 828.5 979.5 c 128,-1,77
 867 1028 867 1028 889 1085.5 c 128,-1,78
 911 1143 911 1143 911 1211 c 0,79,80
 911 1253 911 1253 901 1299 c 128,-1,81
 891 1345 891 1345 864.5 1384 c 128,-1,82
 838 1423 838 1423 793.5 1448.5 c 128,-1,83
 749 1474 749 1474 680 1474 c 0,84,85
 640 1474 640 1474 598.5 1459.5 c 128,-1,86
 557 1445 557 1445 523 1414 c 128,-1,87
 489 1383 489 1383 467 1335.5 c 128,-1,88
 445 1288 445 1288 445 1221 c 0,89,90
 445 1147 445 1147 463 1086.5 c 128,-1,91
 481 1026 481 1026 507.5 977 c 128,-1,92
 534 928 534 928 565 890 c 128,-1,93
 596 852 596 852 622 822 c 1,74,75
327 365 m 0,94,95
 327 294 327 294 359 237.5 c 128,-1,96
 391 181 391 181 446.5 141 c 128,-1,97
 502 101 502 101 578 79.5 c 128,-1,98
 654 58 654 58 741 58 c 0,99,100
 836 58 836 58 918 82 c 128,-1,101
 1000 106 1000 106 1057 163 c 1,102,103
 1057 163 1057 163 1055 165 c 0,104,105
 1023 193 1023 193 982 233.5 c 128,-1,106
 941 274 941 274 895.5 320.5 c 128,-1,107
 850 367 850 367 802 417.5 c 128,-1,108
 754 468 754 468 709 517.5 c 128,-1,109
 664 567 664 567 624.5 612.5 c 128,-1,110
 585 658 585 658 555 695 c 1,111,112
 437 629 437 629 382 549 c 128,-1,113
 327 469 327 469 327 365 c 0,94,95
EndSplineSet
EndChar

StartChar: quotesingle
Encoding: 39 39 6
Width: 786
Flags: W
LayerCount: 2
Fore
SplineSet
307 1782 m 1,0,-1
 474 1782 l 1,1,-1
 436 1036 l 1,2,-1
 345 1036 l 1,3,-1
 307 1782 l 1,0,-1
EndSplineSet
EndChar

StartChar: parenleft
Encoding: 40 40 7
Width: 889
Flags: W
LayerCount: 2
Fore
SplineSet
624 -310 m 1,0,1
 601 -296 601 -296 557 -261 c 128,-1,2
 513 -226 513 -226 460.5 -167.5 c 128,-1,3
 408 -109 408 -109 353 -26 c 128,-1,4
 298 57 298 57 253.5 166 c 128,-1,5
 209 275 209 275 180.5 412 c 128,-1,6
 152 549 152 549 152 715 c 0,7,8
 152 860 152 860 180.5 986.5 c 128,-1,9
 209 1113 209 1113 253.5 1219 c 128,-1,10
 298 1325 298 1325 353 1410 c 128,-1,11
 408 1495 408 1495 460.5 1557 c 128,-1,12
 513 1619 513 1619 557 1657 c 128,-1,13
 601 1695 601 1695 624 1708 c 1,14,-1
 691 1669 l 1,15,16
 669 1655 669 1655 631.5 1620 c 128,-1,17
 594 1585 594 1585 551 1529 c 128,-1,18
 508 1473 508 1473 462.5 1397 c 128,-1,19
 417 1321 417 1321 380 1225 c 128,-1,20
 343 1129 343 1129 317.5 1013.5 c 128,-1,21
 292 898 292 898 288 764 c 0,22,23
 283 607 283 607 305 475 c 128,-1,24
 327 343 327 343 364.5 235 c 128,-1,25
 402 127 402 127 450 42 c 128,-1,26
 498 -43 498 -43 545.5 -104.5 c 128,-1,27
 593 -166 593 -166 634.5 -205.5 c 128,-1,28
 676 -245 676 -245 701 -263 c 1,29,-1
 624 -310 l 1,30,-1
 624 -310 l 1,0,1
EndSplineSet
EndChar

StartChar: parenright
Encoding: 41 41 8
Width: 889
Flags: W
LayerCount: 2
Fore
SplineSet
197 -270 m 1,0,1
 220 -256 220 -256 258 -221 c 128,-1,2
 296 -186 296 -186 339.5 -130.5 c 128,-1,3
 383 -75 383 -75 428 1 c 128,-1,4
 473 77 473 77 510 173 c 128,-1,5
 547 269 547 269 572 384 c 128,-1,6
 597 499 597 499 601 634 c 0,7,8
 606 784 606 784 585 913 c 128,-1,9
 564 1042 564 1042 527.5 1150.5 c 128,-1,10
 491 1259 491 1259 444 1345.5 c 128,-1,11
 397 1432 397 1432 349.5 1496 c 128,-1,12
 302 1560 302 1560 259 1601.5 c 128,-1,13
 216 1643 216 1643 188 1661 c 1,14,-1
 265 1708 l 1,15,16
 288 1694 288 1694 332 1659 c 128,-1,17
 376 1624 376 1624 428.5 1565.5 c 128,-1,18
 481 1507 481 1507 536 1424 c 128,-1,19
 591 1341 591 1341 635.5 1232 c 128,-1,20
 680 1123 680 1123 708.5 986 c 128,-1,21
 737 849 737 849 737 683 c 0,22,23
 737 538 737 538 708.5 411.5 c 128,-1,24
 680 285 680 285 635.5 179 c 128,-1,25
 591 73 591 73 536 -12 c 128,-1,26
 481 -97 481 -97 428.5 -159 c 128,-1,27
 376 -221 376 -221 332 -259 c 128,-1,28
 288 -297 288 -297 265 -310 c 1,29,-1
 197 -270 l 1,30,-1
 197 -270 l 1,0,1
EndSplineSet
EndChar

StartChar: asterisk
Encoding: 42 42 9
Width: 1256
Flags: W
LayerCount: 2
Fore
SplineSet
581 1148 m 1,0,-1
 597 1248 l 1,1,-1
 532 1189 l 1,2,-1
 218 947 l 1,3,-1
 144 1050 l 1,4,-1
 496 1246 l 1,5,-1
 578 1282 l 1,6,-1
 495 1318 l 1,7,-1
 144 1503 l 1,8,-1
 215 1608 l 1,9,-1
 527 1378 l 1,10,-1
 597 1316 l 1,11,-1
 581 1425 l 1,12,-1
 554 1786 l 1,13,-1
 688 1785 l 1,14,-1
 660 1425 l 1,15,-1
 641 1316 l 1,16,-1
 727 1388 l 1,17,-1
 1026 1606 l 1,18,-1
 1108 1502 l 1,19,-1
 755 1323 l 1,20,-1
 659 1282 l 1,21,-1
 753 1242 l 1,22,-1
 1109 1049 l 1,23,-1
 1026 948 l 1,24,-1
 716 1185 l 1,25,-1
 641 1248 l 1,26,-1
 658 1148 l 1,27,-1
 688 768 l 1,28,-1
 554 768 l 1,29,-1
 581 1148 l 1,0,-1
EndSplineSet
EndChar

StartChar: plus
Encoding: 43 43 10
Width: 1233
Flags: W
LayerCount: 2
Fore
SplineSet
553 581 m 1,0,-1
 559 740 l 1,1,-1
 403 733 l 1,2,-1
 160 733 l 1,3,-1
 160 860 l 1,4,-1
 403 860 l 1,5,-1
 560 850 l 1,6,-1
 553 1011 l 1,7,-1
 553 1260 l 1,8,-1
 678 1260 l 1,9,-1
 678 1011 l 1,10,-1
 671 850 l 1,11,-1
 811 860 l 1,12,-1
 1073 860 l 1,13,-1
 1073 733 l 1,14,-1
 811 733 l 1,15,-1
 671 741 l 1,16,-1
 678 581 l 1,17,-1
 678 321 l 1,18,-1
 553 321 l 1,19,-1
 553 581 l 1,0,-1
EndSplineSet
EndChar

StartChar: comma
Encoding: 44 44 11
Width: 710
Flags: W
LayerCount: 2
Fore
SplineSet
185 68 m 1,0,-1
 269 179 l 1,1,2
 323 167 323 167 362 135 c 128,-1,3
 401 103 401 103 426.5 61.5 c 128,-1,4
 452 20 452 20 464 -25 c 128,-1,5
 476 -70 476 -70 476 -107 c 0,6,7
 477 -181 477 -181 451.5 -250 c 128,-1,8
 426 -319 426 -319 385 -376.5 c 128,-1,9
 344 -434 344 -434 292.5 -477.5 c 128,-1,10
 241 -521 241 -521 190 -545 c 1,11,-1
 150 -508 l 1,12,-1
 150 -474 l 1,13,14
 181 -462 181 -462 214.5 -430 c 128,-1,15
 248 -398 248 -398 275.5 -355 c 128,-1,16
 303 -312 303 -312 321 -262 c 128,-1,17
 339 -212 339 -212 339 -164 c 0,18,19
 339 -125 339 -125 326 -90 c 128,-1,20
 313 -55 313 -55 291 -28.5 c 128,-1,21
 269 -2 269 -2 241.5 15 c 128,-1,22
 214 32 214 32 185 35 c 1,23,-1
 185 68 l 1,0,-1
EndSplineSet
EndChar

StartChar: period
Encoding: 46 46 12
Width: 706
Flags: W
LayerCount: 2
Fore
SplineSet
244 71 m 0,0,1
 244 94 244 94 254 114 c 128,-1,2
 264 134 264 134 280.5 149 c 128,-1,3
 297 164 297 164 317.5 172.5 c 128,-1,4
 338 181 338 181 359 181 c 0,5,6
 384 181 384 181 402.5 173.5 c 128,-1,7
 421 166 421 166 433 153 c 128,-1,8
 445 140 445 140 450.5 123 c 128,-1,9
 456 106 456 106 456 87 c 0,10,11
 456 63 456 63 446 42.5 c 128,-1,12
 436 22 436 22 420 8 c 128,-1,13
 404 -6 404 -6 383.5 -14 c 128,-1,14
 363 -22 363 -22 341 -22 c 0,15,16
 322 -22 322 -22 304.5 -15.5 c 128,-1,17
 287 -9 287 -9 273.5 3 c 128,-1,18
 260 15 260 15 252 32.5 c 128,-1,19
 244 50 244 50 244 71 c 0,0,1
EndSplineSet
EndChar

StartChar: slash
Encoding: 47 47 13
Width: 715
Flags: W
LayerCount: 2
Fore
SplineSet
604 1599 m 1,0,-1
 736 1599 l 1,1,-1
 112 -363 l 1,2,-1
 -20 -363 l 1,3,-1
 604 1599 l 1,0,-1
EndSplineSet
EndChar

StartChar: zero
Encoding: 48 48 14
Width: 1368
Flags: W
LayerCount: 2
Fore
SplineSet
151 632 m 0,0,1
 153 777 153 777 198.5 892 c 128,-1,2
 244 1007 244 1007 320 1086.5 c 128,-1,3
 396 1166 396 1166 494.5 1208.5 c 128,-1,4
 593 1251 593 1251 701 1252 c 0,5,6
 847 1253 847 1253 946 1204.5 c 128,-1,7
 1045 1156 1045 1156 1105.5 1071 c 128,-1,8
 1166 986 1166 986 1191.5 870.5 c 128,-1,9
 1217 755 1217 755 1216 623 c 0,10,11
 1215 479 1215 479 1172.5 359 c 128,-1,12
 1130 239 1130 239 1057 153.5 c 128,-1,13
 984 68 984 68 886 20 c 128,-1,14
 788 -28 788 -28 676 -28 c 0,15,16
 581 -28 581 -28 504.5 -3 c 128,-1,17
 428 22 428 22 369.5 66.5 c 128,-1,18
 311 111 311 111 269 173 c 128,-1,19
 227 235 227 235 200.5 308.5 c 128,-1,20
 174 382 174 382 162 464 c 128,-1,21
 150 546 150 546 151 632 c 0,0,1
676 55 m 0,22,23
 779 53 779 53 853 92.5 c 128,-1,24
 927 132 927 132 974 205.5 c 128,-1,25
 1021 279 1021 279 1043.5 383 c 128,-1,26
 1066 487 1066 487 1066 615 c 0,27,28
 1066 732 1066 732 1045 833 c 128,-1,29
 1024 934 1024 934 980 1008 c 128,-1,30
 936 1082 936 1082 866 1125 c 128,-1,31
 796 1168 796 1168 699 1170 c 1,32,33
 596 1171 596 1171 521 1134.5 c 128,-1,34
 446 1098 446 1098 397 1028.5 c 128,-1,35
 348 959 348 959 324.5 860 c 128,-1,36
 301 761 301 761 301 637 c 0,37,38
 301 524 301 524 323 419.5 c 128,-1,39
 345 315 345 315 391 235 c 128,-1,40
 437 155 437 155 507.5 106 c 128,-1,41
 578 57 578 57 676 55 c 0,22,23
EndSplineSet
EndChar

StartChar: one
Encoding: 49 49 15
Width: 902
Flags: W
LayerCount: 2
Fore
SplineSet
103 66 m 1,0,-1
 414 88 l 1,1,-1
 414 1090 l 1,2,3
 375 1076 375 1076 341.5 1064 c 128,-1,4
 308 1052 308 1052 275 1042 c 128,-1,5
 242 1032 242 1032 208 1022.5 c 128,-1,6
 174 1013 174 1013 136 1003 c 1,7,-1
 121 1078 l 1,8,9
 151 1087 151 1087 188 1101.5 c 128,-1,10
 225 1116 225 1116 264 1133.5 c 128,-1,11
 303 1151 303 1151 341 1169.5 c 128,-1,12
 379 1188 379 1188 411.5 1206 c 128,-1,13
 444 1224 444 1224 468.5 1239 c 128,-1,14
 493 1254 493 1254 505 1264 c 1,15,-1
 557 1249 l 1,16,-1
 556 87 l 1,17,-1
 861 66 l 1,18,-1
 861 0 l 1,19,-1
 103 0 l 1,20,-1
 103 66 l 1,0,-1
EndSplineSet
EndChar

StartChar: two
Encoding: 50 50 16
Width: 1231
Flags: W
LayerCount: 2
Fore
SplineSet
144 59 m 1,0,1
 278 143 278 143 401 241.5 c 128,-1,2
 524 340 524 340 617.5 446 c 128,-1,3
 711 552 711 552 766 660.5 c 128,-1,4
 821 769 821 769 820 874 c 0,5,6
 820 932 820 932 801.5 984.5 c 128,-1,7
 783 1037 783 1037 747 1077 c 128,-1,8
 711 1117 711 1117 657.5 1140.5 c 128,-1,9
 604 1164 604 1164 533 1164 c 0,10,11
 483 1164 483 1164 433.5 1150 c 128,-1,12
 384 1136 384 1136 337.5 1112.5 c 128,-1,13
 291 1089 291 1089 250.5 1060 c 128,-1,14
 210 1031 210 1031 180 1001 c 1,15,-1
 144 1060 l 1,16,17
 172 1096 172 1096 216.5 1132.5 c 128,-1,18
 261 1169 261 1169 317 1198 c 128,-1,19
 373 1227 373 1227 440 1245 c 128,-1,20
 507 1263 507 1263 580 1263 c 0,21,22
 681 1263 681 1263 754.5 1233.5 c 128,-1,23
 828 1204 828 1204 876.5 1155.5 c 128,-1,24
 925 1107 925 1107 948.5 1045 c 128,-1,25
 972 983 972 983 972 918 c 0,26,27
 973 805 973 805 924.5 695 c 128,-1,28
 876 585 876 585 790.5 480.5 c 128,-1,29
 705 376 705 376 589 277.5 c 128,-1,30
 473 179 473 179 339 91 c 1,31,-1
 960 121 l 1,32,-1
 1048 296 l 1,33,-1
 1114 275 l 1,34,-1
 1049 0 l 1,35,-1
 166 0 l 1,36,-1
 144 59 l 1,37,-1
 144 59 l 1,0,1
EndSplineSet
EndChar

StartChar: three
Encoding: 51 51 17
Width: 1085
Flags: W
LayerCount: 2
Fore
SplineSet
152 -235 m 1,0,1
 252 -252 252 -252 340.5 -244.5 c 128,-1,2
 429 -237 429 -237 503 -211.5 c 128,-1,3
 577 -186 577 -186 635.5 -144 c 128,-1,4
 694 -102 694 -102 735 -49.5 c 128,-1,5
 776 3 776 3 797.5 62.5 c 128,-1,6
 819 122 819 122 819 184 c 0,7,8
 819 254 819 254 797 313 c 128,-1,9
 775 372 775 372 728 412.5 c 128,-1,10
 681 453 681 453 608 472 c 128,-1,11
 535 491 535 491 432 483 c 1,12,-1
 288 449 l 1,13,-1
 288 551 l 1,14,15
 391 568 391 568 473.5 604 c 128,-1,16
 556 640 556 640 613.5 687.5 c 128,-1,17
 671 735 671 735 702 791 c 128,-1,18
 733 847 733 847 734 904 c 0,19,20
 735 971 735 971 715 1020.5 c 128,-1,21
 695 1070 695 1070 659 1102.5 c 128,-1,22
 623 1135 623 1135 573.5 1151 c 128,-1,23
 524 1167 524 1167 465 1167 c 0,24,25
 402 1167 402 1167 351.5 1154.5 c 128,-1,26
 301 1142 301 1142 261 1122.5 c 128,-1,27
 221 1103 221 1103 190 1080.5 c 128,-1,28
 159 1058 159 1058 136 1038 c 1,29,-1
 94 1109 l 1,30,31
 119 1133 119 1133 158 1161 c 128,-1,32
 197 1189 197 1189 250 1213 c 128,-1,33
 303 1237 303 1237 370 1253 c 128,-1,34
 437 1269 437 1269 517 1269 c 0,35,36
 586 1269 586 1269 650.5 1251 c 128,-1,37
 715 1233 715 1233 765.5 1194 c 128,-1,38
 816 1155 816 1155 846.5 1093.5 c 128,-1,39
 877 1032 877 1032 877 945 c 0,40,41
 877 905 877 905 864.5 863 c 128,-1,42
 852 821 852 821 830.5 781 c 128,-1,43
 809 741 809 741 778.5 703.5 c 128,-1,44
 748 666 748 666 712 635 c 128,-1,45
 676 604 676 604 635.5 580.5 c 128,-1,46
 595 557 595 557 553 544 c 1,47,48
 658 547 658 547 735 523.5 c 128,-1,49
 812 500 812 500 862.5 455.5 c 128,-1,50
 913 411 913 411 937.5 349 c 128,-1,51
 962 287 962 287 962 214 c 0,52,53
 962 137 962 137 936 61.5 c 128,-1,54
 910 -14 910 -14 860.5 -80.5 c 128,-1,55
 811 -147 811 -147 739.5 -200.5 c 128,-1,56
 668 -254 668 -254 578 -287.5 c 128,-1,57
 488 -321 488 -321 381 -330.5 c 128,-1,58
 274 -340 274 -340 153 -318 c 1,59,-1
 152 -235 l 1,60,-1
 152 -235 l 1,0,1
EndSplineSet
EndChar

StartChar: four
Encoding: 52 52 18
Width: 1256
Flags: W
LayerCount: 2
Fore
SplineSet
65 73 m 1,0,1
 143 215 143 215 221.5 354 c 128,-1,2
 300 493 300 493 378 638.5 c 128,-1,3
 456 784 456 784 534 940 c 128,-1,4
 612 1096 612 1096 690 1273 c 1,5,-1
 741 1273 l 1,6,-1
 825 1211 l 1,7,8
 679 939 679 939 533.5 678 c 128,-1,9
 388 417 388 417 241 158 c 1,10,-1
 196 87 l 1,11,-1
 764 110 l 1,12,-1
 767 623 l 1,13,-1
 895 654 l 1,14,-1
 895 116 l 1,15,-1
 1172 127 l 1,16,-1
 1172 0 l 1,17,-1
 895 0 l 1,18,-1
 895 -376 l 1,19,-1
 762 -376 l 1,20,-1
 764 0 l 1,21,-1
 90 0 l 1,22,-1
 65 73 l 1,0,1
EndSplineSet
EndChar

StartChar: five
Encoding: 53 53 19
Width: 1079
Flags: W
LayerCount: 2
Fore
SplineSet
160 -253 m 1,0,1
 239 -265 239 -265 319 -254.5 c 128,-1,2
 399 -244 399 -244 472 -214.5 c 128,-1,3
 545 -185 545 -185 608.5 -139.5 c 128,-1,4
 672 -94 672 -94 718.5 -35.5 c 128,-1,5
 765 23 765 23 792 92.5 c 128,-1,6
 819 162 819 162 819 238 c 0,7,8
 819 329 819 329 794.5 395 c 128,-1,9
 770 461 770 461 727 504.5 c 128,-1,10
 684 548 684 548 624.5 569.5 c 128,-1,11
 565 591 565 591 495 593.5 c 128,-1,12
 425 596 425 596 346 581 c 128,-1,13
 267 566 267 566 186 536 c 1,14,-1
 151 566 l 1,15,-1
 230 1237 l 1,16,-1
 791 1237 l 1,17,-1
 902 1249 l 1,18,-1
 866 1116 l 1,19,-1
 339 1116 l 1,20,-1
 267 630 l 1,21,22
 413 684 413 684 541 683.5 c 128,-1,23
 669 683 669 683 764 633.5 c 128,-1,24
 859 584 859 584 913.5 488 c 128,-1,25
 968 392 968 392 968 255 c 0,26,27
 968 185 968 185 945 112.5 c 128,-1,28
 922 40 922 40 879 -27.5 c 128,-1,29
 836 -95 836 -95 773.5 -154 c 128,-1,30
 711 -213 711 -213 633 -257 c 128,-1,31
 555 -301 555 -301 461.5 -326 c 128,-1,32
 368 -351 368 -351 262 -351 c 0,33,34
 237 -351 237 -351 211 -348 c 128,-1,35
 185 -345 185 -345 159 -337 c 1,36,-1
 160 -253 l 1,37,-1
 160 -253 l 1,0,1
EndSplineSet
EndChar

StartChar: six
Encoding: 54 54 20
Width: 1272
Flags: W
LayerCount: 2
Fore
SplineSet
124 563 m 0,0,1
 124 692 124 692 159.5 808.5 c 128,-1,2
 195 925 195 925 257 1026.5 c 128,-1,3
 319 1128 319 1128 402.5 1213 c 128,-1,4
 486 1298 486 1298 581.5 1363 c 128,-1,5
 677 1428 677 1428 780 1471.5 c 128,-1,6
 883 1515 883 1515 984 1534 c 1,7,-1
 1016 1470 l 1,8,9
 894 1435 894 1435 792.5 1382 c 128,-1,10
 691 1329 691 1329 609.5 1263 c 128,-1,11
 528 1197 528 1197 466 1120.5 c 128,-1,12
 404 1044 404 1044 362 962 c 128,-1,13
 320 880 320 880 298 796 c 128,-1,14
 276 712 276 712 274 631 c 0,15,16
 271 520 271 520 291 416.5 c 128,-1,17
 311 313 311 313 357 233.5 c 128,-1,18
 403 154 403 154 475.5 106 c 128,-1,19
 548 58 548 58 651 58 c 0,20,21
 712 58 712 58 762 77 c 128,-1,22
 812 96 812 96 851 128 c 128,-1,23
 890 160 890 160 918.5 201.5 c 128,-1,24
 947 243 947 243 965.5 289.5 c 128,-1,25
 984 336 984 336 993 383.5 c 128,-1,26
 1002 431 1002 431 1002 474 c 0,27,28
 1002 573 1002 573 979 647 c 128,-1,29
 956 721 956 721 918 770.5 c 128,-1,30
 880 820 880 820 829.5 844.5 c 128,-1,31
 779 869 779 869 725 869 c 0,32,33
 683 869 683 869 646 861.5 c 128,-1,34
 609 854 609 854 579.5 843 c 128,-1,35
 550 832 550 832 528 819 c 128,-1,36
 506 806 506 806 493 796 c 1,37,-1
 460 857 l 1,38,39
 479 879 479 879 510 899 c 128,-1,40
 541 919 541 919 580 934.5 c 128,-1,41
 619 950 619 950 664 959 c 128,-1,42
 709 968 709 968 757 968 c 0,43,44
 853 968 853 968 924.5 929 c 128,-1,45
 996 890 996 890 1043.5 828 c 128,-1,46
 1091 766 1091 766 1114.5 687.5 c 128,-1,47
 1138 609 1138 609 1138 530 c 0,48,49
 1138 466 1138 466 1123 400 c 128,-1,50
 1108 334 1108 334 1078 273 c 128,-1,51
 1048 212 1048 212 1004.5 158.5 c 128,-1,52
 961 105 961 105 904.5 65 c 128,-1,53
 848 25 848 25 778.5 2 c 128,-1,54
 709 -21 709 -21 628 -21 c 0,55,56
 509 -21 509 -21 415 26.5 c 128,-1,57
 321 74 321 74 256.5 154.5 c 128,-1,58
 192 235 192 235 158 340.5 c 128,-1,59
 124 446 124 446 124 563 c 0,0,1
EndSplineSet
EndChar

StartChar: seven
Encoding: 55 55 21
Width: 1256
Flags: W
LayerCount: 2
Fore
SplineSet
1023 1151 m 1,0,-1
 327 1136 l 1,1,-1
 246 929 l 1,2,-1
 171 937 l 1,3,-1
 222 1253 l 1,4,-1
 1110 1253 l 1,5,-1
 1143 1217 l 1,6,-1
 538 -316 l 1,7,-1
 396 -266 l 1,8,-1
 1023 1151 l 1,0,-1
EndSplineSet
EndChar

StartChar: eight
Encoding: 56 56 22
Width: 1256
Flags: W
LayerCount: 2
Fore
SplineSet
126 373 m 0,0,1
 126 432 126 432 147.5 491.5 c 128,-1,2
 169 551 169 551 210.5 605.5 c 128,-1,3
 252 660 252 660 313.5 708.5 c 128,-1,4
 375 757 375 757 455 794 c 1,5,6
 402 826 402 826 356.5 863.5 c 128,-1,7
 311 901 311 901 276.5 946.5 c 128,-1,8
 242 992 242 992 222.5 1047.5 c 128,-1,9
 203 1103 203 1103 203 1172 c 0,10,11
 203 1269 203 1269 242 1340.5 c 128,-1,12
 281 1412 281 1412 344.5 1459 c 128,-1,13
 408 1506 408 1506 489 1528.5 c 128,-1,14
 570 1551 570 1551 653 1551 c 0,15,16
 739 1551 739 1551 813.5 1526.5 c 128,-1,17
 888 1502 888 1502 943.5 1457 c 128,-1,18
 999 1412 999 1412 1030.5 1348 c 128,-1,19
 1062 1284 1062 1284 1062 1206 c 0,20,21
 1062 1150 1062 1150 1043.5 1090 c 128,-1,22
 1025 1030 1025 1030 988 972.5 c 128,-1,23
 951 915 951 915 896 864 c 128,-1,24
 841 813 841 813 768 775 c 1,25,26
 838 738 838 738 902.5 699 c 128,-1,27
 967 660 967 660 1017 615 c 128,-1,28
 1067 570 1067 570 1097 516.5 c 128,-1,29
 1127 463 1127 463 1128 397 c 0,30,31
 1129 282 1129 282 1085 201.5 c 128,-1,32
 1041 121 1041 121 970 70 c 128,-1,33
 899 19 899 19 809 -4.5 c 128,-1,34
 719 -28 719 -28 629 -28 c 0,35,36
 571 -28 571 -28 511 -17.5 c 128,-1,37
 451 -7 451 -7 395 14 c 128,-1,38
 339 35 339 35 290 67.5 c 128,-1,39
 241 100 241 100 204.5 145 c 128,-1,40
 168 190 168 190 147 246.5 c 128,-1,41
 126 303 126 303 126 373 c 0,0,1
677 822 m 1,42,43
 722 833 722 833 768 866 c 128,-1,44
 814 899 814 899 852 945 c 128,-1,45
 890 991 890 991 914.5 1046 c 128,-1,46
 939 1101 939 1101 941 1157 c 0,47,48
 943 1228 943 1228 921.5 1287 c 128,-1,49
 900 1346 900 1346 859.5 1388 c 128,-1,50
 819 1430 819 1430 762.5 1453.5 c 128,-1,51
 706 1477 706 1477 638 1477 c 0,52,53
 572 1477 572 1477 513.5 1455 c 128,-1,54
 455 1433 455 1433 412 1395 c 128,-1,55
 369 1357 369 1357 344 1305.5 c 128,-1,56
 319 1254 319 1254 319 1194 c 0,57,58
 319 1129 319 1129 349 1076.5 c 128,-1,59
 379 1024 379 1024 428.5 979.5 c 128,-1,60
 478 935 478 935 542.5 896.5 c 128,-1,61
 607 858 607 858 677 822 c 1,42,43
262 406 m 0,62,63
 262 332 262 332 289 267.5 c 128,-1,64
 316 203 316 203 366.5 155 c 128,-1,65
 417 107 417 107 489.5 79 c 128,-1,66
 562 51 562 51 653 51 c 0,67,68
 727 51 727 51 790.5 73.5 c 128,-1,69
 854 96 854 96 901 135.5 c 128,-1,70
 948 175 948 175 974.5 228.5 c 128,-1,71
 1001 282 1001 282 1001 344 c 0,72,73
 1001 396 1001 396 981.5 438 c 128,-1,74
 962 480 962 480 928 515.5 c 128,-1,75
 894 551 894 551 848 581.5 c 128,-1,76
 802 612 802 612 750 640 c 128,-1,77
 698 668 698 668 641.5 695 c 128,-1,78
 585 722 585 722 530 752 c 1,79,80
 477 730 477 730 428.5 694 c 128,-1,81
 380 658 380 658 343 612 c 128,-1,82
 306 566 306 566 284 513.5 c 128,-1,83
 262 461 262 461 262 406 c 0,62,63
EndSplineSet
EndChar

StartChar: nine
Encoding: 57 57 23
Width: 1256
Flags: W
LayerCount: 2
Fore
SplineSet
245 -339 m 1,0,1
 363 -305 363 -305 463 -245 c 128,-1,2
 563 -185 563 -185 643.5 -108.5 c 128,-1,3
 724 -32 724 -32 785.5 57 c 128,-1,4
 847 146 847 146 889 239.5 c 128,-1,5
 931 333 931 333 952.5 426 c 128,-1,6
 974 519 974 519 975 603 c 0,7,8
 976 717 976 717 958.5 820.5 c 128,-1,9
 941 924 941 924 898.5 1003 c 128,-1,10
 856 1082 856 1082 785.5 1128.5 c 128,-1,11
 715 1175 715 1175 611 1175 c 0,12,13
 549 1175 549 1175 499.5 1156 c 128,-1,14
 450 1137 450 1137 410.5 1105.5 c 128,-1,15
 371 1074 371 1074 342.5 1032 c 128,-1,16
 314 990 314 990 295.5 944.5 c 128,-1,17
 277 899 277 899 268 852 c 128,-1,18
 259 805 259 805 259 763 c 0,19,20
 259 667 259 667 282 592 c 128,-1,21
 305 517 305 517 343.5 465.5 c 128,-1,22
 382 414 382 414 432 387.5 c 128,-1,23
 482 361 482 361 537 361 c 0,24,25
 579 361 579 361 616 368.5 c 128,-1,26
 653 376 653 376 682.5 386.5 c 128,-1,27
 712 397 712 397 734 409.5 c 128,-1,28
 756 422 756 422 769 433 c 1,29,-1
 802 372 l 1,30,31
 783 350 783 350 752 330 c 128,-1,32
 721 310 721 310 682 294.5 c 128,-1,33
 643 279 643 279 598 270 c 128,-1,34
 553 261 553 261 505 261 c 0,35,36
 409 261 409 261 337.5 300.5 c 128,-1,37
 266 340 266 340 218.5 403 c 128,-1,38
 171 466 171 466 147.5 545 c 128,-1,39
 124 624 124 624 124 703 c 0,40,41
 124 767 124 767 139 833 c 128,-1,42
 154 899 154 899 184 960 c 128,-1,43
 214 1021 214 1021 257.5 1074.5 c 128,-1,44
 301 1128 301 1128 357.5 1168 c 128,-1,45
 414 1208 414 1208 483.5 1231 c 128,-1,46
 553 1254 553 1254 634 1254 c 0,47,48
 755 1254 755 1254 846.5 1206.5 c 128,-1,49
 938 1159 938 1159 999.5 1078.5 c 128,-1,50
 1061 998 1061 998 1092.5 892.5 c 128,-1,51
 1124 787 1124 787 1124 670 c 0,52,53
 1124 536 1124 536 1089 410 c 128,-1,54
 1054 284 1054 284 993.5 170.5 c 128,-1,55
 933 57 933 57 851.5 -40 c 128,-1,56
 770 -137 770 -137 675.5 -211.5 c 128,-1,57
 581 -286 581 -286 479 -336 c 128,-1,58
 377 -386 377 -386 276 -405 c 1,59,-1
 274 -405 l 1,60,-1
 245 -339 l 1,61,-1
 245 -339 l 1,0,1
EndSplineSet
EndChar

StartChar: colon
Encoding: 58 58 24
Width: 706
Flags: W
LayerCount: 2
Fore
SplineSet
341 788 m 0,0,1
 322 788 322 788 304.5 794.5 c 128,-1,2
 287 801 287 801 273.5 813 c 128,-1,3
 260 825 260 825 252 842.5 c 128,-1,4
 244 860 244 860 244 881 c 0,5,6
 244 904 244 904 254 924 c 128,-1,7
 264 944 264 944 280.5 959 c 128,-1,8
 297 974 297 974 317.5 982.5 c 128,-1,9
 338 991 338 991 359 991 c 0,10,11
 384 991 384 991 402.5 983.5 c 128,-1,12
 421 976 421 976 433 963 c 128,-1,13
 445 950 445 950 450.5 933 c 128,-1,14
 456 916 456 916 456 897 c 0,15,16
 456 873 456 873 446 852.5 c 128,-1,17
 436 832 436 832 420 818 c 128,-1,18
 404 804 404 804 383.5 796 c 128,-1,19
 363 788 363 788 341 788 c 0,0,1
244 71 m 0,20,21
 244 94 244 94 254 114 c 128,-1,22
 264 134 264 134 280.5 149 c 128,-1,23
 297 164 297 164 317.5 172.5 c 128,-1,24
 338 181 338 181 359 181 c 0,25,26
 384 181 384 181 402.5 173.5 c 128,-1,27
 421 166 421 166 433 153 c 128,-1,28
 445 140 445 140 450.5 123 c 128,-1,29
 456 106 456 106 456 87 c 0,30,31
 456 63 456 63 446 42.5 c 128,-1,32
 436 22 436 22 420 8 c 128,-1,33
 404 -6 404 -6 383.5 -14 c 128,-1,34
 363 -22 363 -22 341 -22 c 0,35,36
 322 -22 322 -22 304.5 -15.5 c 128,-1,37
 287 -9 287 -9 273.5 3 c 128,-1,38
 260 15 260 15 252 32.5 c 128,-1,39
 244 50 244 50 244 71 c 0,20,21
EndSplineSet
EndChar

StartChar: semicolon
Encoding: 59 59 25
Width: 749
Flags: W
LayerCount: 2
Fore
SplineSet
341 788 m 0,0,1
 322 788 322 788 304.5 794.5 c 128,-1,2
 287 801 287 801 273.5 813 c 128,-1,3
 260 825 260 825 252 842.5 c 128,-1,4
 244 860 244 860 244 881 c 0,5,6
 244 904 244 904 254 924 c 128,-1,7
 264 944 264 944 280.5 959 c 128,-1,8
 297 974 297 974 317.5 982.5 c 128,-1,9
 338 991 338 991 359 991 c 0,10,11
 384 991 384 991 402.5 983.5 c 128,-1,12
 421 976 421 976 433 963 c 128,-1,13
 445 950 445 950 450.5 933 c 128,-1,14
 456 916 456 916 456 897 c 0,15,16
 456 873 456 873 446 852.5 c 128,-1,17
 436 832 436 832 420 818 c 128,-1,18
 404 804 404 804 383.5 796 c 128,-1,19
 363 788 363 788 341 788 c 0,0,1
224 68 m 1,20,-1
 308 179 l 1,21,22
 362 167 362 167 401 135 c 128,-1,23
 440 103 440 103 465.5 61.5 c 128,-1,24
 491 20 491 20 503 -25 c 128,-1,25
 515 -70 515 -70 515 -107 c 0,26,27
 516 -181 516 -181 490.5 -250 c 128,-1,28
 465 -319 465 -319 424 -376.5 c 128,-1,29
 383 -434 383 -434 331.5 -477.5 c 128,-1,30
 280 -521 280 -521 229 -545 c 1,31,-1
 189 -508 l 1,32,-1
 189 -474 l 1,33,34
 220 -462 220 -462 253.5 -430 c 128,-1,35
 287 -398 287 -398 314.5 -355 c 128,-1,36
 342 -312 342 -312 360 -262 c 128,-1,37
 378 -212 378 -212 378 -164 c 0,38,39
 378 -125 378 -125 365 -90 c 128,-1,40
 352 -55 352 -55 330 -28.5 c 128,-1,41
 308 -2 308 -2 280.5 15 c 128,-1,42
 253 32 253 32 224 35 c 1,43,-1
 224 68 l 1,20,-1
EndSplineSet
EndChar

StartChar: less
Encoding: 60 60 26
Width: 1519
Flags: W
LayerCount: 2
Fore
SplineSet
200 801 m 1,0,-1
 1169 1317 l 1,1,-1
 1169 1183 l 1,2,-1
 326 751 l 1,3,-1
 1169 321 l 1,4,-1
 1169 186 l 1,5,-1
 200 702 l 1,6,-1
 200 801 l 1,0,-1
EndSplineSet
EndChar

StartChar: equal
Encoding: 61 61 27
Width: 1205
Flags: W
LayerCount: 2
Fore
SplineSet
160 1019 m 1,0,-1
 1045 1019 l 1,1,-1
 1045 911 l 1,2,-1
 160 911 l 1,3,-1
 160 1019 l 1,0,-1
160 671 m 1,4,-1
 1045 671 l 1,5,-1
 1045 562 l 1,6,-1
 160 562 l 1,7,-1
 160 671 l 1,4,-1
EndSplineSet
EndChar

StartChar: greater
Encoding: 62 62 28
Width: 1519
Flags: W
LayerCount: 2
Fore
SplineSet
350 320 m 1,0,-1
 1193 752 l 1,1,-1
 350 1182 l 1,2,-1
 350 1317 l 1,3,-1
 1319 801 l 1,4,-1
 1319 702 l 1,5,-1
 350 186 l 1,6,-1
 350 320 l 1,0,-1
EndSplineSet
EndChar

StartChar: question
Encoding: 63 63 29
Width: 1012
Flags: W
LayerCount: 2
Fore
SplineSet
490 490 m 1,0,1
 476 502 476 502 459 524.5 c 128,-1,2
 442 547 442 547 424 576 c 128,-1,3
 406 605 406 605 389 638.5 c 128,-1,4
 372 672 372 672 358.5 706 c 128,-1,5
 345 740 345 740 337 772.5 c 128,-1,6
 329 805 329 805 330 832 c 0,7,8
 331 872 331 872 368 905.5 c 128,-1,9
 405 939 405 939 460.5 968 c 128,-1,10
 516 997 516 997 581.5 1023.5 c 128,-1,11
 647 1050 647 1050 704 1077 c 128,-1,12
 761 1104 761 1104 801 1132.5 c 128,-1,13
 841 1161 841 1161 846 1195 c 1,14,15
 850 1300 850 1300 810.5 1392.5 c 128,-1,16
 771 1485 771 1485 701 1554.5 c 128,-1,17
 631 1624 631 1624 536 1664.5 c 128,-1,18
 441 1705 441 1705 333 1705 c 0,19,20
 312 1705 312 1705 288.5 1703.5 c 128,-1,21
 265 1702 265 1702 242 1698 c 128,-1,22
 219 1694 219 1694 198 1688.5 c 128,-1,23
 177 1683 177 1683 162 1676 c 1,24,-1
 162 1789 l 1,25,26
 169 1798 169 1798 188.5 1806 c 128,-1,27
 208 1814 208 1814 234 1820 c 128,-1,28
 260 1826 260 1826 290.5 1830 c 128,-1,29
 321 1834 321 1834 349 1834 c 0,30,31
 463 1834 463 1834 554 1806.5 c 128,-1,32
 645 1779 645 1779 714.5 1732 c 128,-1,33
 784 1685 784 1685 832 1622.5 c 128,-1,34
 880 1560 880 1560 909.5 1490 c 128,-1,35
 939 1420 939 1420 949.5 1346 c 128,-1,36
 960 1272 960 1272 954 1203 c 1,37,38
 954 1159 954 1159 920.5 1123.5 c 128,-1,39
 887 1088 887 1088 836 1057.5 c 128,-1,40
 785 1027 785 1027 725 1000.5 c 128,-1,41
 665 974 665 974 611 947.5 c 128,-1,42
 557 921 557 921 518 894 c 128,-1,43
 479 867 479 867 470 836 c 1,44,45
 465 792 465 792 474 748 c 128,-1,46
 483 704 483 704 499 660.5 c 128,-1,47
 515 617 515 617 535.5 574 c 128,-1,48
 556 531 556 531 574 490 c 1,49,-1
 490 490 l 1,0,1
480 71 m 0,50,51
 480 94 480 94 490 114 c 128,-1,52
 500 134 500 134 516.5 149 c 128,-1,53
 533 164 533 164 553.5 172.5 c 128,-1,54
 574 181 574 181 595 181 c 0,55,56
 620 181 620 181 638.5 173.5 c 128,-1,57
 657 166 657 166 669 153 c 128,-1,58
 681 140 681 140 686.5 123 c 128,-1,59
 692 106 692 106 692 87 c 0,60,61
 692 63 692 63 682 42.5 c 128,-1,62
 672 22 672 22 656 8 c 128,-1,63
 640 -6 640 -6 619.5 -14 c 128,-1,64
 599 -22 599 -22 577 -22 c 0,65,66
 558 -22 558 -22 540.5 -15.5 c 128,-1,67
 523 -9 523 -9 509.5 3 c 128,-1,68
 496 15 496 15 488 32.5 c 128,-1,69
 480 50 480 50 480 71 c 0,50,51
EndSplineSet
EndChar

StartChar: at
Encoding: 64 64 30
Width: 2133
Flags: W
LayerCount: 2
Fore
SplineSet
224 414 m 0,0,1
 224 570 224 570 260.5 706.5 c 128,-1,2
 297 843 297 843 362.5 957 c 128,-1,3
 428 1071 428 1071 518.5 1160 c 128,-1,4
 609 1249 609 1249 718 1310.5 c 128,-1,5
 827 1372 827 1372 950 1404.5 c 128,-1,6
 1073 1437 1073 1437 1203 1437 c 0,7,8
 1347 1437 1347 1437 1471.5 1394.5 c 128,-1,9
 1596 1352 1596 1352 1688.5 1271.5 c 128,-1,10
 1781 1191 1781 1191 1834 1075 c 128,-1,11
 1887 959 1887 959 1887 812 c 0,12,13
 1887 675 1887 675 1862.5 564 c 128,-1,14
 1838 453 1838 453 1796.5 367 c 128,-1,15
 1755 281 1755 281 1700.5 219 c 128,-1,16
 1646 157 1646 157 1586 116.5 c 128,-1,17
 1526 76 1526 76 1464 57 c 128,-1,18
 1402 38 1402 38 1347 38 c 0,19,20
 1312 38 1312 38 1293.5 85.5 c 128,-1,21
 1275 133 1275 133 1270 210 c 0,22,23
 1268 243 1268 243 1268 282 c 128,-1,24
 1268 321 1268 321 1272.5 372 c 128,-1,25
 1277 423 1277 423 1286.5 489.5 c 128,-1,26
 1296 556 1296 556 1312 644 c 1,27,28
 1289 574 1289 574 1260 501 c 128,-1,29
 1231 428 1231 428 1196.5 359.5 c 128,-1,30
 1162 291 1162 291 1122.5 230.5 c 128,-1,31
 1083 170 1083 170 1040 124.5 c 128,-1,32
 997 79 997 79 951 52.5 c 128,-1,33
 905 26 905 26 858 26 c 0,34,35
 812 26 812 26 766.5 53.5 c 128,-1,36
 721 81 721 81 685 133 c 128,-1,37
 649 185 649 185 627 260 c 128,-1,38
 605 335 605 335 605 430 c 0,39,40
 605 494 605 494 618.5 565 c 128,-1,41
 632 636 632 636 658.5 705.5 c 128,-1,42
 685 775 685 775 724 837.5 c 128,-1,43
 763 900 763 900 813.5 948 c 128,-1,44
 864 996 864 996 926.5 1024 c 128,-1,45
 989 1052 989 1052 1062 1052 c 0,46,47
 1098 1052 1098 1052 1137.5 1047 c 128,-1,48
 1177 1042 1177 1042 1216 1033.5 c 128,-1,49
 1255 1025 1255 1025 1290.5 1013.5 c 128,-1,50
 1326 1002 1326 1002 1352 988 c 1,51,52
 1355 997 1355 997 1358.5 1006.5 c 128,-1,53
 1362 1016 1362 1016 1367 1023.5 c 128,-1,54
 1372 1031 1372 1031 1379 1035 c 128,-1,55
 1386 1039 1386 1039 1395 1037 c 1,56,-1
 1477 1009 l 1,57,58
 1465 955 1465 955 1452 878 c 128,-1,59
 1439 801 1439 801 1427 715.5 c 128,-1,60
 1415 630 1415 630 1404.5 544.5 c 128,-1,61
 1394 459 1394 459 1386 388 c 0,62,63
 1380 335 1380 335 1378 287.5 c 128,-1,64
 1376 240 1376 240 1379 205 c 128,-1,65
 1382 170 1382 170 1389 149.5 c 128,-1,66
 1396 129 1396 129 1408 129 c 0,67,68
 1444 129 1444 129 1486 149.5 c 128,-1,69
 1528 170 1528 170 1569.5 209 c 128,-1,70
 1611 248 1611 248 1649 303 c 128,-1,71
 1687 358 1687 358 1716 428 c 128,-1,72
 1745 498 1745 498 1762.5 580.5 c 128,-1,73
 1780 663 1780 663 1780 756 c 0,74,75
 1780 860 1780 860 1756.5 944 c 128,-1,76
 1733 1028 1733 1028 1690.5 1093 c 128,-1,77
 1648 1158 1648 1158 1589 1205 c 128,-1,78
 1530 1252 1530 1252 1459.5 1282 c 128,-1,79
 1389 1312 1389 1312 1309 1326.5 c 128,-1,80
 1229 1341 1229 1341 1145 1341 c 0,81,82
 1038 1341 1038 1341 937 1314.5 c 128,-1,83
 836 1288 836 1288 745.5 1237 c 128,-1,84
 655 1186 655 1186 579.5 1110.5 c 128,-1,85
 504 1035 504 1035 449.5 937 c 128,-1,86
 395 839 395 839 364.5 718.5 c 128,-1,87
 334 598 334 598 334 458 c 0,88,89
 334 326 334 326 362 220 c 128,-1,90
 390 114 390 114 440 32.5 c 128,-1,91
 490 -49 490 -49 558.5 -107 c 128,-1,92
 627 -165 627 -165 708.5 -202.5 c 128,-1,93
 790 -240 790 -240 881 -257.5 c 128,-1,94
 972 -275 972 -275 1066 -275 c 0,95,96
 1123 -275 1123 -275 1179 -268 c 128,-1,97
 1235 -261 1235 -261 1284.5 -250 c 128,-1,98
 1334 -239 1334 -239 1374.5 -225 c 128,-1,99
 1415 -211 1415 -211 1442 -196 c 1,100,-1
 1470 -260 l 1,101,102
 1437 -286 1437 -286 1385.5 -307.5 c 128,-1,103
 1334 -329 1334 -329 1272.5 -344 c 128,-1,104
 1211 -359 1211 -359 1143.5 -367.5 c 128,-1,105
 1076 -376 1076 -376 1012 -376 c 0,106,107
 898 -376 898 -376 795.5 -351 c 128,-1,108
 693 -326 693 -326 605.5 -278.5 c 128,-1,109
 518 -231 518 -231 447.5 -162.5 c 128,-1,110
 377 -94 377 -94 327.5 -6 c 128,-1,111
 278 82 278 82 251 187.5 c 128,-1,112
 224 293 224 293 224 414 c 0,0,1
724 485 m 0,113,114
 724 430 724 430 733 370.5 c 128,-1,115
 742 311 742 311 761.5 262 c 128,-1,116
 781 213 781 213 812 181 c 128,-1,117
 843 149 843 149 886 149 c 0,118,119
 926 149 926 149 969.5 184 c 128,-1,120
 1013 219 1013 219 1056 277.5 c 128,-1,121
 1099 336 1099 336 1139 412 c 128,-1,122
 1179 488 1179 488 1213 569 c 128,-1,123
 1247 650 1247 650 1272 730 c 128,-1,124
 1297 810 1297 810 1310 877 c 1,125,126
 1293 892 1293 892 1263.5 905 c 128,-1,127
 1234 918 1234 918 1199 927 c 128,-1,128
 1164 936 1164 936 1127.5 941 c 128,-1,129
 1091 946 1091 946 1060 946 c 0,130,131
 973 946 973 946 909.5 905.5 c 128,-1,132
 846 865 846 865 805 799.5 c 128,-1,133
 764 734 764 734 744 651.5 c 128,-1,134
 724 569 724 569 724 485 c 0,113,114
EndSplineSet
EndChar

StartChar: A
Encoding: 65 65 31
Width: 1502
Flags: W
LayerCount: 2
Fore
SplineSet
4 65 m 1,0,-1
 152 89 l 1,1,-1
 685 1521 l 1,2,-1
 812 1521 l 1,3,-1
 1321 90 l 1,4,-1
 1497 66 l 1,5,-1
 1497 0 l 1,6,-1
 985 0 l 1,7,-1
 985 66 l 1,8,-1
 1162 89 l 1,9,-1
 1035 457 l 1,10,-1
 407 457 l 1,11,-1
 278 89 l 1,12,-1
 466 65 l 1,13,-1
 466 0 l 1,14,-1
 4 0 l 1,15,-1
 4 65 l 1,0,-1
1005 546 m 1,16,-1
 775 1213 l 1,17,-1
 727 1362 l 1,18,-1
 439 546 l 1,19,-1
 1005 546 l 1,16,-1
EndSplineSet
EndChar

StartChar: B
Encoding: 66 66 32
Width: 1415
Flags: W
LayerCount: 2
Fore
SplineSet
102 65 m 1,0,-1
 282 90 l 1,1,-1
 282 1422 l 1,2,-1
 105 1436 l 1,3,-1
 105 1511 l 1,4,-1
 347 1511 l 1,5,6
 393 1512 393 1512 436.5 1514 c 128,-1,7
 480 1516 480 1516 525.5 1518 c 128,-1,8
 571 1520 571 1520 622 1521.5 c 128,-1,9
 673 1523 673 1523 733 1523 c 0,10,11
 850 1523 850 1523 940.5 1505.5 c 128,-1,12
 1031 1488 1031 1488 1093.5 1451 c 128,-1,13
 1156 1414 1156 1414 1188 1356 c 128,-1,14
 1220 1298 1220 1298 1220 1217 c 0,15,16
 1220 1143 1220 1143 1201.5 1079.5 c 128,-1,17
 1183 1016 1183 1016 1145 965 c 128,-1,18
 1107 914 1107 914 1048.5 878.5 c 128,-1,19
 990 843 990 843 910 827 c 1,20,21
 992 826 992 826 1066.5 801.5 c 128,-1,22
 1141 777 1141 777 1198 730.5 c 128,-1,23
 1255 684 1255 684 1288.5 615 c 128,-1,24
 1322 546 1322 546 1322 457 c 0,25,26
 1322 354 1322 354 1284 267.5 c 128,-1,27
 1246 181 1246 181 1167.5 118.5 c 128,-1,28
 1089 56 1089 56 969 21 c 128,-1,29
 849 -14 849 -14 684 -14 c 0,30,31
 641 -14 641 -14 593 -12.5 c 128,-1,32
 545 -11 545 -11 499.5 -9 c 128,-1,33
 454 -7 454 -7 414 -4.5 c 128,-1,34
 374 -2 374 -2 348 0 c 1,35,-1
 102 0 l 1,36,-1
 102 65 l 1,0,-1
426 861 m 1,37,38
 453 857 453 857 492.5 856 c 128,-1,39
 532 855 532 855 574 855 c 128,-1,40
 616 855 616 855 655 855.5 c 128,-1,41
 694 856 694 856 719 856 c 0,42,43
 794 856 794 856 860.5 875.5 c 128,-1,44
 927 895 927 895 976.5 936 c 128,-1,45
 1026 977 1026 977 1055 1039.5 c 128,-1,46
 1084 1102 1084 1102 1084 1189 c 0,47,48
 1084 1268 1084 1268 1052.5 1317.5 c 128,-1,49
 1021 1367 1021 1367 968 1394 c 128,-1,50
 915 1421 915 1421 845.5 1430.5 c 128,-1,51
 776 1440 776 1440 700 1440 c 0,52,53
 670 1440 670 1440 631.5 1439.5 c 128,-1,54
 593 1439 593 1439 554.5 1438 c 128,-1,55
 516 1437 516 1437 482.5 1434 c 128,-1,56
 449 1431 449 1431 428 1427 c 1,57,-1
 426 861 l 1,37,38
427 101 m 1,58,59
 446 94 446 94 481.5 88 c 128,-1,60
 517 82 517 82 558 78 c 128,-1,61
 599 74 599 74 641 72 c 128,-1,62
 683 70 683 70 715 70 c 0,63,64
 797 70 797 70 878.5 86 c 128,-1,65
 960 102 960 102 1025 142.5 c 128,-1,66
 1090 183 1090 183 1130.5 252.5 c 128,-1,67
 1171 322 1171 322 1171 429 c 0,68,69
 1171 525 1171 525 1139 589.5 c 128,-1,70
 1107 654 1107 654 1048.5 693 c 128,-1,71
 990 732 990 732 907 748.5 c 128,-1,72
 824 765 824 765 723 765 c 0,73,74
 688 765 688 765 648 765 c 128,-1,75
 608 765 608 765 568 765 c 128,-1,76
 528 765 528 765 491.5 764 c 128,-1,77
 455 763 455 763 427 761 c 1,78,-1
 427 101 l 1,58,59
EndSplineSet
EndChar

StartChar: C
Encoding: 67 67 33
Width: 1441
Flags: W
LayerCount: 2
Fore
SplineSet
110 724 m 0,0,1
 110 853 110 853 140 962.5 c 128,-1,2
 170 1072 170 1072 224 1161.5 c 128,-1,3
 278 1251 278 1251 352.5 1319.5 c 128,-1,4
 427 1388 427 1388 517 1434 c 128,-1,5
 607 1480 607 1480 708 1504 c 128,-1,6
 809 1528 809 1528 916 1528 c 0,7,8
 988 1528 988 1528 1050 1519.5 c 128,-1,9
 1112 1511 1112 1511 1164 1499.5 c 128,-1,10
 1216 1488 1216 1488 1258 1476 c 128,-1,11
 1300 1464 1300 1464 1333 1457 c 1,12,-1
 1318 1184 l 1,13,-1
 1239 1184 l 1,14,-1
 1201 1364 l 1,15,16
 1140 1402 1140 1402 1059 1422 c 128,-1,17
 978 1442 978 1442 873 1442 c 0,18,19
 795 1442 795 1442 719 1423.5 c 128,-1,20
 643 1405 643 1405 575 1368.5 c 128,-1,21
 507 1332 507 1332 449 1276.5 c 128,-1,22
 391 1221 391 1221 349 1146.5 c 128,-1,23
 307 1072 307 1072 283.5 979.5 c 128,-1,24
 260 887 260 887 260 775 c 0,25,26
 260 677 260 677 277.5 585.5 c 128,-1,27
 295 494 295 494 330 413.5 c 128,-1,28
 365 333 365 333 416.5 266 c 128,-1,29
 468 199 468 199 536 151.5 c 128,-1,30
 604 104 604 104 687.5 78 c 128,-1,31
 771 52 771 52 871 53 c 0,32,33
 932 54 932 54 986.5 63 c 128,-1,34
 1041 72 1041 72 1086 87 c 128,-1,35
 1131 102 1131 102 1165 121.5 c 128,-1,36
 1199 141 1199 141 1220 163 c 1,37,-1
 1265 333 l 1,38,-1
 1334 332 l 1,39,-1
 1334 63 l 1,40,41
 1298 61 1298 61 1254.5 47 c 128,-1,42
 1211 33 1211 33 1151 16 c 128,-1,43
 1091 -1 1091 -1 1011.5 -14.5 c 128,-1,44
 932 -28 932 -28 825 -28 c 0,45,46
 670 -28 670 -28 539 27 c 128,-1,47
 408 82 408 82 312.5 181.5 c 128,-1,48
 217 281 217 281 163.5 419 c 128,-1,49
 110 557 110 557 110 724 c 0,0,1
EndSplineSet
EndChar

StartChar: D
Encoding: 68 68 34
Width: 1591
Flags: W
LayerCount: 2
Fore
SplineSet
102 65 m 1,0,-1
 282 90 l 1,1,-1
 282 1421 l 1,2,-1
 105 1436 l 1,3,-1
 105 1511 l 1,4,-1
 354 1511 l 1,5,6
 464 1510 464 1510 557 1516.5 c 128,-1,7
 650 1523 650 1523 740 1523 c 0,8,9
 920 1523 920 1523 1059 1479.5 c 128,-1,10
 1198 1436 1198 1436 1293.5 1347.5 c 128,-1,11
 1389 1259 1389 1259 1438 1126.5 c 128,-1,12
 1487 994 1487 994 1487 817 c 0,13,14
 1487 620 1487 620 1427 466 c 128,-1,15
 1367 312 1367 312 1260 205.5 c 128,-1,16
 1153 99 1153 99 1004.5 43.5 c 128,-1,17
 856 -12 856 -12 678 -10 c 1,18,19
 606 -8 606 -8 520 -3.5 c 128,-1,20
 434 1 434 1 356 1 c 2,21,-1
 102 0 l 1,22,-1
 102 65 l 1,0,-1
427 97 m 1,23,24
 495 86 495 86 558.5 78.5 c 128,-1,25
 622 71 622 71 697 73 c 0,26,27
 826 75 826 75 942 119 c 128,-1,28
 1058 163 1058 163 1145.5 250 c 128,-1,29
 1233 337 1233 337 1284.5 468.5 c 128,-1,30
 1336 600 1336 600 1336 777 c 0,31,32
 1336 1110 1336 1110 1172 1278 c 128,-1,33
 1008 1446 1008 1446 696 1439 c 0,34,35
 621 1437 621 1437 555.5 1433 c 128,-1,36
 490 1429 490 1429 427 1421 c 1,37,-1
 427 97 l 1,23,24
EndSplineSet
EndChar

StartChar: E
Encoding: 69 69 35
Width: 1351
Flags: W
LayerCount: 2
Fore
SplineSet
102 65 m 1,0,-1
 282 89 l 1,1,-1
 282 1421 l 1,2,-1
 105 1436 l 1,3,-1
 105 1511 l 1,4,-1
 1123 1511 l 1,5,-1
 1152 1225 l 1,6,-1
 1069 1225 l 1,7,-1
 1023 1420 l 1,8,-1
 426 1432 l 1,9,-1
 426 867 l 1,10,-1
 852 874 l 1,11,-1
 878 1034 l 1,12,-1
 956 1034 l 1,13,-1
 956 611 l 1,14,-1
 878 611 l 1,15,-1
 852 780 l 1,16,-1
 426 786 l 1,17,-1
 426 82 l 1,18,-1
 1063 98 l 1,19,-1
 1153 333 l 1,20,-1
 1225 315 l 1,21,-1
 1180 0 l 1,22,-1
 102 0 l 1,23,-1
 102 65 l 1,0,-1
EndSplineSet
EndChar

StartChar: F
Encoding: 70 70 36
Width: 1249
Flags: W
LayerCount: 2
Fore
SplineSet
89 65 m 1,0,-1
 282 90 l 1,1,-1
 282 1422 l 1,2,-1
 105 1436 l 1,3,-1
 105 1511 l 1,4,-1
 1144 1511 l 1,5,-1
 1165 1226 l 1,6,-1
 1089 1224 l 1,7,-1
 1043 1416 l 1,8,-1
 426 1429 l 1,9,-1
 426 826 l 1,10,-1
 877 834 l 1,11,-1
 910 990 l 1,12,-1
 985 990 l 1,13,-1
 985 570 l 1,14,-1
 901 570 l 1,15,-1
 878 738 l 1,16,-1
 426 745 l 1,17,-1
 426 89 l 1,18,-1
 722 72 l 1,19,-1
 722 0 l 1,20,-1
 89 0 l 1,21,-1
 89 65 l 1,0,-1
EndSplineSet
EndChar

StartChar: G
Encoding: 71 71 37
Width: 1579
Flags: W
LayerCount: 2
Fore
SplineSet
113 724 m 0,0,1
 113 917 113 917 177 1067 c 128,-1,2
 241 1217 241 1217 350.5 1319.5 c 128,-1,3
 460 1422 460 1422 606 1475 c 128,-1,4
 752 1528 752 1528 916 1528 c 0,5,6
 1006 1528 1006 1528 1076 1520 c 128,-1,7
 1146 1512 1146 1512 1199 1500.5 c 128,-1,8
 1252 1489 1252 1489 1291.5 1477.5 c 128,-1,9
 1331 1466 1331 1466 1360 1460 c 1,10,-1
 1346 1189 l 1,11,-1
 1267 1189 l 1,12,-1
 1229 1367 l 1,13,14
 1213 1379 1213 1379 1182 1392.5 c 128,-1,15
 1151 1406 1151 1406 1105.5 1417 c 128,-1,16
 1060 1428 1060 1428 1001.5 1435.5 c 128,-1,17
 943 1443 943 1443 873 1442 c 0,18,19
 755 1441 755 1441 645 1399 c 128,-1,20
 535 1357 535 1357 450 1273.5 c 128,-1,21
 365 1190 365 1190 314 1064.5 c 128,-1,22
 263 939 263 939 263 771 c 0,23,24
 263 681 263 681 279 592.5 c 128,-1,25
 295 504 295 504 326.5 424.5 c 128,-1,26
 358 345 358 345 406.5 277 c 128,-1,27
 455 209 455 209 520 159.5 c 128,-1,28
 585 110 585 110 667 82 c 128,-1,29
 749 54 749 54 849 54 c 0,30,31
 897 54 897 54 950.5 59.5 c 128,-1,32
 1004 65 1004 65 1054.5 77 c 128,-1,33
 1105 89 1105 89 1149 107.5 c 128,-1,34
 1193 126 1193 126 1222 152 c 1,35,-1
 1221 618 l 1,36,-1
 943 634 l 1,37,-1
 943 708 l 1,38,-1
 1504 708 l 1,39,-1
 1504 634 l 1,40,-1
 1366 617 l 1,41,-1
 1366 75 l 1,42,43
 1333 72 1333 72 1276 56 c 128,-1,44
 1219 40 1219 40 1145.5 21 c 128,-1,45
 1072 2 1072 2 986 -13 c 128,-1,46
 900 -28 900 -28 809 -28 c 0,47,48
 654 -28 654 -28 526 28.5 c 128,-1,49
 398 85 398 85 306 185.5 c 128,-1,50
 214 286 214 286 163.5 423.5 c 128,-1,51
 113 561 113 561 113 724 c 0,0,1
EndSplineSet
EndChar

StartChar: H
Encoding: 72 72 38
Width: 1698
Flags: W
LayerCount: 2
Fore
SplineSet
111 65 m 1,0,-1
 284 90 l 1,1,-1
 284 1421 l 1,2,-1
 119 1436 l 1,3,-1
 119 1511 l 1,4,-1
 589 1511 l 1,5,-1
 589 1436 l 1,6,-1
 428 1421 l 1,7,-1
 428 792 l 1,8,-1
 1270 792 l 1,9,-1
 1270 1422 l 1,10,-1
 1106 1436 l 1,11,-1
 1106 1511 l 1,12,-1
 1575 1511 l 1,13,-1
 1575 1436 l 1,14,-1
 1414 1422 l 1,15,-1
 1414 90 l 1,16,-1
 1589 66 l 1,17,-1
 1589 0 l 1,18,-1
 1101 0 l 1,19,-1
 1101 66 l 1,20,-1
 1270 89 l 1,21,-1
 1270 703 l 1,22,-1
 428 703 l 1,23,-1
 428 89 l 1,24,-1
 598 65 l 1,25,-1
 598 0 l 1,26,-1
 111 0 l 1,27,-1
 111 65 l 1,0,-1
EndSplineSet
EndChar

StartChar: I
Encoding: 73 73 39
Width: 764
Flags: W
LayerCount: 2
Fore
SplineSet
140 65 m 1,0,-1
 308 89 l 1,1,-1
 308 1422 l 1,2,-1
 143 1436 l 1,3,-1
 143 1511 l 1,4,-1
 620 1511 l 1,5,-1
 620 1436 l 1,6,-1
 453 1422 l 1,7,-1
 453 89 l 1,8,-1
 629 65 l 1,9,-1
 629 0 l 1,10,-1
 140 0 l 1,11,-1
 140 65 l 1,0,-1
EndSplineSet
EndChar

StartChar: J
Encoding: 74 74 40
Width: 739
Flags: W
LayerCount: 2
Fore
SplineSet
265 -63 m 1,0,1
 280 -19 280 -19 288.5 30 c 128,-1,2
 297 79 297 79 301.5 136 c 128,-1,3
 306 193 306 193 307 258.5 c 128,-1,4
 308 324 308 324 308 401 c 2,5,-1
 308 1422 l 1,6,-1
 132 1436 l 1,7,-1
 132 1511 l 1,8,-1
 635 1511 l 1,9,-1
 635 1436 l 1,10,-1
 453 1421 l 1,11,-1
 453 320 l 2,12,13
 453 277 453 277 453 240.5 c 128,-1,14
 453 204 453 204 451.5 170 c 128,-1,15
 450 136 450 136 446 103 c 128,-1,16
 442 70 442 70 435 34 c 0,17,18
 417 -56 417 -56 371 -128.5 c 128,-1,19
 325 -201 325 -201 262 -254 c 128,-1,20
 199 -307 199 -307 126 -339.5 c 128,-1,21
 53 -372 53 -372 -18 -381 c 1,22,-1
 -62 -321 l 1,23,24
 60 -292 60 -292 143.5 -226 c 128,-1,25
 227 -160 227 -160 265 -63 c 1,0,1
EndSplineSet
EndChar

StartChar: K
Encoding: 75 75 41
Width: 1440
Flags: W
LayerCount: 2
Fore
SplineSet
138 65 m 1,0,-1
 300 89 l 1,1,-1
 300 1423 l 1,2,-1
 141 1436 l 1,3,-1
 141 1511 l 1,4,-1
 606 1511 l 1,5,-1
 606 1436 l 1,6,-1
 444 1422 l 1,7,-1
 444 700 l 1,8,-1
 1103 1422 l 1,9,-1
 948 1436 l 1,10,-1
 948 1511 l 1,11,-1
 1402 1511 l 1,12,-1
 1402 1436 l 1,13,-1
 1244 1421 l 1,14,-1
 733 880 l 1,15,16
 754 860 754 860 788.5 815.5 c 128,-1,17
 823 771 823 771 865 711.5 c 128,-1,18
 907 652 907 652 954.5 582.5 c 128,-1,19
 1002 513 1002 513 1049.5 443.5 c 128,-1,20
 1097 374 1097 374 1142 309.5 c 128,-1,21
 1187 245 1187 245 1225 196 c 128,-1,22
 1263 147 1263 147 1290.5 118 c 128,-1,23
 1318 89 1318 89 1331 90 c 1,24,-1
 1448 65 l 1,25,-1
 1448 0 l 1,26,-1
 1217 0 l 2,27,28
 1204 0 1204 0 1179 27 c 128,-1,29
 1154 54 1154 54 1121 100.5 c 128,-1,30
 1088 147 1088 147 1048 208 c 128,-1,31
 1008 269 1008 269 965 335.5 c 128,-1,32
 922 402 922 402 878.5 470.5 c 128,-1,33
 835 539 835 539 794 601 c 128,-1,34
 753 663 753 663 716 713 c 128,-1,35
 679 763 679 763 651 794 c 1,36,-1
 444 575 l 1,37,-1
 444 89 l 1,38,-1
 646 65 l 1,39,-1
 646 0 l 1,40,-1
 138 0 l 1,41,-1
 138 65 l 1,0,-1
EndSplineSet
EndChar

StartChar: L
Encoding: 76 76 42
Width: 1240
Flags: W
LayerCount: 2
Fore
SplineSet
102 65 m 1,0,-1
 282 90 l 1,1,-1
 282 1414 l 1,2,-1
 105 1429 l 1,3,-1
 105 1511 l 1,4,-1
 624 1511 l 1,5,-1
 624 1429 l 1,6,-1
 427 1414 l 1,7,-1
 426 83 l 1,8,-1
 1036 103 l 1,9,-1
 1143 348 l 1,10,-1
 1210 317 l 1,11,-1
 1145 0 l 1,12,-1
 102 0 l 1,13,-1
 102 65 l 1,0,-1
EndSplineSet
EndChar

StartChar: M
Encoding: 77 77 43
Width: 1984
Flags: W
LayerCount: 2
Fore
SplineSet
55 65 m 1,0,-1
 242 89 l 1,1,-1
 336 1415 l 1,2,-1
 132 1430 l 1,3,-1
 132 1511 l 1,4,-1
 547 1511 l 1,5,-1
 958 367 l 1,6,-1
 998 231 l 1,7,-1
 1048 372 l 1,8,-1
 1431 1510 l 1,9,-1
 1821 1510 l 1,10,-1
 1821 1430 l 1,11,-1
 1627 1415 l 1,12,-1
 1733 89 l 1,13,-1
 1927 66 l 1,14,-1
 1927 0 l 1,15,-1
 1391 0 l 1,16,-1
 1391 66 l 1,17,-1
 1585 90 l 1,18,-1
 1510 1081 l 1,19,-1
 1495 1419 l 1,20,-1
 1442 1228 l 1,21,-1
 1009 -15 l 1,22,-1
 959 -15 l 1,23,-1
 527 1122 l 1,24,-1
 425 1418 l 1,25,-1
 409 1022 l 1,26,-1
 359 90 l 1,27,-1
 573 65 l 1,28,-1
 573 0 l 1,29,-1
 55 0 l 1,30,-1
 55 65 l 1,0,-1
EndSplineSet
EndChar

StartChar: N
Encoding: 78 78 44
Width: 1670
Flags: W
LayerCount: 2
Fore
SplineSet
100 65 m 1,0,-1
 277 88 l 1,1,-1
 277 1414 l 1,2,-1
 106 1429 l 1,3,-1
 106 1511 l 1,4,-1
 429 1511 l 1,5,-1
 1181 363 l 1,6,-1
 1301 134 l 1,7,-1
 1301 1414 l 1,8,-1
 1129 1429 l 1,9,-1
 1129 1510 l 1,10,-1
 1581 1510 l 1,11,-1
 1581 1429 l 1,12,-1
 1408 1414 l 1,13,-1
 1408 0 l 1,14,-1
 1261 0 l 1,15,-1
 535 1090 l 1,16,-1
 385 1357 l 1,17,-1
 384 89 l 1,18,-1
 590 65 l 1,19,-1
 590 0 l 1,20,-1
 100 0 l 1,21,-1
 100 65 l 1,0,-1
EndSplineSet
EndChar

StartChar: O
Encoding: 79 79 45
Width: 1554
Flags: W
LayerCount: 2
Fore
SplineSet
89 742 m 0,0,1
 93 931 93 931 151 1077 c 128,-1,2
 209 1223 209 1223 306 1323.5 c 128,-1,3
 403 1424 403 1424 530.5 1476.5 c 128,-1,4
 658 1529 658 1529 800 1532 c 0,5,6
 953 1535 953 1535 1076.5 1480 c 128,-1,7
 1200 1425 1200 1425 1286.5 1325 c 128,-1,8
 1373 1225 1373 1225 1418.5 1085.5 c 128,-1,9
 1464 946 1464 946 1461 778 c 0,10,11
 1457 589 1457 589 1401 440.5 c 128,-1,12
 1345 292 1345 292 1251.5 189 c 128,-1,13
 1158 86 1158 86 1034 30.5 c 128,-1,14
 910 -25 910 -25 770 -28 c 0,15,16
 615 -31 615 -31 488 25.5 c 128,-1,17
 361 82 361 82 271 185.5 c 128,-1,18
 181 289 181 289 133.5 431.5 c 128,-1,19
 86 574 86 574 89 742 c 0,0,1
247 743 m 0,20,21
 247 600 247 600 284.5 474 c 128,-1,22
 322 348 322 348 392 254.5 c 128,-1,23
 462 161 462 161 562 107 c 128,-1,24
 662 53 662 53 787 53 c 0,25,26
 904 53 904 53 999 104.5 c 128,-1,27
 1094 156 1094 156 1161.5 250.5 c 128,-1,28
 1229 345 1229 345 1266 478.5 c 128,-1,29
 1303 612 1303 612 1303 777 c 0,30,31
 1303 916 1303 916 1269.5 1039 c 128,-1,32
 1236 1162 1236 1162 1170.5 1253 c 128,-1,33
 1105 1344 1105 1344 1008.5 1397 c 128,-1,34
 912 1450 912 1450 787 1450 c 0,35,36
 668 1450 668 1450 568.5 1402.5 c 128,-1,37
 469 1355 469 1355 397.5 1264 c 128,-1,38
 326 1173 326 1173 286.5 1042 c 128,-1,39
 247 911 247 911 247 743 c 0,20,21
EndSplineSet
EndChar

StartChar: P
Encoding: 80 80 46
Width: 1304
Flags: W
LayerCount: 2
Fore
SplineSet
98 65 m 1,0,-1
 300 90 l 1,1,-1
 300 1414 l 1,2,-1
 120 1429 l 1,3,-1
 120 1511 l 1,4,-1
 369 1511 l 2,5,6
 399 1511 399 1511 439.5 1514.5 c 128,-1,7
 480 1518 480 1518 527 1521.5 c 128,-1,8
 574 1525 574 1525 624.5 1528.5 c 128,-1,9
 675 1532 675 1532 725 1532 c 0,10,11
 840 1532 840 1532 936 1515 c 128,-1,12
 1032 1498 1032 1498 1101 1450.5 c 128,-1,13
 1170 1403 1170 1403 1208.5 1318.5 c 128,-1,14
 1247 1234 1247 1234 1247 1099 c 0,15,16
 1247 977 1247 977 1198 882.5 c 128,-1,17
 1149 788 1149 788 1068 723.5 c 128,-1,18
 987 659 987 659 882.5 626 c 128,-1,19
 778 593 778 593 668 594 c 0,20,21
 583 594 583 594 529.5 594.5 c 128,-1,22
 476 595 476 595 444 592 c 1,23,-1
 444 90 l 1,24,-1
 721 65 l 1,25,-1
 721 0 l 1,26,-1
 98 0 l 1,27,-1
 98 65 l 1,0,-1
444 683 m 1,28,29
 500 674 500 674 558.5 672.5 c 128,-1,30
 617 671 617 671 665 672 c 0,31,32
 756 673 756 673 836 696 c 128,-1,33
 916 719 916 719 974.5 769.5 c 128,-1,34
 1033 820 1033 820 1067 900.5 c 128,-1,35
 1101 981 1101 981 1101 1098 c 0,36,37
 1101 1196 1101 1196 1074 1264.5 c 128,-1,38
 1047 1333 1047 1333 993 1375 c 128,-1,39
 939 1417 939 1417 857 1434.5 c 128,-1,40
 775 1452 775 1452 665 1448 c 0,41,42
 641 1447 641 1447 611.5 1445.5 c 128,-1,43
 582 1444 582 1444 552.5 1441.5 c 128,-1,44
 523 1439 523 1439 494.5 1435.5 c 128,-1,45
 466 1432 466 1432 444 1426 c 1,46,-1
 444 683 l 1,28,29
EndSplineSet
EndChar

StartChar: Q
Encoding: 81 81 47
Width: 1565
Flags: W
LayerCount: 2
Fore
SplineSet
89 742 m 0,0,1
 93 931 93 931 151 1077 c 128,-1,2
 209 1223 209 1223 306 1323.5 c 128,-1,3
 403 1424 403 1424 530.5 1476.5 c 128,-1,4
 658 1529 658 1529 800 1532 c 0,5,6
 953 1535 953 1535 1076.5 1480 c 128,-1,7
 1200 1425 1200 1425 1286.5 1325 c 128,-1,8
 1373 1225 1373 1225 1418.5 1085.5 c 128,-1,9
 1464 946 1464 946 1461 778 c 0,10,11
 1458 620 1458 620 1417.5 490.5 c 128,-1,12
 1377 361 1377 361 1309 262 c 128,-1,13
 1241 163 1241 163 1148.5 96.5 c 128,-1,14
 1056 30 1056 30 948 -1 c 1,15,16
 969 -63 969 -63 1010 -106 c 128,-1,17
 1051 -149 1051 -149 1106 -177 c 128,-1,18
 1161 -205 1161 -205 1225 -217.5 c 128,-1,19
 1289 -230 1289 -230 1355 -230 c 0,20,21
 1413 -230 1413 -230 1464 -219.5 c 128,-1,22
 1515 -209 1515 -209 1544 -189 c 1,23,-1
 1558 -286 l 1,24,25
 1549 -300 1549 -300 1525.5 -312 c 128,-1,26
 1502 -324 1502 -324 1469 -333 c 128,-1,27
 1436 -342 1436 -342 1395 -347.5 c 128,-1,28
 1354 -353 1354 -353 1308 -353 c 0,29,30
 1231 -353 1231 -353 1160.5 -335 c 128,-1,31
 1090 -317 1090 -317 1031.5 -277 c 128,-1,32
 973 -237 973 -237 929.5 -173.5 c 128,-1,33
 886 -110 886 -110 864 -19 c 1,34,35
 817 -27 817 -27 770 -28 c 0,36,37
 615 -31 615 -31 488 25.5 c 128,-1,38
 361 82 361 82 271 185.5 c 128,-1,39
 181 289 181 289 133.5 431.5 c 128,-1,40
 86 574 86 574 89 742 c 0,0,1
247 743 m 0,41,42
 247 600 247 600 284.5 474 c 128,-1,43
 322 348 322 348 392 254.5 c 128,-1,44
 462 161 462 161 562 107 c 128,-1,45
 662 53 662 53 787 53 c 0,46,47
 904 53 904 53 999 104.5 c 128,-1,48
 1094 156 1094 156 1161.5 250.5 c 128,-1,49
 1229 345 1229 345 1266 478.5 c 128,-1,50
 1303 612 1303 612 1303 777 c 0,51,52
 1303 916 1303 916 1269.5 1039 c 128,-1,53
 1236 1162 1236 1162 1170.5 1253 c 128,-1,54
 1105 1344 1105 1344 1008.5 1397 c 128,-1,55
 912 1450 912 1450 787 1450 c 0,56,57
 668 1450 668 1450 568.5 1402.5 c 128,-1,58
 469 1355 469 1355 397.5 1264 c 128,-1,59
 326 1173 326 1173 286.5 1042 c 128,-1,60
 247 911 247 911 247 743 c 0,41,42
EndSplineSet
EndChar

StartChar: R
Encoding: 82 82 48
Width: 1441
Flags: W
LayerCount: 2
Fore
SplineSet
98 65 m 1,0,-1
 300 90 l 1,1,-1
 300 1414 l 1,2,-1
 120 1429 l 1,3,-1
 120 1511 l 1,4,-1
 369 1511 l 2,5,6
 391 1511 391 1511 424 1513 c 128,-1,7
 457 1515 457 1515 497.5 1517 c 128,-1,8
 538 1519 538 1519 584.5 1521 c 128,-1,9
 631 1523 631 1523 681 1523 c 0,10,11
 795 1523 795 1523 889.5 1509.5 c 128,-1,12
 984 1496 984 1496 1052.5 1455.5 c 128,-1,13
 1121 1415 1121 1415 1159 1341 c 128,-1,14
 1197 1267 1197 1267 1197 1146 c 0,15,16
 1197 1067 1197 1067 1172.5 998 c 128,-1,17
 1148 929 1148 929 1102.5 873 c 128,-1,18
 1057 817 1057 817 993.5 776 c 128,-1,19
 930 735 930 735 852 712 c 1,20,21
 888 697 888 697 924.5 663.5 c 128,-1,22
 961 630 961 630 996.5 584.5 c 128,-1,23
 1032 539 1032 539 1066.5 485.5 c 128,-1,24
 1101 432 1101 432 1133.5 378 c 128,-1,25
 1166 324 1166 324 1196 273.5 c 128,-1,26
 1226 223 1226 223 1252 183 c 128,-1,27
 1278 143 1278 143 1300 117.5 c 128,-1,28
 1322 92 1322 92 1339 89 c 2,29,-1
 1459 65 l 1,30,-1
 1459 0 l 1,31,-1
 1209 0 l 2,32,33
 1192 0 1192 0 1169 30 c 128,-1,34
 1146 60 1146 60 1117.5 109 c 128,-1,35
 1089 158 1089 158 1056.5 220.5 c 128,-1,36
 1024 283 1024 283 988 348 c 128,-1,37
 952 413 952 413 913.5 475 c 128,-1,38
 875 537 875 537 834.5 585 c 128,-1,39
 794 633 794 633 752.5 661 c 128,-1,40
 711 689 711 689 669 687 c 0,41,42
 643 686 643 686 609 686 c 128,-1,43
 575 686 575 686 542.5 686.5 c 128,-1,44
 510 687 510 687 483 687.5 c 128,-1,45
 456 688 456 688 444 688 c 1,46,-1
 444 89 l 1,47,-1
 661 65 l 1,48,-1
 661 0 l 1,49,-1
 98 0 l 1,50,-1
 98 65 l 1,0,-1
444 775 m 1,51,52
 462 773 462 773 493.5 771.5 c 128,-1,53
 525 770 525 770 560 769 c 128,-1,54
 595 768 595 768 627.5 768 c 128,-1,55
 660 768 660 768 679 768 c 0,56,57
 770 769 770 769 839 794.5 c 128,-1,58
 908 820 908 820 954.5 866.5 c 128,-1,59
 1001 913 1001 913 1024 979 c 128,-1,60
 1047 1045 1047 1045 1047 1128 c 0,61,62
 1047 1215 1047 1215 1026 1276.5 c 128,-1,63
 1005 1338 1005 1338 958.5 1376 c 128,-1,64
 912 1414 912 1414 836.5 1430.5 c 128,-1,65
 761 1447 761 1447 653 1443 c 0,66,67
 629 1442 629 1442 600.5 1441.5 c 128,-1,68
 572 1441 572 1441 544 1439.5 c 128,-1,69
 516 1438 516 1438 490 1435 c 128,-1,70
 464 1432 464 1432 444 1426 c 1,71,-1
 444 775 l 1,51,52
EndSplineSet
EndChar

StartChar: S
Encoding: 83 83 49
Width: 1221
Flags: W
LayerCount: 2
Fore
SplineSet
124 361 m 1,0,-1
 196 361 l 1,1,-1
 242 156 l 1,2,3
 273 127 273 127 316.5 107.5 c 128,-1,4
 360 88 360 88 408 76.5 c 128,-1,5
 456 65 456 65 505.5 60 c 128,-1,6
 555 55 555 55 599 55 c 0,7,8
 663 55 663 55 727.5 71.5 c 128,-1,9
 792 88 792 88 843.5 124 c 128,-1,10
 895 160 895 160 927.5 216.5 c 128,-1,11
 960 273 960 273 960 354 c 0,12,13
 960 424 960 424 925.5 478.5 c 128,-1,14
 891 533 891 533 835.5 577 c 128,-1,15
 780 621 780 621 708 658 c 128,-1,16
 636 695 636 695 561 731 c 0,17,18
 483 768 483 768 408.5 805.5 c 128,-1,19
 334 843 334 843 275.5 889.5 c 128,-1,20
 217 936 217 936 181 996 c 128,-1,21
 145 1056 145 1056 145 1140 c 0,22,23
 145 1210 145 1210 168 1266 c 128,-1,24
 191 1322 191 1322 229.5 1365 c 128,-1,25
 268 1408 268 1408 319 1439 c 128,-1,26
 370 1470 370 1470 424.5 1489.5 c 128,-1,27
 479 1509 479 1509 534 1518 c 128,-1,28
 589 1527 589 1527 637 1527 c 0,29,30
 715 1527 715 1527 776.5 1519.5 c 128,-1,31
 838 1512 838 1512 885 1500 c 128,-1,32
 932 1488 932 1488 966 1474 c 128,-1,33
 1000 1460 1000 1460 1022 1447 c 1,34,-1
 1022 1181 l 1,35,-1
 954 1181 l 1,36,-1
 897 1380 l 1,37,38
 852 1419 852 1419 779 1435 c 128,-1,39
 706 1451 706 1451 625 1450 c 0,40,41
 575 1450 575 1450 515 1435.5 c 128,-1,42
 455 1421 455 1421 402.5 1387 c 128,-1,43
 350 1353 350 1353 315 1298.5 c 128,-1,44
 280 1244 280 1244 280 1165 c 0,45,46
 280 1099 280 1099 313 1051 c 128,-1,47
 346 1003 346 1003 400 965 c 128,-1,48
 454 927 454 927 523 895 c 128,-1,49
 592 863 592 863 665 828 c 0,50,51
 744 791 744 791 821.5 751 c 128,-1,52
 899 711 899 711 960 660.5 c 128,-1,53
 1021 610 1021 610 1058.5 545.5 c 128,-1,54
 1096 481 1096 481 1096 396 c 0,55,56
 1096 286 1096 286 1054 207 c 128,-1,57
 1012 128 1012 128 941 77 c 128,-1,58
 870 26 870 26 776.5 1.5 c 128,-1,59
 683 -23 683 -23 580 -23 c 0,60,61
 505 -23 505 -23 432.5 -14.5 c 128,-1,62
 360 -6 360 -6 298.5 7 c 128,-1,63
 237 20 237 20 191 35 c 128,-1,64
 145 50 145 50 124 63 c 1,65,-1
 124 361 l 1,0,-1
EndSplineSet
EndChar

StartChar: T
Encoding: 84 84 50
Width: 1270
Flags: W
LayerCount: 2
Fore
SplineSet
313 65 m 1,0,-1
 575 90 l 1,1,-1
 575 1429 l 1,2,-1
 160 1412 l 1,3,-1
 100 1209 l 1,4,-1
 30 1207 l 1,5,-1
 55 1511 l 1,6,-1
 1246 1511 l 1,7,-1
 1244 1204 l 1,8,-1
 1179 1195 l 1,9,-1
 1140 1412 l 1,10,-1
 719 1429 l 1,11,-1
 719 90 l 1,12,-1
 997 65 l 1,13,-1
 997 0 l 1,14,-1
 313 0 l 1,15,-1
 313 65 l 1,0,-1
EndSplineSet
EndChar

StartChar: U
Encoding: 85 85 51
Width: 1640
Flags: W
LayerCount: 2
Fore
SplineSet
234 1421 m 1,0,-1
 80 1436 l 1,1,-1
 80 1511 l 1,2,-1
 552 1511 l 1,3,-1
 552 1436 l 1,4,-1
 379 1420 l 1,5,-1
 379 638 l 2,6,7
 379 464 379 464 414 350.5 c 128,-1,8
 449 237 449 237 512.5 170.5 c 128,-1,9
 576 104 576 104 664 77 c 128,-1,10
 752 50 752 50 859 50 c 0,11,12
 973 50 973 50 1055 91 c 128,-1,13
 1137 132 1137 132 1189.5 210 c 128,-1,14
 1242 288 1242 288 1266.5 401 c 128,-1,15
 1291 514 1291 514 1291 659 c 2,16,-1
 1290 1420 l 1,17,-1
 1117 1436 l 1,18,-1
 1117 1511 l 1,19,-1
 1558 1511 l 1,20,-1
 1558 1436 l 1,21,-1
 1403 1420 l 1,22,-1
 1401 660 l 2,23,24
 1401 474 1401 474 1361.5 343.5 c 128,-1,25
 1322 213 1322 213 1248 130.5 c 128,-1,26
 1174 48 1174 48 1069 10 c 128,-1,27
 964 -28 964 -28 833 -28 c 0,28,29
 672 -28 672 -28 558 13 c 128,-1,30
 444 54 444 54 372 137.5 c 128,-1,31
 300 221 300 221 267 347 c 128,-1,32
 234 473 234 473 234 643 c 2,33,-1
 234 1421 l 1,0,-1
EndSplineSet
EndChar

StartChar: V
Encoding: 86 86 52
Width: 1456
Flags: W
LayerCount: 2
Fore
SplineSet
146 1422 m 1,0,-1
 7 1436 l 1,1,-1
 7 1511 l 1,2,-1
 511 1511 l 1,3,-1
 511 1436 l 1,4,-1
 313 1421 l 1,5,-1
 706 332 l 1,6,-1
 764 146 l 1,7,-1
 820 338 l 1,8,-1
 1160 1422 l 1,9,-1
 996 1436 l 1,10,-1
 996 1510 l 1,11,-1
 1449 1510 l 1,12,-1
 1449 1436 l 1,13,-1
 1286 1421 l 1,14,-1
 798 -20 l 1,15,-1
 692 -20 l 1,16,-1
 146 1422 l 1,0,-1
EndSplineSet
EndChar

StartChar: W
Encoding: 87 87 53
Width: 2123
Flags: W
LayerCount: 2
Fore
SplineSet
154 1422 m 1,0,-1
 16 1436 l 1,1,-1
 16 1511 l 1,2,-1
 511 1511 l 1,3,-1
 511 1435 l 1,4,-1
 314 1421 l 1,5,-1
 669 337 l 1,6,-1
 727 151 l 1,7,-1
 782 329 l 1,8,-1
 1025 1261 l 1,9,-1
 971 1422 l 1,10,-1
 805 1436 l 1,11,-1
 805 1511 l 1,12,-1
 1315 1511 l 1,13,-1
 1315 1435 l 1,14,-1
 1125 1422 l 1,15,-1
 1429 324 l 1,16,-1
 1474 147 l 1,17,-1
 1521 349 l 1,18,-1
 1818 1422 l 1,19,-1
 1635 1436 l 1,20,-1
 1635 1511 l 1,21,-1
 2100 1511 l 1,22,-1
 2100 1436 l 1,23,-1
 1940 1422 l 1,24,-1
 1510 -20 l 1,25,-1
 1393 -20 l 1,26,-1
 1079 1076 l 1,27,-1
 778 -20 l 1,28,-1
 654 -20 l 1,29,-1
 154 1422 l 1,0,-1
EndSplineSet
EndChar

StartChar: X
Encoding: 88 88 54
Width: 1468
Flags: W
LayerCount: 2
Fore
SplineSet
50 66 m 1,0,-1
 228 89 l 1,1,-1
 669 774 l 1,2,-1
 260 1422 l 1,3,-1
 99 1436 l 1,4,-1
 99 1511 l 1,5,-1
 626 1511 l 1,6,-1
 626 1436 l 1,7,-1
 433 1422 l 1,8,-1
 764 860 l 1,9,-1
 1118 1422 l 1,10,-1
 947 1436 l 1,11,-1
 947 1511 l 1,12,-1
 1401 1511 l 1,13,-1
 1401 1436 l 1,14,-1
 1253 1422 l 1,15,-1
 818 803 l 1,16,-1
 1248 89 l 1,17,-1
 1428 66 l 1,18,-1
 1428 0 l 1,19,-1
 882 0 l 1,20,-1
 882 67 l 1,21,-1
 1084 89 l 1,22,-1
 721 704 l 1,23,-1
 366 88 l 1,24,-1
 568 66 l 1,25,-1
 568 0 l 1,26,-1
 49 0 l 1,27,-1
 50 66 l 1,0,-1
EndSplineSet
EndChar

StartChar: Y
Encoding: 89 89 55
Width: 1312
Flags: W
LayerCount: 2
Fore
SplineSet
388 65 m 1,0,-1
 591 90 l 1,1,-1
 591 640 l 1,2,-1
 119 1421 l 1,3,-1
 -11 1436 l 1,4,-1
 -11 1511 l 1,5,-1
 453 1511 l 1,6,-1
 453 1436 l 1,7,-1
 285 1422 l 1,8,-1
 631 827 l 1,9,-1
 679 703 l 1,10,-1
 730 819 l 1,11,-1
 1058 1422 l 1,12,-1
 897 1436 l 1,13,-1
 898 1511 l 1,14,-1
 1323 1511 l 1,15,-1
 1323 1436 l 1,16,-1
 1183 1413 l 1,17,-1
 735 634 l 1,18,-1
 735 90 l 1,19,-1
 946 65 l 1,20,-1
 946 0 l 1,21,-1
 388 0 l 1,22,-1
 388 65 l 1,0,-1
EndSplineSet
EndChar

StartChar: Z
Encoding: 90 90 56
Width: 1427
Flags: W
LayerCount: 2
Fore
SplineSet
994 1282 m 1,0,-1
 1123 1426 l 1,1,-1
 314 1408 l 1,2,-1
 239 1187 l 1,3,-1
 158 1201 l 1,4,-1
 186 1511 l 1,5,-1
 1262 1511 l 1,6,-1
 1285 1445 l 1,7,-1
 391 214 l 1,8,-1
 289 86 l 1,9,-1
 1106 111 l 1,10,-1
 1238 351 l 1,11,-1
 1315 333 l 1,12,-1
 1230 0 l 1,13,-1
 128 0 l 1,14,-1
 105 68 l 1,15,-1
 994 1282 l 1,0,-1
EndSplineSet
EndChar

StartChar: bracketleft
Encoding: 91 91 57
Width: 889
Flags: W
LayerCount: 2
Fore
SplineSet
205 1486 m 2,0,1
 205 1554 205 1554 211 1596.5 c 128,-1,2
 217 1639 217 1639 234.5 1663 c 128,-1,3
 252 1687 252 1687 284 1695.5 c 128,-1,4
 316 1704 316 1704 368 1704 c 0,5,6
 434 1704 434 1704 498 1694 c 128,-1,7
 562 1684 562 1684 619 1672 c 1,8,-1
 618 1607 l 1,9,-1
 327 1607 l 1,10,-1
 327 -59 l 1,11,-1
 618 -60 l 1,12,-1
 619 -125 l 1,13,14
 553 -139 553 -139 486.5 -149 c 128,-1,15
 420 -159 420 -159 348 -159 c 0,16,17
 304 -159 304 -159 276 -150 c 128,-1,18
 248 -141 248 -141 232 -118.5 c 128,-1,19
 216 -96 216 -96 210.5 -57 c 128,-1,20
 205 -18 205 -18 205 42 c 2,21,-1
 205 1486 l 2,0,1
EndSplineSet
EndChar

StartChar: backslash
Encoding: 92 92 58
Width: 715
Flags: W
LayerCount: 2
Fore
SplineSet
-20 1599 m 1,0,-1
 112 1599 l 1,1,-1
 736 -363 l 1,2,-1
 604 -363 l 1,3,-1
 -20 1599 l 1,0,-1
EndSplineSet
EndChar

StartChar: bracketright
Encoding: 93 93 59
Width: 889
Flags: W
LayerCount: 2
Fore
SplineSet
562 -59 m 1,0,-1
 562 1607 l 1,1,-1
 272 1607 l 1,2,-1
 271 1673 l 1,3,4
 337 1687 337 1687 403.5 1697 c 128,-1,5
 470 1707 470 1707 542 1707 c 0,6,7
 586 1707 586 1707 613.5 1698 c 128,-1,8
 641 1689 641 1689 657 1666.5 c 128,-1,9
 673 1644 673 1644 678.5 1605 c 128,-1,10
 684 1566 684 1566 684 1506 c 2,11,-1
 684 58 l 2,12,13
 684 -10 684 -10 678 -52.5 c 128,-1,14
 672 -95 672 -95 654.5 -118.5 c 128,-1,15
 637 -142 637 -142 605.5 -150 c 128,-1,16
 574 -158 574 -158 522 -158 c 0,17,18
 456 -158 456 -158 392 -147 c 128,-1,19
 328 -136 328 -136 270 -124 c 1,20,-1
 271 -59 l 1,21,-1
 562 -59 l 1,0,-1
EndSplineSet
EndChar

StartChar: asciicircum
Encoding: 94 94 60
Width: 1247
Flags: W
LayerCount: 2
Fore
SplineSet
545 1531 m 1,0,-1
 690 1531 l 1,1,-1
 1091 564 l 1,2,-1
 959 563 l 1,3,-1
 612 1383 l 1,4,-1
 267 563 l 1,5,-1
 148 564 l 1,6,-1
 545 1531 l 1,0,-1
EndSplineSet
EndChar

StartChar: underscore
Encoding: 95 95 61
Width: 1063
Flags: W
LayerCount: 2
Fore
SplineSet
1083 -192 m 1,0,-1
 1083 -302 l 1,1,-1
 -20 -302 l 1,2,-1
 -20 -192 l 1,3,-1
 1083 -192 l 1,0,-1
EndSplineSet
EndChar

StartChar: grave
Encoding: 96 96 62
Width: 740
Flags: W
LayerCount: 2
Fore
SplineSet
481 1343 m 1,0,1
 435 1374 435 1374 376.5 1418 c 128,-1,2
 318 1462 318 1462 261.5 1509 c 128,-1,3
 205 1556 205 1556 157.5 1602.5 c 128,-1,4
 110 1649 110 1649 85 1686 c 1,5,-1
 189 1792 l 1,6,-1
 523 1385 l 1,7,-1
 481 1343 l 1,8,-1
 481 1343 l 1,0,1
EndSplineSet
EndChar

StartChar: a
Encoding: 97 97 63
Width: 1107
Flags: W
LayerCount: 2
Fore
SplineSet
97 311 m 1,0,1
 103 380 103 380 139 433.5 c 128,-1,2
 175 487 175 487 231 526 c 128,-1,3
 287 565 287 565 357 592 c 128,-1,4
 427 619 427 619 502 635 c 128,-1,5
 577 651 577 651 651 658 c 128,-1,6
 725 665 725 665 789 665 c 1,7,-1
 789 753 l 2,8,9
 789 837 789 837 769 892.5 c 128,-1,10
 749 948 749 948 711 981 c 128,-1,11
 673 1014 673 1014 618 1027 c 128,-1,12
 563 1040 563 1040 493 1040 c 0,13,14
 454 1040 454 1040 411.5 1032.5 c 128,-1,15
 369 1025 369 1025 327.5 1013 c 128,-1,16
 286 1001 286 1001 249 985 c 128,-1,17
 212 969 212 969 184 952 c 1,18,-1
 154 1023 l 1,19,20
 191 1053 191 1053 242.5 1075 c 128,-1,21
 294 1097 294 1097 348 1111.5 c 128,-1,22
 402 1126 402 1126 453.5 1132.5 c 128,-1,23
 505 1139 505 1139 542 1139 c 0,24,25
 621 1139 621 1139 692 1123 c 128,-1,26
 763 1107 763 1107 816 1066 c 128,-1,27
 869 1025 869 1025 899.5 954 c 128,-1,28
 930 883 930 883 930 773 c 2,29,-1
 929 70 l 1,30,-1
 1061 70 l 1,31,-1
 1061 16 l 1,32,33
 1032 2 1032 2 986.5 -7 c 128,-1,34
 941 -16 941 -16 889 -16 c 0,35,36
 872 -16 872 -16 855.5 -14 c 128,-1,37
 839 -12 839 -12 826 -2.5 c 128,-1,38
 813 7 813 7 805 26.5 c 128,-1,39
 797 46 797 46 797 80 c 2,40,-1
 797 122 l 1,41,42
 738 58 738 58 647.5 18 c 128,-1,43
 557 -22 557 -22 423 -22 c 0,44,45
 352 -22 352 -22 290.5 0.5 c 128,-1,46
 229 23 229 23 184.5 65.5 c 128,-1,47
 140 108 140 108 116 170 c 128,-1,48
 92 232 92 232 97 311 c 1,0,1
240 309 m 0,49,50
 239 247 239 247 260 202.5 c 128,-1,51
 281 158 281 158 317 129 c 128,-1,52
 353 100 353 100 401.5 86.5 c 128,-1,53
 450 73 450 73 505 73 c 0,54,55
 561 73 561 73 607 85 c 128,-1,56
 653 97 653 97 689 114.5 c 128,-1,57
 725 132 725 132 749.5 150 c 128,-1,58
 774 168 774 168 788 180 c 1,59,-1
 789 586 l 1,60,61
 734 586 734 586 672 580.5 c 128,-1,62
 610 575 610 575 549.5 562.5 c 128,-1,63
 489 550 489 550 433 529.5 c 128,-1,64
 377 509 377 509 334.5 478 c 128,-1,65
 292 447 292 447 266.5 405.5 c 128,-1,66
 241 364 241 364 240 309 c 0,49,50
EndSplineSet
EndChar

StartChar: b
Encoding: 98 98 64
Width: 1272
Flags: W
LayerCount: 2
Fore
SplineSet
222 1503 m 1,0,-1
 51 1526 l 1,1,-1
 51 1594 l 1,2,-1
 328 1623 l 1,3,-1
 362 1606 l 1,4,-1
 362 1021 l 1,5,6
 389 1046 389 1046 427.5 1070 c 128,-1,7
 466 1094 466 1094 512 1112.5 c 128,-1,8
 558 1131 558 1131 610.5 1142 c 128,-1,9
 663 1153 663 1153 718 1153 c 0,10,11
 803 1153 803 1153 883.5 1123.5 c 128,-1,12
 964 1094 964 1094 1026 1028.5 c 128,-1,13
 1088 963 1088 963 1126 859 c 128,-1,14
 1164 755 1164 755 1164 605 c 0,15,16
 1164 473 1164 473 1123 358 c 128,-1,17
 1082 243 1082 243 1007.5 157 c 128,-1,18
 933 71 933 71 828.5 21.5 c 128,-1,19
 724 -28 724 -28 598 -28 c 0,20,21
 527 -28 527 -28 463.5 -20 c 128,-1,22
 400 -12 400 -12 350 0 c 128,-1,23
 300 12 300 12 266 25.5 c 128,-1,24
 232 39 232 39 222 50 c 1,25,-1
 222 1503 l 1,0,-1
362 132 m 1,26,27
 370 111 370 111 394.5 96 c 128,-1,28
 419 81 419 81 454 72 c 128,-1,29
 489 63 489 63 531 58.5 c 128,-1,30
 573 54 573 54 616 54 c 0,31,32
 693 54 693 54 765.5 85.5 c 128,-1,33
 838 117 838 117 895 181 c 128,-1,34
 952 245 952 245 987 342 c 128,-1,35
 1022 439 1022 439 1024 570 c 1,36,37
 1025 703 1025 703 995 794.5 c 128,-1,38
 965 886 965 886 914 942.5 c 128,-1,39
 863 999 863 999 797 1024 c 128,-1,40
 731 1049 731 1049 661 1049 c 0,41,42
 618 1049 618 1049 575 1040.5 c 128,-1,43
 532 1032 532 1032 493 1017 c 128,-1,44
 454 1002 454 1002 420.5 982 c 128,-1,45
 387 962 387 962 362 939 c 1,46,-1
 362 132 l 1,26,27
EndSplineSet
EndChar

StartChar: c
Encoding: 99 99 65
Width: 1041
Flags: W
LayerCount: 2
Fore
SplineSet
84 538 m 0,0,1
 83 676 83 676 125.5 787 c 128,-1,2
 168 898 168 898 242 977 c 128,-1,3
 316 1056 316 1056 416 1100 c 128,-1,4
 516 1144 516 1144 631 1149 c 0,5,6
 672 1150 672 1150 714.5 1147.5 c 128,-1,7
 757 1145 757 1145 796 1138.5 c 128,-1,8
 835 1132 835 1132 866.5 1122 c 128,-1,9
 898 1112 898 1112 918 1099 c 1,10,-1
 918 887 l 1,11,-1
 846 887 l 1,12,-1
 805 1015 l 1,13,14
 770 1042 770 1042 721 1051.5 c 128,-1,15
 672 1061 672 1061 620 1061 c 0,16,17
 542 1061 542 1061 470 1031.5 c 128,-1,18
 398 1002 398 1002 342.5 944 c 128,-1,19
 287 886 287 886 254 801 c 128,-1,20
 221 716 221 716 220 605 c 0,21,22
 219 462 219 462 254 362.5 c 128,-1,23
 289 263 289 263 346 201 c 128,-1,24
 403 139 403 139 475 110.5 c 128,-1,25
 547 82 547 82 621 82 c 0,26,27
 654 82 654 82 694.5 87 c 128,-1,28
 735 92 735 92 774.5 102 c 128,-1,29
 814 112 814 112 849.5 126.5 c 128,-1,30
 885 141 885 141 909 159 c 1,31,-1
 936 88 l 1,32,33
 907 62 907 62 865 42 c 128,-1,34
 823 22 823 22 773.5 8 c 128,-1,35
 724 -6 724 -6 668.5 -13.5 c 128,-1,36
 613 -21 613 -21 556 -21 c 0,37,38
 444 -21 444 -21 356.5 21 c 128,-1,39
 269 63 269 63 209 138 c 128,-1,40
 149 213 149 213 117 315.5 c 128,-1,41
 85 418 85 418 84 538 c 0,0,1
EndSplineSet
EndChar

StartChar: d
Encoding: 100 100 66
Width: 1272
Flags: W
LayerCount: 2
Fore
SplineSet
550 -24 m 0,0,1
 462 -24 462 -24 382 9 c 128,-1,2
 302 42 302 42 241 111 c 128,-1,3
 180 180 180 180 144 287 c 128,-1,4
 108 394 108 394 108 541 c 0,5,6
 108 675 108 675 153 787.5 c 128,-1,7
 198 900 198 900 276 981 c 128,-1,8
 354 1062 354 1062 458 1107.5 c 128,-1,9
 562 1153 562 1153 681 1153 c 0,10,11
 727 1153 727 1153 762.5 1148 c 128,-1,12
 798 1143 798 1143 825.5 1136.5 c 128,-1,13
 853 1130 853 1130 873.5 1122 c 128,-1,14
 894 1114 894 1114 910 1108 c 1,15,-1
 910 1499 l 1,16,-1
 706 1523 l 1,17,-1
 706 1590 l 1,18,-1
 1013 1622 l 1,19,-1
 1050 1602 l 1,20,-1
 1050 70 l 1,21,-1
 1187 70 l 1,22,-1
 1187 10 l 1,23,24
 1171 3 1171 3 1148 -3 c 128,-1,25
 1125 -9 1125 -9 1100 -13.5 c 128,-1,26
 1075 -18 1075 -18 1050.5 -20.5 c 128,-1,27
 1026 -23 1026 -23 1006 -23 c 0,28,29
 988 -23 988 -23 971.5 -20.5 c 128,-1,30
 955 -18 955 -18 942.5 -9 c 128,-1,31
 930 0 930 0 922.5 18 c 128,-1,32
 915 36 915 36 915 66 c 2,33,-1
 915 94 l 1,34,35
 895 76 895 76 861.5 55.5 c 128,-1,36
 828 35 828 35 782.5 17.5 c 128,-1,37
 737 0 737 0 678.5 -12 c 128,-1,38
 620 -24 620 -24 550 -24 c 0,0,1
605 78 m 0,39,40
 666 78 666 78 715.5 88 c 128,-1,41
 765 98 765 98 802.5 113.5 c 128,-1,42
 840 129 840 129 866.5 147.5 c 128,-1,43
 893 166 893 166 910 182 c 1,44,-1
 910 984 l 1,45,46
 900 995 900 995 884 1009.5 c 128,-1,47
 868 1024 868 1024 840 1037 c 128,-1,48
 812 1050 812 1050 769.5 1059 c 128,-1,49
 727 1068 727 1068 665 1068 c 0,50,51
 590 1068 590 1068 516.5 1039.5 c 128,-1,52
 443 1011 443 1011 384.5 951 c 128,-1,53
 326 891 326 891 289 797.5 c 128,-1,54
 252 704 252 704 250 574 c 0,55,56
 248 449 248 449 275.5 356 c 128,-1,57
 303 263 303 263 351 201.5 c 128,-1,58
 399 140 399 140 464.5 109 c 128,-1,59
 530 78 530 78 605 78 c 0,39,40
EndSplineSet
EndChar

StartChar: e
Encoding: 101 101 67
Width: 1155
Flags: W
LayerCount: 2
Fore
SplineSet
111 556 m 0,0,1
 111 684 111 684 152 792.5 c 128,-1,2
 193 901 193 901 266.5 980.5 c 128,-1,3
 340 1060 340 1060 441 1105 c 128,-1,4
 542 1150 542 1150 662 1152 c 0,5,6
 748 1153 748 1153 818 1126.5 c 128,-1,7
 888 1100 888 1100 938 1046.5 c 128,-1,8
 988 993 988 993 1016.5 915 c 128,-1,9
 1045 837 1045 837 1047 736 c 1,10,11
 1049 686 1049 686 1045.5 647 c 128,-1,12
 1042 608 1042 608 1037 576 c 1,13,-1
 254 576 l 1,14,-1
 254 566 l 1,15,16
 252 441 252 441 283.5 349 c 128,-1,17
 315 257 315 257 371 196.5 c 128,-1,18
 427 136 427 136 502 106.5 c 128,-1,19
 577 77 577 77 662 77 c 0,20,21
 711 77 711 77 760.5 84 c 128,-1,22
 810 91 810 91 854 102 c 128,-1,23
 898 113 898 113 933.5 127 c 128,-1,24
 969 141 969 141 990 155 c 1,25,-1
 1021 88 l 1,26,27
 992 62 992 62 945.5 41 c 128,-1,28
 899 20 899 20 844 5.5 c 128,-1,29
 789 -9 789 -9 729 -16.5 c 128,-1,30
 669 -24 669 -24 612 -24 c 0,31,32
 491 -24 491 -24 397.5 17.5 c 128,-1,33
 304 59 304 59 240.5 134.5 c 128,-1,34
 177 210 177 210 144 317 c 128,-1,35
 111 424 111 424 111 556 c 0,0,1
897 664 m 1,36,37
 903 748 903 748 892.5 822.5 c 128,-1,38
 882 897 882 897 850.5 952 c 128,-1,39
 819 1007 819 1007 763.5 1039 c 128,-1,40
 708 1071 708 1071 624 1071 c 0,41,42
 555 1071 555 1071 493 1045 c 128,-1,43
 431 1019 431 1019 382 968 c 128,-1,44
 333 917 333 917 300.5 840.5 c 128,-1,45
 268 764 268 764 258 664 c 1,46,-1
 897 664 l 1,36,37
EndSplineSet
EndChar

StartChar: f
Encoding: 102 102 68
Width: 842
Flags: W
LayerCount: 2
Fore
SplineSet
124 66 m 1,0,-1
 328 83 l 1,1,-1
 328 1011 l 1,2,-1
 102 1011 l 1,3,-1
 102 1069 l 1,4,-1
 328 1112 l 1,5,-1
 328 1205 l 2,6,7
 328 1280 328 1280 345 1344 c 128,-1,8
 362 1408 362 1408 391.5 1461 c 128,-1,9
 421 1514 421 1514 460.5 1555 c 128,-1,10
 500 1596 500 1596 544 1624.5 c 128,-1,11
 588 1653 588 1653 634.5 1667.5 c 128,-1,12
 681 1682 681 1682 725 1682 c 0,13,14
 785 1682 785 1682 816.5 1677.5 c 128,-1,15
 848 1673 848 1673 868 1665 c 1,16,-1
 868 1538 l 1,17,18
 850 1549 850 1549 806.5 1558 c 128,-1,19
 763 1567 763 1567 697 1567 c 0,20,21
 655 1567 655 1567 614 1555.5 c 128,-1,22
 573 1544 573 1544 540.5 1510.5 c 128,-1,23
 508 1477 508 1477 488.5 1416.5 c 128,-1,24
 469 1356 469 1356 469 1259 c 2,25,-1
 469 1113 l 1,26,-1
 798 1113 l 1,27,-1
 798 1011 l 1,28,-1
 469 1011 l 1,29,-1
 469 83 l 1,30,-1
 711 66 l 1,31,-1
 711 0 l 1,32,-1
 124 0 l 1,33,-1
 124 66 l 1,0,-1
EndSplineSet
EndChar

StartChar: g
Encoding: 103 103 69
Width: 1211
Flags: W
LayerCount: 2
Fore
SplineSet
126 -249 m 0,0,1
 126 -194 126 -194 144 -147.5 c 128,-1,2
 162 -101 162 -101 188.5 -64.5 c 128,-1,3
 215 -28 215 -28 246 -1 c 128,-1,4
 277 26 277 26 304 41 c 1,5,6
 267 56 267 56 248 76.5 c 128,-1,7
 229 97 229 97 221 119 c 128,-1,8
 213 141 213 141 212.5 164 c 128,-1,9
 212 187 212 187 212 207 c 0,10,11
 212 226 212 226 220 253.5 c 128,-1,12
 228 281 228 281 243 311.5 c 128,-1,13
 258 342 258 342 279.5 373 c 128,-1,14
 301 404 301 404 328 431 c 1,15,16
 241 474 241 474 188.5 554.5 c 128,-1,17
 136 635 136 635 136 754 c 0,18,19
 136 856 136 856 174.5 931.5 c 128,-1,20
 213 1007 213 1007 277 1057.5 c 128,-1,21
 341 1108 341 1108 423 1133.5 c 128,-1,22
 505 1159 505 1159 592 1161 c 0,23,24
 675 1163 675 1163 748.5 1144.5 c 128,-1,25
 822 1126 822 1126 879 1084 c 1,26,27
 905 1104 905 1104 950.5 1118.5 c 128,-1,28
 996 1133 996 1133 1063 1133 c 2,29,-1
 1177 1133 l 1,30,-1
 1177 1021 l 1,31,32
 1172 1021 1172 1021 1148 1021 c 128,-1,33
 1124 1021 1124 1021 1090 1021 c 128,-1,34
 1056 1021 1056 1021 1017 1021.5 c 128,-1,35
 978 1022 978 1022 943 1022 c 1,36,37
 976 978 976 978 994.5 921 c 128,-1,38
 1013 864 1013 864 1013 791 c 0,39,40
 1013 693 1013 693 977 616.5 c 128,-1,41
 941 540 941 540 879.5 487.5 c 128,-1,42
 818 435 818 435 737.5 408 c 128,-1,43
 657 381 657 381 568 381 c 0,44,45
 516 381 516 381 468.5 388 c 128,-1,46
 421 395 421 395 378 410 c 1,47,48
 367 392 367 392 359.5 372 c 128,-1,49
 352 352 352 352 347.5 332 c 128,-1,50
 343 312 343 312 341 293.5 c 128,-1,51
 339 275 339 275 339 260 c 0,52,53
 339 219 339 219 346 193 c 128,-1,54
 353 167 353 167 374 152 c 128,-1,55
 395 137 395 137 432 131 c 128,-1,56
 469 125 469 125 529 124 c 2,57,-1
 700 123 l 2,58,59
 793 123 793 123 861 109.5 c 128,-1,60
 929 96 929 96 976.5 74 c 128,-1,61
 1024 52 1024 52 1053 22.5 c 128,-1,62
 1082 -7 1082 -7 1098 -39 c 128,-1,63
 1114 -71 1114 -71 1119.5 -103.5 c 128,-1,64
 1125 -136 1125 -136 1125 -164 c 0,65,66
 1125 -250 1125 -250 1089 -318 c 128,-1,67
 1053 -386 1053 -386 987 -433.5 c 128,-1,68
 921 -481 921 -481 827.5 -506 c 128,-1,69
 734 -531 734 -531 619 -531 c 0,70,71
 517 -531 517 -531 427 -515 c 128,-1,72
 337 -499 337 -499 270 -464.5 c 128,-1,73
 203 -430 203 -430 164.5 -377 c 128,-1,74
 126 -324 126 -324 126 -249 c 0,0,1
593 463 m 0,75,76
 658 463 658 463 710 481.5 c 128,-1,77
 762 500 762 500 798.5 537.5 c 128,-1,78
 835 575 835 575 854.5 631.5 c 128,-1,79
 874 688 874 688 874 765 c 0,80,81
 874 928 874 928 795.5 1004.5 c 128,-1,82
 717 1081 717 1081 568 1081 c 0,83,84
 509 1081 509 1081 456 1064.5 c 128,-1,85
 403 1048 403 1048 362.5 1011.5 c 128,-1,86
 322 975 322 975 298 917.5 c 128,-1,87
 274 860 274 860 274 778 c 0,88,89
 274 710 274 710 293 652.5 c 128,-1,90
 312 595 312 595 351.5 553 c 128,-1,91
 391 511 391 511 451 487 c 128,-1,92
 511 463 511 463 593 463 c 0,75,76
263 -207 m 0,93,94
 263 -258 263 -258 281 -295.5 c 128,-1,95
 299 -333 299 -333 328.5 -359.5 c 128,-1,96
 358 -386 358 -386 397 -402.5 c 128,-1,97
 436 -419 436 -419 477.5 -428.5 c 128,-1,98
 519 -438 519 -438 561 -441.5 c 128,-1,99
 603 -445 603 -445 639 -445 c 0,100,101
 718 -445 718 -445 786 -431 c 128,-1,102
 854 -417 854 -417 903.5 -387.5 c 128,-1,103
 953 -358 953 -358 981 -312 c 128,-1,104
 1009 -266 1009 -266 1009 -201 c 0,105,106
 1009 -165 1009 -165 999 -131 c 128,-1,107
 989 -97 989 -97 957.5 -69 c 128,-1,108
 926 -41 926 -41 866.5 -21.5 c 128,-1,109
 807 -2 807 -2 708 4 c 1,110,-1
 538 7 l 1,111,112
 476 7 476 7 430 12 c 128,-1,113
 384 17 384 17 349 26 c 1,114,115
 314 -9 314 -9 288.5 -66 c 128,-1,116
 263 -123 263 -123 263 -207 c 0,93,94
EndSplineSet
EndChar

StartChar: h
Encoding: 104 104 70
Width: 1386
Flags: W
LayerCount: 2
Fore
SplineSet
123 66 m 1,0,-1
 275 84 l 1,1,-1
 275 1499 l 1,2,-1
 104 1522 l 1,3,-1
 104 1590 l 1,4,-1
 377 1623 l 1,5,-1
 416 1602 l 1,6,-1
 416 1184 l 1,7,-1
 412 983 l 1,8,9
 456 1017 456 1017 510.5 1046 c 128,-1,10
 565 1075 565 1075 621.5 1096.5 c 128,-1,11
 678 1118 678 1118 731.5 1130 c 128,-1,12
 785 1142 785 1142 827 1142 c 0,13,14
 929 1142 929 1142 995 1113 c 128,-1,15
 1061 1084 1061 1084 1100 1020.5 c 128,-1,16
 1139 957 1139 957 1154 855 c 128,-1,17
 1169 753 1169 753 1168 607 c 1,18,-1
 1168 83 l 1,19,-1
 1324 66 l 1,20,-1
 1324 0 l 1,21,-1
 862 -1 l 1,22,-1
 862 66 l 1,23,-1
 1027 83 l 1,24,-1
 1027 551 l 2,25,26
 1027 681 1027 681 1017 772.5 c 128,-1,27
 1007 864 1007 864 978.5 922 c 128,-1,28
 950 980 950 980 899 1006.5 c 128,-1,29
 848 1033 848 1033 765 1033 c 0,30,31
 728 1033 728 1033 682 1025 c 128,-1,32
 636 1017 636 1017 588.5 1002 c 128,-1,33
 541 987 541 987 496 966.5 c 128,-1,34
 451 946 451 946 416 921 c 1,35,-1
 416 83 l 1,36,-1
 573 66 l 1,37,-1
 573 0 l 1,38,-1
 123 0 l 1,39,-1
 123 66 l 1,0,-1
EndSplineSet
EndChar

StartChar: i
Encoding: 105 105 71
Width: 665
Flags: W
LayerCount: 2
Fore
SplineSet
322 1437 m 0,0,1
 303 1437 303 1437 285.5 1443.5 c 128,-1,2
 268 1450 268 1450 254.5 1462.5 c 128,-1,3
 241 1475 241 1475 233 1492.5 c 128,-1,4
 225 1510 225 1510 225 1532 c 0,5,6
 225 1556 225 1556 235 1576.5 c 128,-1,7
 245 1597 245 1597 261.5 1612.5 c 128,-1,8
 278 1628 278 1628 298.5 1636.5 c 128,-1,9
 319 1645 319 1645 340 1645 c 0,10,11
 391 1645 391 1645 414.5 1617 c 128,-1,12
 438 1589 438 1589 438 1549 c 0,13,14
 438 1523 438 1523 428 1502.5 c 128,-1,15
 418 1482 418 1482 401.5 1467.5 c 128,-1,16
 385 1453 385 1453 364.5 1445 c 128,-1,17
 344 1437 344 1437 322 1437 c 0,0,1
124 66 m 1,18,-1
 288 83 l 1,19,-1
 288 975 l 1,20,-1
 144 1022 l 1,21,-1
 144 1073 l 1,22,-1
 386 1133 l 1,23,-1
 424 1114 l 1,24,-1
 424 83 l 1,25,-1
 591 66 l 1,26,-1
 591 0 l 1,27,-1
 124 0 l 1,28,-1
 124 66 l 1,18,-1
EndSplineSet
EndChar

StartChar: j
Encoding: 106 106 72
Width: 656
Flags: W
LayerCount: 2
Fore
SplineSet
333 1409 m 0,0,1
 314 1409 314 1409 296.5 1415.5 c 128,-1,2
 279 1422 279 1422 265.5 1434 c 128,-1,3
 252 1446 252 1446 244 1463.5 c 128,-1,4
 236 1481 236 1481 236 1504 c 0,5,6
 236 1528 236 1528 246 1548.5 c 128,-1,7
 256 1569 256 1569 272.5 1584 c 128,-1,8
 289 1599 289 1599 309.5 1607.5 c 128,-1,9
 330 1616 330 1616 351 1616 c 0,10,11
 402 1616 402 1616 425.5 1588 c 128,-1,12
 449 1560 449 1560 449 1520 c 0,13,14
 449 1495 449 1495 439 1474.5 c 128,-1,15
 429 1454 429 1454 412.5 1439.5 c 128,-1,16
 396 1425 396 1425 375.5 1417 c 128,-1,17
 355 1409 355 1409 333 1409 c 0,0,1
300 975 m 1,18,-1
 148 1023 l 1,19,-1
 148 1073 l 1,20,-1
 400 1132 l 1,21,-1
 438 1114 l 1,22,-1
 438 -16 l 2,23,24
 438 -133 438 -133 415.5 -225.5 c 128,-1,25
 393 -318 393 -318 349 -382.5 c 128,-1,26
 305 -447 305 -447 241 -481 c 128,-1,27
 177 -515 177 -515 94 -515 c 0,28,29
 84 -515 84 -515 67 -514 c 128,-1,30
 50 -513 50 -513 33.5 -511 c 128,-1,31
 17 -509 17 -509 3 -506 c 128,-1,32
 -11 -503 -11 -503 -15 -500 c 1,33,-1
 -15 -384 l 1,34,35
 -7 -387 -7 -387 8 -389 c 128,-1,36
 23 -391 23 -391 39.5 -392.5 c 128,-1,37
 56 -394 56 -394 71 -394.5 c 128,-1,38
 86 -395 86 -395 95 -395 c 0,39,40
 143 -395 143 -395 181.5 -381.5 c 128,-1,41
 220 -368 220 -368 246 -326 c 128,-1,42
 272 -284 272 -284 286 -207 c 128,-1,43
 300 -130 300 -130 300 -2 c 2,44,-1
 300 975 l 1,18,-1
EndSplineSet
EndChar

StartChar: k
Encoding: 107 107 73
Width: 1275
Flags: W
LayerCount: 2
Fore
SplineSet
116 66 m 1,0,-1
 278 84 l 1,1,-1
 278 1499 l 1,2,-1
 102 1522 l 1,3,-1
 102 1590 l 1,4,-1
 385 1623 l 1,5,-1
 419 1602 l 1,6,-1
 419 833 l 1,7,-1
 415 525 l 1,8,-1
 926 1037 l 1,9,-1
 775 1049 l 1,10,-1
 775 1129 l 1,11,-1
 1209 1129 l 1,12,-1
 1209 1050 l 1,13,-1
 1057 1036 l 1,14,-1
 685 679 l 1,15,-1
 1126 83 l 1,16,-1
 1273 66 l 1,17,-1
 1273 0 l 1,18,-1
 819 0 l 1,19,-1
 819 66 l 1,20,-1
 967 84 l 1,21,-1
 599 606 l 1,22,-1
 415 434 l 1,23,-1
 419 194 l 1,24,-1
 419 83 l 1,25,-1
 575 66 l 1,26,-1
 575 0 l 1,27,-1
 116 0 l 1,28,-1
 116 66 l 1,0,-1
EndSplineSet
EndChar

StartChar: l
Encoding: 108 108 74
Width: 665
Flags: W
LayerCount: 2
Fore
SplineSet
130 66 m 1,0,-1
 297 83 l 1,1,-1
 297 1499 l 1,2,-1
 133 1522 l 1,3,-1
 133 1590 l 1,4,-1
 403 1623 l 1,5,-1
 437 1602 l 1,6,-1
 437 83 l 1,7,-1
 612 66 l 1,8,-1
 612 0 l 1,9,-1
 130 0 l 1,10,-1
 130 66 l 1,0,-1
EndSplineSet
EndChar

StartChar: m
Encoding: 109 109 75
Width: 2070
Flags: W
LayerCount: 2
Fore
SplineSet
136 66 m 1,0,-1
 279 84 l 1,1,-1
 279 972 l 1,2,-1
 132 1022 l 1,3,-1
 132 1074 l 1,4,-1
 367 1133 l 1,5,-1
 403 1114 l 1,6,-1
 403 976 l 1,7,8
 438 1004 438 1004 488.5 1032.5 c 128,-1,9
 539 1061 539 1061 596.5 1084.5 c 128,-1,10
 654 1108 654 1108 713.5 1123 c 128,-1,11
 773 1138 773 1138 825 1139 c 0,12,13
 933 1141 933 1141 998 1108.5 c 128,-1,14
 1063 1076 1063 1076 1098 1000 c 1,15,16
 1132 1025 1132 1025 1181.5 1049.5 c 128,-1,17
 1231 1074 1231 1074 1287.5 1093.5 c 128,-1,18
 1344 1113 1344 1113 1401 1125 c 128,-1,19
 1458 1137 1458 1137 1507 1139 c 0,20,21
 1600 1142 1600 1142 1664 1118 c 128,-1,22
 1728 1094 1728 1094 1767.5 1037.5 c 128,-1,23
 1807 981 1807 981 1824 888.5 c 128,-1,24
 1841 796 1841 796 1841 661 c 2,25,-1
 1841 83 l 1,26,-1
 2009 66 l 1,27,-1
 2009 0 l 1,28,-1
 1556 0 l 1,29,-1
 1556 66 l 1,30,-1
 1700 83 l 1,31,-1
 1700 636 l 2,32,33
 1700 739 1700 739 1690.5 815 c 128,-1,34
 1681 891 1681 891 1653.5 940 c 128,-1,35
 1626 989 1626 989 1575 1012 c 128,-1,36
 1524 1035 1524 1035 1442 1033 c 0,37,38
 1403 1032 1403 1032 1360.5 1023.5 c 128,-1,39
 1318 1015 1318 1015 1276 1001.5 c 128,-1,40
 1234 988 1234 988 1194.5 970 c 128,-1,41
 1155 952 1155 952 1123 933 c 1,42,43
 1135 885 1135 885 1141 816 c 128,-1,44
 1147 747 1147 747 1147 671 c 2,45,-1
 1147 83 l 1,46,-1
 1306 66 l 1,47,-1
 1306 0 l 1,48,-1
 853 0 l 1,49,-1
 853 66 l 1,50,-1
 1007 84 l 1,51,-1
 1007 656 l 2,52,53
 1007 756 1007 756 998 828.5 c 128,-1,54
 989 901 989 901 962.5 947 c 128,-1,55
 936 993 936 993 887.5 1013.5 c 128,-1,56
 839 1034 839 1034 759 1032 c 0,57,58
 721 1031 721 1031 678 1021.5 c 128,-1,59
 635 1012 635 1012 590.5 995.5 c 128,-1,60
 546 979 546 979 502.5 956.5 c 128,-1,61
 459 934 459 934 421 908 c 1,62,-1
 421 533 l 1,63,-1
 422 84 l 1,64,-1
 579 66 l 1,65,-1
 579 0 l 1,66,-1
 136 0 l 1,67,-1
 136 66 l 1,0,-1
EndSplineSet
EndChar

StartChar: n
Encoding: 110 110 76
Width: 1386
Flags: W
LayerCount: 2
Fore
SplineSet
132 66 m 1,0,-1
 275 84 l 1,1,-1
 275 971 l 1,2,-1
 128 1022 l 1,3,-1
 128 1073 l 1,4,-1
 363 1133 l 1,5,-1
 399 1114 l 1,6,-1
 399 976 l 1,7,8
 433 1003 433 1003 483.5 1032 c 128,-1,9
 534 1061 534 1061 591 1084.5 c 128,-1,10
 648 1108 648 1108 707.5 1124 c 128,-1,11
 767 1140 767 1140 818 1142 c 0,12,13
 912 1145 912 1145 977.5 1120.5 c 128,-1,14
 1043 1096 1043 1096 1083 1039 c 128,-1,15
 1123 982 1123 982 1141 889.5 c 128,-1,16
 1159 797 1159 797 1159 663 c 2,17,-1
 1159 83 l 1,18,-1
 1322 66 l 1,19,-1
 1322 0 l 1,20,-1
 864 0 l 1,21,-1
 864 66 l 1,22,-1
 1018 84 l 1,23,-1
 1018 645 l 2,24,25
 1018 753 1018 753 1006 828 c 128,-1,26
 994 903 994 903 964 949.5 c 128,-1,27
 934 996 934 996 884 1015.5 c 128,-1,28
 834 1035 834 1035 758 1033 c 0,29,30
 720 1032 720 1032 676 1022 c 128,-1,31
 632 1012 632 1012 587.5 995.5 c 128,-1,32
 543 979 543 979 499 956.5 c 128,-1,33
 455 934 455 934 417 908 c 1,34,-1
 417 83 l 1,35,-1
 575 66 l 1,36,-1
 575 0 l 1,37,-1
 132 0 l 1,38,-1
 132 66 l 1,0,-1
EndSplineSet
EndChar

StartChar: o
Encoding: 111 111 77
Width: 1237
Flags: W
LayerCount: 2
Fore
SplineSet
104 582 m 0,0,1
 106 714 106 714 150 819.5 c 128,-1,2
 194 925 194 925 266.5 998.5 c 128,-1,3
 339 1072 339 1072 435 1111.5 c 128,-1,4
 531 1151 531 1151 636 1152 c 0,5,6
 768 1153 768 1153 862.5 1104.5 c 128,-1,7
 957 1056 957 1056 1017.5 975 c 128,-1,8
 1078 894 1078 894 1106 789 c 128,-1,9
 1134 684 1134 684 1133 573 c 0,10,11
 1132 442 1132 442 1091.5 332 c 128,-1,12
 1051 222 1051 222 981 143 c 128,-1,13
 911 64 911 64 816 19.5 c 128,-1,14
 721 -25 721 -25 611 -25 c 0,15,16
 473 -25 473 -25 376 25.5 c 128,-1,17
 279 76 279 76 218 160.5 c 128,-1,18
 157 245 157 245 129.5 354.5 c 128,-1,19
 102 464 102 464 104 582 c 0,0,1
618 60 m 0,20,21
 702 58 702 58 769.5 90 c 128,-1,22
 837 122 837 122 884 185.5 c 128,-1,23
 931 249 931 249 956.5 344 c 128,-1,24
 982 439 982 439 982 564 c 0,25,26
 982 664 982 664 962.5 755.5 c 128,-1,27
 943 847 943 847 900 916.5 c 128,-1,28
 857 986 857 986 789.5 1028 c 128,-1,29
 722 1070 722 1070 626 1072 c 0,30,31
 539 1073 539 1073 470.5 1040.5 c 128,-1,32
 402 1008 402 1008 354 946 c 128,-1,33
 306 884 306 884 280.5 794 c 128,-1,34
 255 704 255 704 255 591 c 0,35,36
 255 487 255 487 275.5 391.5 c 128,-1,37
 296 296 296 296 340.5 223.5 c 128,-1,38
 385 151 385 151 453.5 106.5 c 128,-1,39
 522 62 522 62 618 60 c 0,20,21
EndSplineSet
EndChar

StartChar: p
Encoding: 112 112 78
Width: 1272
Flags: W
LayerCount: 2
Fore
SplineSet
410 -260 m 1,0,-1
 410 -427 l 1,1,-1
 643 -445 l 1,2,-1
 643 -511 l 1,3,-1
 115 -511 l 1,4,-1
 115 -445 l 1,5,-1
 270 -426 l 1,6,-1
 270 971 l 1,7,-1
 125 1022 l 1,8,-1
 125 1073 l 1,9,-1
 357 1133 l 1,10,-1
 395 1113 l 1,11,-1
 395 1001 l 1,12,13
 422 1028 422 1028 461 1055 c 128,-1,14
 500 1082 500 1082 548 1103.5 c 128,-1,15
 596 1125 596 1125 652.5 1138.5 c 128,-1,16
 709 1152 709 1152 771 1152 c 0,17,18
 855 1152 855 1152 934.5 1122 c 128,-1,19
 1014 1092 1014 1092 1076 1025.5 c 128,-1,20
 1138 959 1138 959 1175.5 853 c 128,-1,21
 1213 747 1213 747 1213 595 c 0,22,23
 1213 466 1213 466 1171.5 352.5 c 128,-1,24
 1130 239 1130 239 1055 154.5 c 128,-1,25
 980 70 980 70 875.5 21 c 128,-1,26
 771 -28 771 -28 645 -28 c 0,27,28
 581 -28 581 -28 520.5 -17 c 128,-1,29
 460 -6 460 -6 406 20 c 1,30,-1
 410 -260 l 1,0,-1
410 144 m 1,31,32
 433 104 433 104 497.5 79.5 c 128,-1,33
 562 55 562 55 654 54 c 0,34,35
 733 53 733 53 807.5 83.5 c 128,-1,36
 882 114 882 114 940.5 178.5 c 128,-1,37
 999 243 999 243 1035 342.5 c 128,-1,38
 1071 442 1071 442 1072 579 c 0,39,40
 1073 703 1073 703 1044.5 791.5 c 128,-1,41
 1016 880 1016 880 966.5 937 c 128,-1,42
 917 994 917 994 851.5 1020.5 c 128,-1,43
 786 1047 786 1047 713 1047 c 0,44,45
 651 1047 651 1047 602 1035 c 128,-1,46
 553 1023 553 1023 516.5 1005 c 128,-1,47
 480 987 480 987 453.5 967 c 128,-1,48
 427 947 427 947 410 932 c 1,49,-1
 410 144 l 1,31,32
EndSplineSet
EndChar

StartChar: q
Encoding: 113 113 79
Width: 1272
Flags: W
LayerCount: 2
Fore
SplineSet
546 -28 m 0,0,1
 507 -28 507 -28 459 -19.5 c 128,-1,2
 411 -11 411 -11 362.5 12 c 128,-1,3
 314 35 314 35 267.5 75 c 128,-1,4
 221 115 221 115 185.5 178.5 c 128,-1,5
 150 242 150 242 128 331.5 c 128,-1,6
 106 421 106 421 106 542 c 0,7,8
 106 671 106 671 149.5 782.5 c 128,-1,9
 193 894 193 894 270.5 976.5 c 128,-1,10
 348 1059 348 1059 455 1106 c 128,-1,11
 562 1153 562 1153 689 1153 c 0,12,13
 756 1153 756 1153 819 1140 c 128,-1,14
 882 1127 882 1127 928 1103 c 1,15,-1
 1011 1136 l 1,16,-1
 1048 1121 l 1,17,-1
 1048 -420 l 1,18,-1
 1195 -438 l 1,19,-1
 1195 -511 l 1,20,-1
 681 -511 l 1,21,-1
 681 -438 l 1,22,-1
 907 -420 l 1,23,-1
 907 -47 l 1,24,-1
 911 102 l 1,25,26
 891 85 891 85 859.5 62.5 c 128,-1,27
 828 40 828 40 782.5 20 c 128,-1,28
 737 0 737 0 678 -14 c 128,-1,29
 619 -28 619 -28 546 -28 c 0,0,1
596 76 m 0,30,31
 659 76 659 76 709 86.5 c 128,-1,32
 759 97 759 97 797.5 113.5 c 128,-1,33
 836 130 836 130 863 148.5 c 128,-1,34
 890 167 890 167 907 184 c 1,35,-1
 907 988 l 1,36,37
 883 1014 883 1014 854 1030.5 c 128,-1,38
 825 1047 825 1047 794 1056 c 128,-1,39
 763 1065 763 1065 730 1068.5 c 128,-1,40
 697 1072 697 1072 664 1072 c 0,41,42
 587 1072 587 1072 513 1042 c 128,-1,43
 439 1012 439 1012 380 949.5 c 128,-1,44
 321 887 321 887 284 791.5 c 128,-1,45
 247 696 247 696 245 565 c 0,46,47
 243 445 243 445 268 354 c 128,-1,48
 293 263 293 263 339 201 c 128,-1,49
 385 139 385 139 450.5 107.5 c 128,-1,50
 516 76 516 76 596 76 c 0,30,31
EndSplineSet
EndChar

StartChar: r
Encoding: 114 114 80
Width: 905
Flags: W
LayerCount: 2
Fore
SplineSet
90 66 m 1,0,-1
 275 85 l 1,1,-1
 275 971 l 1,2,-1
 128 1022 l 1,3,-1
 128 1073 l 1,4,-1
 362 1133 l 1,5,-1
 399 1114 l 1,6,-1
 399 975 l 1,7,8
 421 1000 421 1000 463.5 1029 c 128,-1,9
 506 1058 506 1058 558.5 1082.5 c 128,-1,10
 611 1107 611 1107 668 1123 c 128,-1,11
 725 1139 725 1139 776 1139 c 0,12,13
 809 1139 809 1139 838.5 1137.5 c 128,-1,14
 868 1136 868 1136 879 1132 c 1,15,-1
 879 982 l 1,16,17
 852 992 852 992 815 1000.5 c 128,-1,18
 778 1009 778 1009 717 1008 c 0,19,20
 668 1008 668 1008 623.5 998.5 c 128,-1,21
 579 989 579 989 541 975 c 128,-1,22
 503 961 503 961 471.5 945 c 128,-1,23
 440 929 440 929 417 914 c 1,24,-1
 417 85 l 1,25,-1
 713 66 l 1,26,-1
 713 0 l 1,27,-1
 90 0 l 1,28,-1
 90 66 l 1,0,-1
EndSplineSet
EndChar

StartChar: s
Encoding: 115 115 81
Width: 1032
Flags: W
LayerCount: 2
Fore
SplineSet
170 278 m 1,0,-1
 237 278 l 1,1,-1
 269 142 l 1,2,3
 320 99 320 99 380 80 c 128,-1,4
 440 61 440 61 510 58 c 0,5,6
 571 56 571 56 624.5 67.5 c 128,-1,7
 678 79 678 79 717.5 105 c 128,-1,8
 757 131 757 131 779.5 172.5 c 128,-1,9
 802 214 802 214 802 271 c 0,10,11
 802 325 802 325 774.5 362 c 128,-1,12
 747 399 747 399 702.5 427.5 c 128,-1,13
 658 456 658 456 602.5 479 c 128,-1,14
 547 502 547 502 491 526 c 0,15,16
 431 552 431 552 375 582 c 128,-1,17
 319 612 319 612 275.5 650.5 c 128,-1,18
 232 689 232 689 206 738.5 c 128,-1,19
 180 788 180 788 181 853 c 0,20,21
 182 929 182 929 218.5 985 c 128,-1,22
 255 1041 255 1041 311 1077.5 c 128,-1,23
 367 1114 367 1114 435.5 1132 c 128,-1,24
 504 1150 504 1150 571 1152 c 0,25,26
 620 1153 620 1153 667.5 1147 c 128,-1,27
 715 1141 715 1141 756.5 1130.5 c 128,-1,28
 798 1120 798 1120 831 1106.5 c 128,-1,29
 864 1093 864 1093 884 1079 c 1,30,-1
 884 874 l 1,31,-1
 820 874 l 1,32,-1
 786 1005 l 1,33,34
 756 1035 756 1035 702.5 1055 c 128,-1,35
 649 1075 649 1075 577 1076 c 0,36,37
 515 1076 515 1076 467 1061 c 128,-1,38
 419 1046 419 1046 386 1019.5 c 128,-1,39
 353 993 353 993 335.5 956 c 128,-1,40
 318 919 318 919 317 876 c 0,41,42
 316 828 316 828 338.5 793 c 128,-1,43
 361 758 361 758 399 730 c 128,-1,44
 437 702 437 702 488.5 678 c 128,-1,45
 540 654 540 654 597 628 c 0,46,47
 652 604 652 604 712.5 577.5 c 128,-1,48
 773 551 773 551 822.5 514 c 128,-1,49
 872 477 872 477 904.5 425.5 c 128,-1,50
 937 374 937 374 937 300 c 0,51,52
 937 220 937 220 905 159.5 c 128,-1,53
 873 99 873 99 816 58.5 c 128,-1,54
 759 18 759 18 681.5 -3 c 128,-1,55
 604 -24 604 -24 513 -24 c 256,56,57
 422 -24 422 -24 334 -1.5 c 128,-1,58
 246 21 246 21 170 61 c 1,59,-1
 170 278 l 1,0,-1
EndSplineSet
EndChar

StartChar: t
Encoding: 116 116 82
Width: 858
Flags: W
LayerCount: 2
Fore
SplineSet
288 1021 m 1,0,-1
 128 1021 l 1,1,-1
 128 1080 l 1,2,3
 170 1087 170 1087 199 1091.5 c 128,-1,4
 228 1096 228 1096 247.5 1102 c 128,-1,5
 267 1108 267 1108 280 1118 c 128,-1,6
 293 1128 293 1128 304 1147 c 1,7,8
 310 1160 310 1160 317.5 1191.5 c 128,-1,9
 325 1223 325 1223 332.5 1259 c 128,-1,10
 340 1295 340 1295 345.5 1330 c 128,-1,11
 351 1365 351 1365 352 1386 c 1,12,-1
 427 1386 l 1,13,-1
 427 1116 l 1,14,-1
 805 1116 l 1,15,-1
 805 1021 l 1,16,-1
 427 1021 l 1,17,-1
 427 411 l 2,18,19
 427 312 427 312 431.5 247.5 c 128,-1,20
 436 183 436 183 450 145.5 c 128,-1,21
 464 108 464 108 490 93.5 c 128,-1,22
 516 79 516 79 560 79 c 0,23,24
 593 79 593 79 626.5 85.5 c 128,-1,25
 660 92 660 92 689.5 101.5 c 128,-1,26
 719 111 719 111 743 122 c 128,-1,27
 767 133 767 133 780 143 c 1,28,-1
 805 73 l 1,29,30
 782 48 782 48 746 30 c 128,-1,31
 710 12 710 12 669 0 c 128,-1,32
 628 -12 628 -12 585.5 -18 c 128,-1,33
 543 -24 543 -24 509 -24 c 0,34,35
 455 -24 455 -24 413.5 -9 c 128,-1,36
 372 6 372 6 344 39.5 c 128,-1,37
 316 73 316 73 302 126 c 128,-1,38
 288 179 288 179 288 255 c 2,39,-1
 288 1021 l 1,0,-1
EndSplineSet
EndChar

StartChar: u
Encoding: 117 117 83
Width: 1271
Flags: W
LayerCount: 2
Fore
SplineSet
208 1020 m 1,0,-1
 105 1039 l 1,1,-1
 105 1098 l 1,2,-1
 317 1139 l 1,3,-1
 347 1121 l 1,4,-1
 347 432 l 2,5,6
 347 340 347 340 356 273.5 c 128,-1,7
 365 207 365 207 391 164 c 128,-1,8
 417 121 417 121 464 101 c 128,-1,9
 511 81 511 81 587 81 c 0,10,11
 647 81 647 81 701.5 97.5 c 128,-1,12
 756 114 756 114 800.5 136 c 128,-1,13
 845 158 845 158 877.5 181 c 128,-1,14
 910 204 910 204 925 218 c 1,15,-1
 925 1010 l 1,16,-1
 800 1031 l 1,17,-1
 800 1094 l 1,18,-1
 1035 1138 l 1,19,-1
 1064 1121 l 1,20,-1
 1064 70 l 1,21,-1
 1191 70 l 1,22,-1
 1191 10 l 1,23,24
 1177 4 1177 4 1156.5 -2 c 128,-1,25
 1136 -8 1136 -8 1114 -12.5 c 128,-1,26
 1092 -17 1092 -17 1070 -20 c 128,-1,27
 1048 -23 1048 -23 1030 -23 c 0,28,29
 985 -23 985 -23 961.5 -5 c 128,-1,30
 938 13 938 13 938 52 c 2,31,-1
 938 142 l 1,32,33
 839 60 839 60 737.5 19.5 c 128,-1,34
 636 -21 636 -21 532 -21 c 0,35,36
 453 -21 453 -21 399 -4.5 c 128,-1,37
 345 12 345 12 309 42.5 c 128,-1,38
 273 73 273 73 253 116 c 128,-1,39
 233 159 233 159 223 212.5 c 128,-1,40
 213 266 213 266 210.5 329 c 128,-1,41
 208 392 208 392 208 461 c 2,42,-1
 208 1020 l 1,0,-1
EndSplineSet
EndChar

StartChar: v
Encoding: 118 118 84
Width: 1240
Flags: W
LayerCount: 2
Fore
SplineSet
140 1023 m 1,0,-1
 27 1040 l 1,1,-1
 27 1119 l 1,2,-1
 448 1119 l 1,3,-1
 448 1040 l 1,4,-1
 300 1022 l 1,5,-1
 551 391 l 1,6,-1
 642 107 l 1,7,-1
 739 383 l 1,8,-1
 985 1023 l 1,9,-1
 834 1039 l 1,10,-1
 834 1119 l 1,11,-1
 1218 1119 l 1,12,-1
 1218 1040 l 1,13,-1
 1100 1022 l 1,14,-1
 678 -24 l 1,15,-1
 579 -24 l 1,16,-1
 140 1023 l 1,0,-1
EndSplineSet
EndChar

StartChar: w
Encoding: 119 119 85
Width: 1753
Flags: W
LayerCount: 2
Fore
SplineSet
148 1024 m 1,0,-1
 31 1039 l 1,1,-1
 31 1119 l 1,2,-1
 453 1119 l 1,3,-1
 453 1039 l 1,4,-1
 292 1021 l 1,5,-1
 512 272 l 1,6,-1
 544 110 l 1,7,-1
 591 277 l 1,8,-1
 843 1119 l 1,9,-1
 958 1119 l 1,10,-1
 1204 269 l 1,11,-1
 1243 104 l 1,12,-1
 1292 273 l 1,13,-1
 1496 1023 l 1,14,-1
 1349 1039 l 1,15,-1
 1349 1119 l 1,16,-1
 1729 1119 l 1,17,-1
 1729 1040 l 1,18,-1
 1612 1022 l 1,19,-1
 1297 -25 l 1,20,-1
 1167 -25 l 1,21,-1
 907 825 l 1,22,-1
 882 953 l 1,23,-1
 856 825 l 1,24,-1
 599 -25 l 1,25,-1
 480 -25 l 1,26,-1
 148 1024 l 1,0,-1
EndSplineSet
EndChar

StartChar: x
Encoding: 120 120 86
Width: 1253
Flags: W
LayerCount: 2
Fore
SplineSet
64 66 m 1,0,-1
 215 84 l 1,1,-1
 561 547 l 1,2,-1
 207 1024 l 1,3,-1
 49 1039 l 1,4,-1
 49 1119 l 1,5,-1
 530 1119 l 1,6,-1
 530 1039 l 1,7,-1
 372 1025 l 1,8,-1
 543 769 l 1,9,-1
 649 612 l 1,10,-1
 701 696 l 1,11,-1
 930 1026 l 1,12,-1
 784 1039 l 1,13,-1
 784 1119 l 1,14,-1
 1181 1119 l 1,15,-1
 1181 1039 l 1,16,-1
 1048 1024 l 1,17,-1
 699 558 l 1,18,-1
 1048 83 l 1,19,-1
 1206 67 l 1,20,-1
 1206 0 l 1,21,-1
 729 0 l 1,22,-1
 729 66 l 1,23,-1
 880 82 l 1,24,-1
 693 363 l 1,25,-1
 607 485 l 1,26,-1
 561 408 l 1,27,-1
 339 83 l 1,28,-1
 522 67 l 1,29,-1
 522 0 l 1,30,-1
 64 0 l 1,31,-1
 64 66 l 1,0,-1
EndSplineSet
EndChar

StartChar: y
Encoding: 121 121 87
Width: 1209
Flags: W
LayerCount: 2
Fore
SplineSet
164 -382 m 1,0,1
 181 -387 181 -387 203.5 -390.5 c 128,-1,2
 226 -394 226 -394 244 -395 c 0,3,4
 280 -396 280 -396 325 -381 c 128,-1,5
 370 -366 370 -366 416.5 -324.5 c 128,-1,6
 463 -283 463 -283 508 -211.5 c 128,-1,7
 553 -140 553 -140 590 -27 c 1,8,-1
 564 -27 l 1,9,-1
 141 1024 l 1,10,-1
 16 1039 l 1,11,-1
 16 1119 l 1,12,-1
 465 1119 l 1,13,-1
 465 1039 l 1,14,-1
 299 1023 l 1,15,-1
 555 322 l 1,16,-1
 647 64 l 1,17,-1
 717 304 l 1,18,-1
 936 1025 l 1,19,-1
 771 1039 l 1,20,-1
 771 1119 l 1,21,-1
 1184 1119 l 1,22,-1
 1184 1039 l 1,23,-1
 1059 1025 l 1,24,25
 994 829 994 829 944 680 c 128,-1,26
 894 531 894 531 857 420.5 c 128,-1,27
 820 310 820 310 794 232.5 c 128,-1,28
 768 155 768 155 750 103 c 128,-1,29
 732 51 732 51 721 19.5 c 128,-1,30
 710 -12 710 -12 702 -32 c 0,31,32
 656 -149 656 -149 610 -239 c 128,-1,33
 564 -329 564 -329 510 -390.5 c 128,-1,34
 456 -452 456 -452 391 -483.5 c 128,-1,35
 326 -515 326 -515 243 -515 c 0,36,37
 233 -515 233 -515 221 -514 c 128,-1,38
 209 -513 209 -513 197.5 -511 c 128,-1,39
 186 -509 186 -509 177 -506 c 128,-1,40
 168 -503 168 -503 164 -500 c 1,41,-1
 164 -382 l 1,42,-1
 164 -382 l 1,0,1
EndSplineSet
EndChar

StartChar: z
Encoding: 122 122 88
Width: 1098
Flags: W
LayerCount: 2
Fore
SplineSet
183 172 m 1,0,-1
 751 944 l 1,1,-1
 840 1049 l 1,2,-1
 285 1033 l 1,3,-1
 238 842 l 1,4,-1
 167 842 l 1,5,-1
 170 1119 l 1,6,-1
 986 1119 l 1,7,-1
 1008 1073 l 1,8,-1
 925 949 l 1,9,-1
 374 201 l 1,10,-1
 274 76 l 1,11,-1
 878 94 l 1,12,-1
 935 275 l 1,13,-1
 1011 274 l 1,14,-1
 994 0 l 1,15,-1
 134 0 l 1,16,-1
 107 51 l 1,17,-1
 183 172 l 1,0,-1
EndSplineSet
EndChar

StartChar: braceleft
Encoding: 123 123 89
Width: 1066
Flags: W
LayerCount: 2
Fore
SplineSet
402 572 m 2,0,1
 402 588 402 588 393.5 600 c 128,-1,2
 385 612 385 612 371 622 c 0,3,4
 349 637 349 637 317.5 652 c 128,-1,5
 286 667 286 667 250.5 680.5 c 128,-1,6
 215 694 215 694 178.5 705.5 c 128,-1,7
 142 717 142 717 111 725 c 1,8,-1
 111 828 l 1,9,10
 142 835 142 835 178 846 c 128,-1,11
 214 857 214 857 249.5 869 c 128,-1,12
 285 881 285 881 316.5 894.5 c 128,-1,13
 348 908 348 908 371 922 c 1,14,15
 385 932 385 932 393.5 943 c 128,-1,16
 402 954 402 954 402 965 c 2,17,-1
 402 1486 l 2,18,19
 402 1554 402 1554 408 1596.5 c 128,-1,20
 414 1639 414 1639 431.5 1663 c 128,-1,21
 449 1687 449 1687 481 1695.5 c 128,-1,22
 513 1704 513 1704 565 1704 c 0,23,24
 606 1704 606 1704 639 1701 c 128,-1,25
 672 1698 672 1698 701.5 1693.5 c 128,-1,26
 731 1689 731 1689 758.5 1683.5 c 128,-1,27
 786 1678 786 1678 816 1672 c 1,28,-1
 815 1607 l 1,29,-1
 524 1607 l 1,30,-1
 524 971 l 2,31,32
 524 936 524 936 508.5 915 c 128,-1,33
 493 894 493 894 467 876 c 0,34,35
 446 861 446 861 419.5 848 c 128,-1,36
 393 835 393 835 364 823 c 128,-1,37
 335 811 335 811 305.5 799.5 c 128,-1,38
 276 788 276 788 248 776 c 1,39,40
 303 754 303 754 363 728 c 128,-1,41
 423 702 423 702 466 671 c 0,42,43
 492 652 492 652 508 629.5 c 128,-1,44
 524 607 524 607 524 572 c 2,45,-1
 524 -59 l 1,46,-1
 815 -59 l 1,47,-1
 816 -125 l 1,48,49
 784 -132 784 -132 754 -138 c 128,-1,50
 724 -144 724 -144 692.5 -149 c 128,-1,51
 661 -154 661 -154 626.5 -157 c 128,-1,52
 592 -160 592 -160 551 -160 c 0,53,54
 504 -160 504 -160 475 -151.5 c 128,-1,55
 446 -143 446 -143 429.5 -119 c 128,-1,56
 413 -95 413 -95 407.5 -52 c 128,-1,57
 402 -9 402 -9 402 60 c 2,58,-1
 402 572 l 2,0,1
EndSplineSet
EndChar

StartChar: bar
Encoding: 124 124 90
Width: 873
Flags: W
LayerCount: 2
Fore
SplineSet
358 1780 m 1,0,-1
 488 1780 l 1,1,-1
 488 -186 l 1,2,-1
 358 -186 l 1,3,-1
 358 1780 l 1,0,-1
EndSplineSet
EndChar

StartChar: braceright
Encoding: 125 125 91
Width: 1066
Flags: W
LayerCount: 2
Fore
SplineSet
543 -59 m 1,0,-1
 543 577 l 2,1,2
 543 612 543 612 558.5 633 c 128,-1,3
 574 654 574 654 600 672 c 0,4,5
 621 687 621 687 647.5 700 c 128,-1,6
 674 713 674 713 702.5 725 c 128,-1,7
 731 737 731 737 761 748.5 c 128,-1,8
 791 760 791 760 818 772 c 1,9,10
 763 793 763 793 703.5 819.5 c 128,-1,11
 644 846 644 846 601 877 c 0,12,13
 575 896 575 896 559 918.5 c 128,-1,14
 543 941 543 941 543 976 c 2,15,-1
 543 1607 l 1,16,-1
 252 1607 l 1,17,-1
 251 1673 l 1,18,19
 283 1680 283 1680 313 1686 c 128,-1,20
 343 1692 343 1692 374.5 1696.5 c 128,-1,21
 406 1701 406 1701 440.5 1704 c 128,-1,22
 475 1707 475 1707 516 1707 c 0,23,24
 563 1707 563 1707 592 1698.5 c 128,-1,25
 621 1690 621 1690 637.5 1666 c 128,-1,26
 654 1642 654 1642 659.5 1599.5 c 128,-1,27
 665 1557 665 1557 665 1488 c 2,28,-1
 665 976 l 2,29,30
 665 960 665 960 673.5 948 c 128,-1,31
 682 936 682 936 696 926 c 0,32,33
 718 911 718 911 749.5 896 c 128,-1,34
 781 881 781 881 816.5 867.5 c 128,-1,35
 852 854 852 854 888 842 c 128,-1,36
 924 830 924 830 956 823 c 1,37,-1
 956 720 l 1,38,39
 925 712 925 712 889 701.5 c 128,-1,40
 853 691 853 691 817.5 678.5 c 128,-1,41
 782 666 782 666 750 652 c 128,-1,42
 718 638 718 638 696 625 c 0,43,44
 665 606 665 606 665 583 c 2,45,-1
 665 62 l 2,46,47
 665 -6 665 -6 659 -48.5 c 128,-1,48
 653 -91 653 -91 635.5 -115 c 128,-1,49
 618 -139 618 -139 586 -147.5 c 128,-1,50
 554 -156 554 -156 502 -156 c 0,51,52
 461 -156 461 -156 428 -153.5 c 128,-1,53
 395 -151 395 -151 365.5 -146.5 c 128,-1,54
 336 -142 336 -142 308.5 -136 c 128,-1,55
 281 -130 281 -130 251 -124 c 1,56,-1
 252 -59 l 1,57,-1
 543 -59 l 1,0,-1
EndSplineSet
EndChar

StartChar: asciitilde
Encoding: 126 126 92
Width: 1257
Flags: W
LayerCount: 2
Fore
SplineSet
159 859 m 1,0,1
 182 895 182 895 215.5 927.5 c 128,-1,2
 249 960 249 960 290 985 c 128,-1,3
 331 1010 331 1010 378 1024.5 c 128,-1,4
 425 1039 425 1039 475 1039 c 0,5,6
 513 1039 513 1039 544.5 1026 c 128,-1,7
 576 1013 576 1013 603 994 c 128,-1,8
 630 975 630 975 654.5 952 c 128,-1,9
 679 929 679 929 703 910 c 128,-1,10
 727 891 727 891 753.5 878 c 128,-1,11
 780 865 780 865 811 865 c 0,12,13
 850 865 850 865 883 875.5 c 128,-1,14
 916 886 916 886 944.5 903.5 c 128,-1,15
 973 921 973 921 997 942.5 c 128,-1,16
 1021 964 1021 964 1041 985 c 1,17,-1
 1089 924 l 1,18,19
 1065 888 1065 888 1031.5 855 c 128,-1,20
 998 822 998 822 957.5 797.5 c 128,-1,21
 917 773 917 773 870.5 758.5 c 128,-1,22
 824 744 824 744 774 744 c 0,23,24
 735 744 735 744 704 757 c 128,-1,25
 673 770 673 770 646 789 c 128,-1,26
 619 808 619 808 595 831 c 128,-1,27
 571 854 571 854 546.5 873 c 128,-1,28
 522 892 522 892 495.5 905 c 128,-1,29
 469 918 469 918 438 918 c 0,30,31
 399 918 399 918 365.5 907.5 c 128,-1,32
 332 897 332 897 303.5 879.5 c 128,-1,33
 275 862 275 862 251 840.5 c 128,-1,34
 227 819 227 819 207 798 c 1,35,-1
 159 859 l 1,0,1
EndSplineSet
EndChar

StartChar: exclamdown
Encoding: 161 161 93
Width: 703
Flags: W
LayerCount: 2
Fore
SplineSet
356 1234 m 0,0,1
 337 1234 337 1234 319.5 1240.5 c 128,-1,2
 302 1247 302 1247 288.5 1259 c 128,-1,3
 275 1271 275 1271 267 1288.5 c 128,-1,4
 259 1306 259 1306 259 1327 c 0,5,6
 259 1350 259 1350 269 1370 c 128,-1,7
 279 1390 279 1390 295.5 1405 c 128,-1,8
 312 1420 312 1420 332.5 1428.5 c 128,-1,9
 353 1437 353 1437 374 1437 c 0,10,11
 399 1437 399 1437 417.5 1429.5 c 128,-1,12
 436 1422 436 1422 448 1409 c 128,-1,13
 460 1396 460 1396 465.5 1379 c 128,-1,14
 471 1362 471 1362 471 1343 c 0,15,16
 471 1319 471 1319 461 1298.5 c 128,-1,17
 451 1278 451 1278 435 1264 c 128,-1,18
 419 1250 419 1250 398.5 1242 c 128,-1,19
 378 1234 378 1234 356 1234 c 0,0,1
311 996 m 1,20,-1
 401 996 l 1,21,-1
 444 -359 l 1,22,-1
 259 -359 l 1,23,-1
 311 996 l 1,20,-1
EndSplineSet
EndChar

StartChar: sterling
Encoding: 163 163 94
Width: 1428
Flags: W
LayerCount: 2
Fore
SplineSet
87 41 m 0,0,1
 87 65 87 65 105.5 88 c 128,-1,2
 124 111 124 111 155.5 128.5 c 128,-1,3
 187 146 187 146 230 155.5 c 128,-1,4
 273 165 273 165 323 162 c 1,5,6
 345 185 345 185 365 224.5 c 128,-1,7
 385 264 385 264 400.5 312 c 128,-1,8
 416 360 416 360 425.5 412.5 c 128,-1,9
 435 465 435 465 435 515 c 2,10,-1
 435 767 l 1,11,-1
 234 767 l 1,12,-1
 234 868 l 1,13,-1
 435 868 l 1,14,-1
 435 973 l 2,15,16
 435 1100 435 1100 468.5 1205 c 128,-1,17
 502 1310 502 1310 564.5 1385 c 128,-1,18
 627 1460 627 1460 716.5 1502 c 128,-1,19
 806 1544 806 1544 918 1547 c 0,20,21
 969 1548 969 1548 1009 1541.5 c 128,-1,22
 1049 1535 1049 1535 1081 1523.5 c 128,-1,23
 1113 1512 1113 1512 1137 1496.5 c 128,-1,24
 1161 1481 1161 1481 1180 1465 c 1,25,-1
 1108 1329 l 1,26,27
 1104 1336 1104 1336 1084.5 1357 c 128,-1,28
 1065 1378 1065 1378 1031 1399.5 c 128,-1,29
 997 1421 997 1421 950.5 1437.5 c 128,-1,30
 904 1454 904 1454 846 1453 c 0,31,32
 796 1452 796 1452 748 1431.5 c 128,-1,33
 700 1411 700 1411 662 1357.5 c 128,-1,34
 624 1304 624 1304 600.5 1212 c 128,-1,35
 577 1120 577 1120 577 975 c 2,36,-1
 577 868 l 1,37,-1
 928 868 l 1,38,-1
 928 767 l 1,39,-1
 578 767 l 1,40,-1
 578 682 l 2,41,42
 578 573 578 573 565 490 c 128,-1,43
 552 407 552 407 529.5 343 c 128,-1,44
 507 279 507 279 478 230 c 128,-1,45
 449 181 449 181 416 141 c 1,46,47
 450 140 450 140 497.5 129 c 128,-1,48
 545 118 545 118 597.5 103.5 c 128,-1,49
 650 89 650 89 704.5 75 c 128,-1,50
 759 61 759 61 806 54 c 0,51,52
 887 42 887 42 948.5 47 c 128,-1,53
 1010 52 1010 52 1054 68.5 c 128,-1,54
 1098 85 1098 85 1127 111.5 c 128,-1,55
 1156 138 1156 138 1173 169.5 c 128,-1,56
 1190 201 1190 201 1197 235.5 c 128,-1,57
 1204 270 1204 270 1204 303 c 0,58,59
 1204 357 1204 357 1180.5 405 c 128,-1,60
 1157 453 1157 453 1110 484 c 1,61,-1
 1176 610 l 1,62,63
 1245 581 1245 581 1286.5 518.5 c 128,-1,64
 1328 456 1328 456 1339 372 c 0,65,66
 1344 336 1344 336 1341.5 287.5 c 128,-1,67
 1339 239 1339 239 1321 189 c 128,-1,68
 1303 139 1303 139 1265.5 93 c 128,-1,69
 1228 47 1228 47 1164.5 14.5 c 128,-1,70
 1101 -18 1101 -18 1007 -32 c 128,-1,71
 913 -46 913 -46 781 -30 c 0,72,73
 698 -20 698 -20 629 -1 c 128,-1,74
 560 18 560 18 505 35.5 c 128,-1,75
 450 53 450 53 408.5 64.5 c 128,-1,76
 367 76 367 76 337 71 c 1,77,78
 306 29 306 29 261.5 -1 c 128,-1,79
 217 -31 217 -31 169 -31 c 0,80,81
 158 -31 158 -31 143.5 -28.5 c 128,-1,82
 129 -26 129 -26 116.5 -18.5 c 128,-1,83
 104 -11 104 -11 95.5 3.5 c 128,-1,84
 87 18 87 18 87 41 c 0,0,1
EndSplineSet
EndChar

StartChar: currency
Encoding: 164 164 95
Width: 1427
Flags: W
LayerCount: 2
Fore
SplineSet
408 449 m 1,0,1
 367 499 367 499 344.5 560 c 128,-1,2
 322 621 322 621 322 690 c 0,3,4
 322 757 322 757 343.5 816.5 c 128,-1,5
 365 876 365 876 404 925 c 1,6,-1
 227 1102 l 1,7,-1
 293 1168 l 1,8,-1
 470 990 l 1,9,10
 518 1027 518 1027 577 1048 c 128,-1,11
 636 1069 636 1069 702 1069 c 0,12,13
 772 1069 772 1069 834.5 1045 c 128,-1,14
 897 1021 897 1021 947 979 c 1,15,-1
 1125 1156 l 1,16,-1
 1191 1090 l 1,17,-1
 1011 911 l 1,18,19
 1044 864 1044 864 1063 808 c 128,-1,20
 1082 752 1082 752 1082 690 c 0,21,22
 1082 624 1082 624 1061 564.5 c 128,-1,23
 1040 505 1040 505 1002 457 c 1,24,-1
 1179 280 l 1,25,-1
 1113 215 l 1,26,-1
 936 391 l 1,27,28
 887 353 887 353 827.5 332 c 128,-1,29
 768 311 768 311 702 311 c 0,30,31
 638 311 638 311 581 330.5 c 128,-1,32
 524 350 524 350 476 385 c 1,33,-1
 299 208 l 1,34,-1
 233 274 l 1,35,-1
 408 449 l 1,0,1
702 407 m 256,36,37
 758 407 758 407 807.5 429.5 c 128,-1,38
 857 452 857 452 893.5 490 c 128,-1,39
 930 528 930 528 951.5 579.5 c 128,-1,40
 973 631 973 631 973 690 c 0,41,42
 973 748 973 748 951.5 800 c 128,-1,43
 930 852 930 852 893.5 890 c 128,-1,44
 857 928 857 928 807.5 950.5 c 128,-1,45
 758 973 758 973 702 973 c 256,46,47
 646 973 646 973 596.5 950.5 c 128,-1,48
 547 928 547 928 510 890 c 128,-1,49
 473 852 473 852 452 800 c 128,-1,50
 431 748 431 748 431 690 c 0,51,52
 431 631 431 631 452 579.5 c 128,-1,53
 473 528 473 528 510 490 c 128,-1,54
 547 452 547 452 596.5 429.5 c 128,-1,55
 646 407 646 407 702 407 c 256,36,37
EndSplineSet
EndChar

StartChar: dieresis
Encoding: 168 168 96
Width: 982
Flags: W
LayerCount: 2
Fore
SplineSet
663 1426 m 0,0,1
 644 1426 644 1426 626.5 1432.5 c 128,-1,2
 609 1439 609 1439 595.5 1451 c 128,-1,3
 582 1463 582 1463 574 1480.5 c 128,-1,4
 566 1498 566 1498 566 1519 c 0,5,6
 566 1542 566 1542 576 1562 c 128,-1,7
 586 1582 586 1582 602.5 1597 c 128,-1,8
 619 1612 619 1612 639.5 1620.5 c 128,-1,9
 660 1629 660 1629 681 1629 c 0,10,11
 732 1629 732 1629 755 1601 c 128,-1,12
 778 1573 778 1573 778 1535 c 0,13,14
 778 1511 778 1511 768 1491 c 128,-1,15
 758 1471 758 1471 742 1456.5 c 128,-1,16
 726 1442 726 1442 705 1434 c 128,-1,17
 684 1426 684 1426 663 1426 c 0,0,1
205 1426 m 0,18,19
 186 1426 186 1426 168.5 1432.5 c 128,-1,20
 151 1439 151 1439 137.5 1451 c 128,-1,21
 124 1463 124 1463 116 1480.5 c 128,-1,22
 108 1498 108 1498 108 1519 c 0,23,24
 108 1542 108 1542 118 1562 c 128,-1,25
 128 1582 128 1582 144.5 1597 c 128,-1,26
 161 1612 161 1612 181.5 1620.5 c 128,-1,27
 202 1629 202 1629 223 1629 c 0,28,29
 274 1629 274 1629 297 1601 c 128,-1,30
 320 1573 320 1573 320 1535 c 0,31,32
 320 1511 320 1511 310 1491 c 128,-1,33
 300 1471 300 1471 284 1456.5 c 128,-1,34
 268 1442 268 1442 247 1434 c 128,-1,35
 226 1426 226 1426 205 1426 c 0,18,19
EndSplineSet
EndChar

StartChar: guillemotleft
Encoding: 171 171 97
Width: 1896
Flags: W
LayerCount: 2
Fore
SplineSet
958 700 m 1,0,-1
 1606 1075 l 1,1,-1
 1645 1011 l 1,2,-1
 1092 623 l 1,3,-1
 1645 232 l 1,4,-1
 1606 163 l 1,5,-1
 958 526 l 1,6,-1
 958 700 l 1,0,-1
250 700 m 1,7,-1
 898 1075 l 1,8,-1
 937 1011 l 1,9,-1
 384 623 l 1,10,-1
 938 231 l 1,11,-1
 898 163 l 1,12,-1
 250 526 l 1,13,-1
 250 700 l 1,7,-1
EndSplineSet
EndChar

StartChar: acute
Encoding: 180 180 98
Width: 828
Flags: W
LayerCount: 2
Fore
SplineSet
372 1389 m 1,0,-1
 705 1796 l 1,1,-1
 809 1690 l 1,2,3
 786 1654 786 1654 738.5 1607.5 c 128,-1,4
 691 1561 691 1561 634.5 1513.5 c 128,-1,5
 578 1466 578 1466 519.5 1421.5 c 128,-1,6
 461 1377 461 1377 415 1345 c 1,7,-1
 372 1389 l 1,0,-1
EndSplineSet
EndChar

StartChar: paragraph
Encoding: 182 182 99
Width: 1259
Flags: W
LayerCount: 2
Fore
SplineSet
376 64 m 1,0,-1
 575 87 l 1,1,-1
 575 676 l 1,2,3
 468 676 468 676 382.5 702.5 c 128,-1,4
 297 729 297 729 236.5 784.5 c 128,-1,5
 176 840 176 840 143.5 925 c 128,-1,6
 111 1010 111 1010 111 1127 c 0,7,8
 111 1225 111 1225 141.5 1303.5 c 128,-1,9
 172 1382 172 1382 235.5 1437 c 128,-1,10
 299 1492 299 1492 396.5 1521.5 c 128,-1,11
 494 1551 494 1551 627 1551 c 0,12,13
 661 1551 661 1551 712.5 1548.5 c 128,-1,14
 764 1546 764 1546 820 1542.5 c 128,-1,15
 876 1539 876 1539 931.5 1535.5 c 128,-1,16
 987 1532 987 1532 1029 1531 c 1,17,-1
 1200 1531 l 1,18,-1
 1200 1454 l 1,19,-1
 1028 1431 l 1,20,-1
 1028 87 l 1,21,-1
 1176 64 l 1,22,-1
 1176 0 l 1,23,-1
 930 0 l 1,24,-1
 928 1431 l 1,25,26
 903 1431 903 1431 871 1432 c 128,-1,27
 839 1433 839 1433 804.5 1434.5 c 128,-1,28
 770 1436 770 1436 735.5 1437 c 128,-1,29
 701 1438 701 1438 671 1438 c 1,30,-1
 671 0 l 1,31,-1
 376 0 l 1,32,-1
 376 64 l 1,0,-1
EndSplineSet
EndChar

StartChar: cedilla
Encoding: 184 184 100
Width: 615
Flags: W
LayerCount: 2
Fore
SplineSet
212 0 m 1,0,1
 208 -25 208 -25 205.5 -60.5 c 128,-1,2
 203 -96 203 -96 206 -127 c 1,3,4
 276 -125 276 -125 328 -141 c 128,-1,5
 380 -157 380 -157 414 -184.5 c 128,-1,6
 448 -212 448 -212 465 -248.5 c 128,-1,7
 482 -285 482 -285 482 -324 c 0,8,9
 482 -374 482 -374 463.5 -411 c 128,-1,10
 445 -448 445 -448 412 -472.5 c 128,-1,11
 379 -497 379 -497 333 -510.5 c 128,-1,12
 287 -524 287 -524 232 -527 c 0,13,14
 188 -529 188 -529 157 -527.5 c 128,-1,15
 126 -526 126 -526 103.5 -522.5 c 128,-1,16
 81 -519 81 -519 64 -514.5 c 128,-1,17
 47 -510 47 -510 31 -506 c 1,18,-1
 32 -425 l 1,19,20
 44 -428 44 -428 60 -431.5 c 128,-1,21
 76 -435 76 -435 93.5 -437.5 c 128,-1,22
 111 -440 111 -440 128.5 -442 c 128,-1,23
 146 -444 146 -444 161 -444 c 0,24,25
 189 -444 189 -444 220.5 -440 c 128,-1,26
 252 -436 252 -436 278.5 -423 c 128,-1,27
 305 -410 305 -410 322.5 -385 c 128,-1,28
 340 -360 340 -360 340 -318 c 0,29,30
 340 -284 340 -284 324.5 -259.5 c 128,-1,31
 309 -235 309 -235 282.5 -220 c 128,-1,32
 256 -205 256 -205 220 -198.5 c 128,-1,33
 184 -192 184 -192 142 -193 c 0,34,35
 131 -194 131 -194 115 -195 c 128,-1,36
 99 -196 99 -196 96 -197 c 1,37,38
 96 -148 96 -148 100.5 -100.5 c 128,-1,39
 105 -53 105 -53 120 0 c 1,40,-1
 212 0 l 1,0,1
EndSplineSet
EndChar

StartChar: guillemotright
Encoding: 187 187 101
Width: 1896
Flags: W
LayerCount: 2
Fore
SplineSet
1512 615 m 1,0,-1
 958 1007 l 1,1,-1
 998 1075 l 1,2,-1
 1646 712 l 1,3,-1
 1646 537 l 1,4,-1
 998 163 l 1,5,-1
 958 227 l 1,6,-1
 1512 615 l 1,0,-1
250 227 m 1,7,-1
 804 615 l 1,8,-1
 250 1007 l 1,9,-1
 290 1075 l 1,10,-1
 938 712 l 1,11,-1
 938 537 l 1,12,-1
 290 163 l 1,13,-1
 250 227 l 1,7,-1
EndSplineSet
EndChar

StartChar: questiondown
Encoding: 191 191 102
Width: 1012
Flags: W
LayerCount: 2
Fore
SplineSet
414 1232 m 0,0,1
 395 1232 395 1232 377.5 1238.5 c 128,-1,2
 360 1245 360 1245 346.5 1257 c 128,-1,3
 333 1269 333 1269 325 1286.5 c 128,-1,4
 317 1304 317 1304 317 1325 c 0,5,6
 317 1348 317 1348 327 1368 c 128,-1,7
 337 1388 337 1388 353.5 1403 c 128,-1,8
 370 1418 370 1418 390.5 1426.5 c 128,-1,9
 411 1435 411 1435 432 1435 c 0,10,11
 457 1435 457 1435 475.5 1427.5 c 128,-1,12
 494 1420 494 1420 506 1407 c 128,-1,13
 518 1394 518 1394 523.5 1377 c 128,-1,14
 529 1360 529 1360 529 1341 c 0,15,16
 529 1317 529 1317 519 1296.5 c 128,-1,17
 509 1276 509 1276 493 1262 c 128,-1,18
 477 1248 477 1248 456.5 1240 c 128,-1,19
 436 1232 436 1232 414 1232 c 0,0,1
58 212 m 1,20,21
 58 256 58 256 91.5 291.5 c 128,-1,22
 125 327 125 327 176 357.5 c 128,-1,23
 227 388 227 388 287 415 c 128,-1,24
 347 442 347 442 401 468 c 128,-1,25
 455 494 455 494 494 521 c 128,-1,26
 533 548 533 548 542 579 c 1,27,28
 547 623 547 623 538 667 c 128,-1,29
 529 711 529 711 513 755 c 128,-1,30
 497 799 497 799 476.5 842 c 128,-1,31
 456 885 456 885 438 926 c 1,32,-1
 522 926 l 1,33,34
 543 907 543 907 570.5 866.5 c 128,-1,35
 598 826 598 826 623 776.5 c 128,-1,36
 648 727 648 727 665.5 675.5 c 128,-1,37
 683 624 683 624 682 584 c 0,38,39
 681 543 681 543 644 510 c 128,-1,40
 607 477 607 477 551.5 447.5 c 128,-1,41
 496 418 496 418 430.5 391.5 c 128,-1,42
 365 365 365 365 308 338 c 128,-1,43
 251 311 251 311 211 282.5 c 128,-1,44
 171 254 171 254 166 221 c 1,45,46
 162 116 162 116 201.5 23 c 128,-1,47
 241 -70 241 -70 311 -139.5 c 128,-1,48
 381 -209 381 -209 476 -249 c 128,-1,49
 571 -289 571 -289 679 -289 c 0,50,51
 700 -289 700 -289 723.5 -287.5 c 128,-1,52
 747 -286 747 -286 770 -282 c 128,-1,53
 793 -278 793 -278 814 -273 c 128,-1,54
 835 -268 835 -268 850 -260 c 1,55,-1
 850 -373 l 1,56,57
 843 -382 843 -382 823.5 -390 c 128,-1,58
 804 -398 804 -398 778 -404 c 128,-1,59
 752 -410 752 -410 721.5 -414 c 128,-1,60
 691 -418 691 -418 663 -418 c 0,61,62
 549 -418 549 -418 458 -390.5 c 128,-1,63
 367 -363 367 -363 297.5 -316.5 c 128,-1,64
 228 -270 228 -270 180 -207.5 c 128,-1,65
 132 -145 132 -145 102.5 -75 c 128,-1,66
 73 -5 73 -5 62.5 68.5 c 128,-1,67
 52 142 52 142 58 212 c 1,20,21
EndSplineSet
EndChar

StartChar: germandbls
Encoding: 223 223 103
Width: 1339
Flags: W
LayerCount: 2
Fore
SplineSet
67 65 m 1,0,-1
 227 89 l 1,1,-1
 227 892 l 2,2,3
 227 1075 227 1075 272 1209.5 c 128,-1,4
 317 1344 317 1344 391.5 1432 c 128,-1,5
 466 1520 466 1520 563.5 1563 c 128,-1,6
 661 1606 661 1606 766 1606 c 0,7,8
 823 1606 823 1606 879 1591.5 c 128,-1,9
 935 1577 935 1577 979.5 1542 c 128,-1,10
 1024 1507 1024 1507 1051 1449.5 c 128,-1,11
 1078 1392 1078 1392 1078 1306 c 0,12,13
 1078 1245 1078 1245 1063 1197.5 c 128,-1,14
 1048 1150 1048 1150 1026 1111.5 c 128,-1,15
 1004 1073 1004 1073 978 1039.5 c 128,-1,16
 952 1006 952 1006 930 972 c 128,-1,17
 908 938 908 938 893 901 c 128,-1,18
 878 864 878 864 878 818 c 0,19,20
 878 766 878 766 910.5 730.5 c 128,-1,21
 943 695 943 695 992 665 c 128,-1,22
 1041 635 1041 635 1097.5 606 c 128,-1,23
 1154 577 1154 577 1203 537.5 c 128,-1,24
 1252 498 1252 498 1284.5 444 c 128,-1,25
 1317 390 1317 390 1317 310 c 0,26,27
 1317 222 1317 222 1282.5 159.5 c 128,-1,28
 1248 97 1248 97 1189.5 57 c 128,-1,29
 1131 17 1131 17 1054.5 -2 c 128,-1,30
 978 -21 978 -21 894 -21 c 0,31,32
 850 -21 850 -21 791.5 -18.5 c 128,-1,33
 733 -16 733 -16 673 -2 c 1,34,-1
 673 127 l 1,35,36
 692 117 692 117 720 106 c 128,-1,37
 748 95 748 95 779.5 85.5 c 128,-1,38
 811 76 811 76 844 70 c 128,-1,39
 877 64 877 64 906 64 c 0,40,41
 962 64 962 64 1012.5 75.5 c 128,-1,42
 1063 87 1063 87 1101.5 113 c 128,-1,43
 1140 139 1140 139 1162.5 180.5 c 128,-1,44
 1185 222 1185 222 1185 282 c 0,45,46
 1185 327 1185 327 1166 362 c 128,-1,47
 1147 397 1147 397 1116 425.5 c 128,-1,48
 1085 454 1085 454 1045.5 477.5 c 128,-1,49
 1006 501 1006 501 964.5 523.5 c 128,-1,50
 923 546 923 546 883.5 569.5 c 128,-1,51
 844 593 844 593 813 621.5 c 128,-1,52
 782 650 782 650 763 685.5 c 128,-1,53
 744 721 744 721 744 767 c 0,54,55
 744 804 744 804 759.5 841.5 c 128,-1,56
 775 879 775 879 798.5 917.5 c 128,-1,57
 822 956 822 956 849 996 c 128,-1,58
 876 1036 876 1036 899.5 1077.5 c 128,-1,59
 923 1119 923 1119 938.5 1164 c 128,-1,60
 954 1209 954 1209 954 1257 c 0,61,62
 954 1329 954 1329 933.5 1378 c 128,-1,63
 913 1427 913 1427 880 1457 c 128,-1,64
 847 1487 847 1487 806.5 1500 c 128,-1,65
 766 1513 766 1513 727 1513 c 0,66,67
 645 1513 645 1513 578 1482 c 128,-1,68
 511 1451 511 1451 464 1379 c 128,-1,69
 417 1307 417 1307 391 1188 c 128,-1,70
 365 1069 365 1069 365 892 c 2,71,-1
 365 0 l 1,72,-1
 67 0 l 1,73,-1
 67 65 l 1,0,-1
EndSplineSet
EndChar

StartChar: endash
Encoding: 8211 8211 104
Width: 1084
Flags: W
LayerCount: 2
Fore
SplineSet
30 707 m 1,0,-1
 1054 707 l 1,1,-1
 1054 581 l 1,2,-1
 30 581 l 1,3,-1
 30 707 l 1,0,-1
EndSplineSet
EndChar

StartChar: emdash
Encoding: 8212 8212 105
Width: 2108
Flags: W
LayerCount: 2
Fore
SplineSet
30 703 m 1,0,-1
 2078 703 l 1,1,-1
 2078 577 l 1,2,-1
 30 577 l 1,3,-1
 30 703 l 1,0,-1
EndSplineSet
EndChar

StartChar: quoteleft
Encoding: 8216 8216 106
Width: 770
Flags: W
LayerCount: 2
Fore
SplineSet
383 998 m 1,0,1
 329 1009 329 1009 290 1040.5 c 128,-1,2
 251 1072 251 1072 225.5 1113 c 128,-1,3
 200 1154 200 1154 188 1199 c 128,-1,4
 176 1244 176 1244 176 1281 c 0,5,6
 175 1355 175 1355 200.5 1423.5 c 128,-1,7
 226 1492 226 1492 267 1550 c 128,-1,8
 308 1608 308 1608 359.5 1651.5 c 128,-1,9
 411 1695 411 1695 462 1719 c 1,10,-1
 502 1681 l 1,11,-1
 502 1648 l 1,12,13
 471 1636 471 1636 437.5 1604 c 128,-1,14
 404 1572 404 1572 376.5 1529 c 128,-1,15
 349 1486 349 1486 331 1436 c 128,-1,16
 313 1386 313 1386 313 1338 c 0,17,18
 313 1299 313 1299 326 1264 c 128,-1,19
 339 1229 339 1229 361 1202.5 c 128,-1,20
 383 1176 383 1176 410.5 1159 c 128,-1,21
 438 1142 438 1142 467 1139 c 1,22,-1
 467 1105 l 1,23,-1
 383 998 l 1,24,-1
 383 998 l 1,0,1
EndSplineSet
EndChar

StartChar: quoteright
Encoding: 8217 8217 107
Width: 770
Flags: W
LayerCount: 2
Fore
SplineSet
267 983 m 1,0,-1
 267 1017 l 1,1,2
 298 1029 298 1029 331.5 1061 c 128,-1,3
 365 1093 365 1093 392.5 1135.5 c 128,-1,4
 420 1178 420 1178 438 1228 c 128,-1,5
 456 1278 456 1278 456 1326 c 0,6,7
 456 1365 456 1365 443 1400 c 128,-1,8
 430 1435 430 1435 408 1462 c 128,-1,9
 386 1489 386 1489 358.5 1506 c 128,-1,10
 331 1523 331 1523 302 1526 c 1,11,-1
 302 1559 l 1,12,-1
 385 1666 l 1,13,14
 440 1655 440 1655 479 1623.5 c 128,-1,15
 518 1592 518 1592 543 1551 c 128,-1,16
 568 1510 568 1510 580 1465 c 128,-1,17
 592 1420 592 1420 593 1383 c 0,18,19
 594 1309 594 1309 568.5 1240.5 c 128,-1,20
 543 1172 543 1172 502 1114.5 c 128,-1,21
 461 1057 461 1057 409.5 1013.5 c 128,-1,22
 358 970 358 970 307 946 c 1,23,-1
 267 983 l 1,0,-1
EndSplineSet
EndChar

StartChar: quotesinglbase
Encoding: 8218 8218 108
Width: 766
Flags: W
LayerCount: 2
Fore
SplineSet
300 108 m 1,0,-1
 384 215 l 1,1,2
 438 204 438 204 477 173 c 128,-1,3
 516 142 516 142 541.5 101 c 128,-1,4
 567 60 567 60 579 15 c 128,-1,5
 591 -30 591 -30 591 -67 c 0,6,7
 592 -141 592 -141 566.5 -210 c 128,-1,8
 541 -279 541 -279 500 -336.5 c 128,-1,9
 459 -394 459 -394 407.5 -437.5 c 128,-1,10
 356 -481 356 -481 305 -505 c 1,11,-1
 265 -468 l 1,12,-1
 265 -434 l 1,13,14
 296 -422 296 -422 329.5 -390 c 128,-1,15
 363 -358 363 -358 390.5 -315 c 128,-1,16
 418 -272 418 -272 436 -222 c 128,-1,17
 454 -172 454 -172 454 -124 c 0,18,19
 454 -85 454 -85 441 -50 c 128,-1,20
 428 -15 428 -15 406 11.5 c 128,-1,21
 384 38 384 38 356.5 55 c 128,-1,22
 329 72 329 72 300 75 c 1,23,-1
 300 108 l 1,0,-1
EndSplineSet
EndChar

StartChar: quotedblleft
Encoding: 8220 8220 109
Width: 1301
Flags: W
LayerCount: 2
Fore
SplineSet
915 868 m 1,0,1
 860 879 860 879 821 910.5 c 128,-1,2
 782 942 782 942 757 983 c 128,-1,3
 732 1024 732 1024 720 1069 c 128,-1,4
 708 1114 708 1114 707 1151 c 0,5,6
 706 1225 706 1225 731.5 1293.5 c 128,-1,7
 757 1362 757 1362 798 1419.5 c 128,-1,8
 839 1477 839 1477 890.5 1520.5 c 128,-1,9
 942 1564 942 1564 993 1588 c 1,10,-1
 1033 1551 l 1,11,-1
 1033 1517 l 1,12,13
 1002 1505 1002 1505 968.5 1473 c 128,-1,14
 935 1441 935 1441 907.5 1398.5 c 128,-1,15
 880 1356 880 1356 862 1306 c 128,-1,16
 844 1256 844 1256 844 1208 c 0,17,18
 844 1169 844 1169 857 1134 c 128,-1,19
 870 1099 870 1099 892 1072 c 128,-1,20
 914 1045 914 1045 941.5 1028 c 128,-1,21
 969 1011 969 1011 998 1008 c 1,22,-1
 998 975 l 1,23,-1
 915 868 l 1,0,1
384 868 m 1,24,25
 329 879 329 879 290 910.5 c 128,-1,26
 251 942 251 942 226 983 c 128,-1,27
 201 1024 201 1024 189 1069 c 128,-1,28
 177 1114 177 1114 176 1151 c 0,29,30
 175 1225 175 1225 200.5 1293.5 c 128,-1,31
 226 1362 226 1362 267 1419.5 c 128,-1,32
 308 1477 308 1477 359.5 1520.5 c 128,-1,33
 411 1564 411 1564 462 1588 c 1,34,-1
 502 1551 l 1,35,-1
 502 1517 l 1,36,37
 471 1505 471 1505 437.5 1473 c 128,-1,38
 404 1441 404 1441 376.5 1398.5 c 128,-1,39
 349 1356 349 1356 331 1306 c 128,-1,40
 313 1256 313 1256 313 1208 c 0,41,42
 313 1169 313 1169 326 1134 c 128,-1,43
 339 1099 339 1099 361 1072 c 128,-1,44
 383 1045 383 1045 410.5 1028 c 128,-1,45
 438 1011 438 1011 467 1008 c 1,46,-1
 467 975 l 1,47,-1
 384 868 l 1,24,25
EndSplineSet
EndChar

StartChar: quotedblright
Encoding: 8221 8221 110
Width: 1301
Flags: W
LayerCount: 2
Fore
SplineSet
798 983 m 1,0,-1
 798 1017 l 1,1,2
 829 1029 829 1029 862.5 1061 c 128,-1,3
 896 1093 896 1093 923.5 1135.5 c 128,-1,4
 951 1178 951 1178 969 1228 c 128,-1,5
 987 1278 987 1278 987 1326 c 0,6,7
 987 1365 987 1365 974 1400 c 128,-1,8
 961 1435 961 1435 939 1462 c 128,-1,9
 917 1489 917 1489 889.5 1506 c 128,-1,10
 862 1523 862 1523 833 1526 c 1,11,-1
 833 1559 l 1,12,-1
 916 1666 l 1,13,14
 971 1655 971 1655 1010 1623.5 c 128,-1,15
 1049 1592 1049 1592 1074 1551 c 128,-1,16
 1099 1510 1099 1510 1111 1465 c 128,-1,17
 1123 1420 1123 1420 1124 1383 c 0,18,19
 1125 1309 1125 1309 1099.5 1240.5 c 128,-1,20
 1074 1172 1074 1172 1033 1114.5 c 128,-1,21
 992 1057 992 1057 940.5 1013.5 c 128,-1,22
 889 970 889 970 838 946 c 1,23,-1
 798 983 l 1,0,-1
267 983 m 1,24,-1
 267 1017 l 1,25,26
 298 1029 298 1029 331.5 1061 c 128,-1,27
 365 1093 365 1093 392.5 1135.5 c 128,-1,28
 420 1178 420 1178 438 1228 c 128,-1,29
 456 1278 456 1278 456 1326 c 0,30,31
 456 1365 456 1365 443 1400 c 128,-1,32
 430 1435 430 1435 408 1462 c 128,-1,33
 386 1489 386 1489 358.5 1506 c 128,-1,34
 331 1523 331 1523 302 1526 c 1,35,-1
 302 1559 l 1,36,-1
 385 1666 l 1,37,38
 440 1655 440 1655 479 1623.5 c 128,-1,39
 518 1592 518 1592 543 1551 c 128,-1,40
 568 1510 568 1510 580 1465 c 128,-1,41
 592 1420 592 1420 593 1383 c 0,42,43
 594 1309 594 1309 568.5 1240.5 c 128,-1,44
 543 1172 543 1172 502 1114.5 c 128,-1,45
 461 1057 461 1057 409.5 1013.5 c 128,-1,46
 358 970 358 970 307 946 c 1,47,-1
 267 983 l 1,24,-1
EndSplineSet
EndChar

StartChar: quotedblbase
Encoding: 8222 8222 111
Width: 1301
Flags: W
LayerCount: 2
Fore
SplineSet
834 107 m 1,0,-1
 917 214 l 1,1,2
 972 203 972 203 1011 172 c 128,-1,3
 1050 141 1050 141 1075 100 c 128,-1,4
 1100 59 1100 59 1112 14 c 128,-1,5
 1124 -31 1124 -31 1125 -68 c 0,6,7
 1126 -142 1126 -142 1100.5 -211 c 128,-1,8
 1075 -280 1075 -280 1034 -337.5 c 128,-1,9
 993 -395 993 -395 941.5 -438.5 c 128,-1,10
 890 -482 890 -482 839 -506 c 1,11,-1
 799 -469 l 1,12,-1
 799 -435 l 1,13,14
 830 -423 830 -423 863.5 -391 c 128,-1,15
 897 -359 897 -359 924.5 -316 c 128,-1,16
 952 -273 952 -273 970 -223 c 128,-1,17
 988 -173 988 -173 988 -125 c 0,18,19
 988 -86 988 -86 975 -51 c 128,-1,20
 962 -16 962 -16 940 10.5 c 128,-1,21
 918 37 918 37 890.5 54 c 128,-1,22
 863 71 863 71 834 74 c 1,23,-1
 834 107 l 1,0,-1
303 107 m 1,24,-1
 386 214 l 1,25,26
 441 203 441 203 480 172 c 128,-1,27
 519 141 519 141 544 100 c 128,-1,28
 569 59 569 59 581 14 c 128,-1,29
 593 -31 593 -31 594 -68 c 0,30,31
 595 -142 595 -142 569.5 -211 c 128,-1,32
 544 -280 544 -280 503 -337.5 c 128,-1,33
 462 -395 462 -395 410.5 -438.5 c 128,-1,34
 359 -482 359 -482 308 -506 c 1,35,-1
 268 -469 l 1,36,-1
 268 -435 l 1,37,38
 299 -423 299 -423 332.5 -391 c 128,-1,39
 366 -359 366 -359 393.5 -316 c 128,-1,40
 421 -273 421 -273 439 -223 c 128,-1,41
 457 -173 457 -173 457 -125 c 0,42,43
 457 -86 457 -86 444 -51 c 128,-1,44
 431 -16 431 -16 409 10.5 c 128,-1,45
 387 37 387 37 359.5 54 c 128,-1,46
 332 71 332 71 303 74 c 1,47,-1
 303 107 l 1,24,-1
EndSplineSet
EndChar

StartChar: dagger
Encoding: 8224 8224 112
Width: 886
Flags: W
LayerCount: 2
Fore
SplineSet
361 1000 m 1,0,-1
 375 1155 l 1,1,-1
 65 1151 l 1,2,-1
 66 1260 l 1,3,-1
 389 1256 l 1,4,-1
 373 1452 l 1,5,-1
 368 1648 l 1,6,-1
 518 1648 l 1,7,-1
 513 1452 l 1,8,-1
 496 1256 l 1,9,-1
 793 1260 l 1,10,-1
 794 1151 l 1,11,-1
 509 1155 l 1,12,-1
 523 1000 l 1,13,-1
 485 283 l 1,14,-1
 399 283 l 1,15,-1
 361 1000 l 1,0,-1
EndSplineSet
EndChar

StartChar: bullet
Encoding: 8226 8226 113
Width: 841
Flags: W
LayerCount: 2
Fore
SplineSet
420 510 m 256,0,1
 388 510 388 510 359.5 523.5 c 128,-1,2
 331 537 331 537 310 560.5 c 128,-1,3
 289 584 289 584 277.5 614 c 128,-1,4
 266 644 266 644 269 677 c 1,5,6
 271 712 271 712 285.5 742.5 c 128,-1,7
 300 773 300 773 322.5 795.5 c 128,-1,8
 345 818 345 818 374 831 c 128,-1,9
 403 844 403 844 435 844 c 256,10,11
 467 844 467 844 495.5 831 c 128,-1,12
 524 818 524 818 545 795.5 c 128,-1,13
 566 773 566 773 577.5 742.5 c 128,-1,14
 589 712 589 712 587 677 c 256,15,16
 585 642 585 642 570.5 612 c 128,-1,17
 556 582 556 582 533.5 559 c 128,-1,18
 511 536 511 536 481.5 523 c 128,-1,19
 452 510 452 510 420 510 c 256,0,1
EndSplineSet
EndChar

StartChar: guilsinglleft
Encoding: 8249 8249 114
Width: 1188
Flags: W
LayerCount: 2
Fore
SplineSet
250 700 m 1,0,-1
 898 1075 l 1,1,-1
 938 1011 l 1,2,-1
 384 623 l 1,3,-1
 938 231 l 1,4,-1
 898 163 l 1,5,-1
 250 526 l 1,6,-1
 250 700 l 1,0,-1
EndSplineSet
EndChar

StartChar: guilsinglright
Encoding: 8250 8250 115
Width: 1188
Flags: W
LayerCount: 2
Fore
SplineSet
250 227 m 1,0,-1
 804 615 l 1,1,-1
 250 1007 l 1,2,-1
 290 1075 l 1,3,-1
 938 712 l 1,4,-1
 938 537 l 1,5,-1
 290 163 l 1,6,-1
 250 227 l 1,0,-1
EndSplineSet
EndChar

StartChar: quotedbl
Encoding: 34 34 116
Width: 1140
Flags: W
LayerCount: 2
Fore
SplineSet
677 1782 m 1,0,-1
 844 1782 l 1,1,-1
 806 1036 l 1,2,-1
 715 1036 l 1,3,-1
 677 1782 l 1,0,-1
297 1782 m 1,4,-1
 464 1782 l 1,5,-1
 426 1036 l 1,6,-1
 335 1036 l 1,7,-1
 297 1782 l 1,4,-1
EndSplineSet
EndChar

StartChar: exclam
Encoding: 33 33 117
Width: 706
Flags: W
LayerCount: 2
Fore
SplineSet
247 1780 m 1,0,-1
 432 1780 l 1,1,-1
 380 451 l 1,2,-1
 290 451 l 1,3,-1
 247 1780 l 1,0,-1
240 71 m 0,4,5
 240 94 240 94 250 114 c 128,-1,6
 260 134 260 134 276.5 149 c 128,-1,7
 293 164 293 164 313.5 172.5 c 128,-1,8
 334 181 334 181 355 181 c 0,9,10
 380 181 380 181 398.5 173.5 c 128,-1,11
 417 166 417 166 429 153 c 128,-1,12
 441 140 441 140 446.5 123 c 128,-1,13
 452 106 452 106 452 87 c 0,14,15
 452 63 452 63 442 42.5 c 128,-1,16
 432 22 432 22 416 8 c 128,-1,17
 400 -6 400 -6 379.5 -14 c 128,-1,18
 359 -22 359 -22 337 -22 c 0,19,20
 318 -22 318 -22 300.5 -15.5 c 128,-1,21
 283 -9 283 -9 269.5 3 c 128,-1,22
 256 15 256 15 248 32.5 c 128,-1,23
 240 50 240 50 240 71 c 0,4,5
EndSplineSet
EndChar

StartChar: uni00AD
Encoding: 173 173 118
Width: 892
Flags: W
LayerCount: 2
Fore
SplineSet
79 705 m 1,0,-1
 811 705 l 1,1,-1
 811 579 l 1,2,-1
 79 579 l 1,3,-1
 79 705 l 1,0,-1
EndSplineSet
EndChar

StartChar: yen
Encoding: 165 165 119
Width: 1312
Flags: W
LayerCount: 2
Fore
SplineSet
384 65 m 1,0,-1
 591 90 l 1,1,-1
 591 407 l 1,2,-1
 135 407 l 1,3,-1
 135 504 l 1,4,-1
 591 504 l 1,5,-1
 591 764 l 1,6,-1
 135 764 l 1,7,-1
 135 861 l 1,8,-1
 533 861 l 1,9,-1
 131 1440 l 1,10,-1
 -4 1456 l 1,11,-1
 -4 1531 l 1,12,-1
 460 1531 l 1,13,-1
 460 1456 l 1,14,-1
 298 1442 l 1,15,-1
 613 970 l 1,16,-1
 667 861 l 1,17,-1
 691 861 l 1,18,-1
 743 955 l 1,19,-1
 1045 1442 l 1,20,-1
 890 1456 l 1,21,-1
 891 1531 l 1,22,-1
 1316 1531 l 1,23,-1
 1316 1456 l 1,24,-1
 1171 1432 l 1,25,-1
 795 861 l 1,26,-1
 1163 861 l 1,27,-1
 1163 764 l 1,28,-1
 735 764 l 1,29,-1
 735 504 l 1,30,-1
 1163 504 l 1,31,-1
 1163 407 l 1,32,-1
 735 407 l 1,33,-1
 735 90 l 1,34,-1
 950 65 l 1,35,-1
 950 0 l 1,36,-1
 384 0 l 1,37,-1
 384 65 l 1,0,-1
EndSplineSet
EndChar

StartChar: cent
Encoding: 162 162 120
Width: 1041
Flags: W
LayerCount: 2
Fore
SplineSet
482 -15 m 1,0,1
 387 -2 387 -2 313.5 45 c 128,-1,2
 240 92 240 92 189 164.5 c 128,-1,3
 138 237 138 237 111.5 332.5 c 128,-1,4
 85 428 85 428 84 538 c 0,5,6
 83 668 83 668 121.5 775 c 128,-1,7
 160 882 160 882 227.5 960 c 128,-1,8
 295 1038 295 1038 386.5 1085.5 c 128,-1,9
 478 1133 478 1133 585 1145 c 1,10,-1
 605 1362 l 1,11,-1
 700 1362 l 1,12,-1
 682 1149 l 1,13,14
 718 1148 718 1148 753 1144.5 c 128,-1,15
 788 1141 788 1141 819 1134.5 c 128,-1,16
 850 1128 850 1128 875.5 1119 c 128,-1,17
 901 1110 901 1110 918 1099 c 1,18,-1
 918 887 l 1,19,-1
 846 887 l 1,20,-1
 805 1015 l 1,21,22
 770 1042 770 1042 721 1051.5 c 128,-1,23
 672 1061 672 1061 620 1061 c 0,24,25
 542 1061 542 1061 470 1031.5 c 128,-1,26
 398 1002 398 1002 342.5 944 c 128,-1,27
 287 886 287 886 254 801 c 128,-1,28
 221 716 221 716 220 605 c 0,29,30
 219 462 219 462 254 362.5 c 128,-1,31
 289 263 289 263 346 201 c 128,-1,32
 403 139 403 139 475 110.5 c 128,-1,33
 547 82 547 82 621 82 c 0,34,35
 654 82 654 82 694.5 87 c 128,-1,36
 735 92 735 92 774.5 102 c 128,-1,37
 814 112 814 112 849.5 126.5 c 128,-1,38
 885 141 885 141 909 159 c 1,39,-1
 936 88 l 1,40,41
 908 63 908 63 869 43.5 c 128,-1,42
 830 24 830 24 783 10 c 128,-1,43
 736 -4 736 -4 684 -12 c 128,-1,44
 632 -20 632 -20 578 -21 c 1,45,-1
 565 -216 l 1,46,-1
 469 -216 l 1,47,-1
 482 -15 l 1,48,-1
 482 -15 l 1,0,1
EndSplineSet
EndChar

StartChar: circumflex
Encoding: 710 710 121
Width: 1289
Flags: W
LayerCount: 2
Fore
SplineSet
280 1371 m 1,0,-1
 559 1775 l 1,1,-1
 702 1775 l 1,2,-1
 979 1372 l 1,3,-1
 910 1336 l 1,4,-1
 629 1674 l 1,5,-1
 341 1335 l 1,6,-1
 280 1371 l 1,0,-1
EndSplineSet
EndChar

StartChar: caron
Encoding: 711 711 122
Width: 1289
Flags: W
LayerCount: 2
Fore
SplineSet
260 1737 m 1,0,-1
 329 1775 l 1,1,-1
 641 1434 l 1,2,-1
 924 1776 l 1,3,-1
 985 1742 l 1,4,-1
 696 1332 l 1,5,-1
 572 1332 l 1,6,-1
 260 1737 l 1,0,-1
EndSplineSet
EndChar

StartChar: breve
Encoding: 728 728 123
Width: 1289
Flags: W
LayerCount: 2
Fore
SplineSet
628 1241 m 0,0,1
 552 1241 552 1241 490.5 1272.5 c 128,-1,2
 429 1304 429 1304 386 1354.5 c 128,-1,3
 343 1405 343 1405 320 1467 c 128,-1,4
 297 1529 297 1529 297 1590 c 1,5,-1
 370 1590 l 1,6,7
 375 1566 375 1566 389 1524.5 c 128,-1,8
 403 1483 403 1483 432.5 1443.5 c 128,-1,9
 462 1404 462 1404 509.5 1375 c 128,-1,10
 557 1346 557 1346 629 1346 c 0,11,12
 677 1346 677 1346 714 1360 c 128,-1,13
 751 1374 751 1374 779 1396 c 128,-1,14
 807 1418 807 1418 826.5 1445.5 c 128,-1,15
 846 1473 846 1473 858.5 1500 c 128,-1,16
 871 1527 871 1527 878.5 1551 c 128,-1,17
 886 1575 886 1575 889 1591 c 1,18,-1
 958 1591 l 1,19,20
 958 1530 958 1530 933.5 1467.5 c 128,-1,21
 909 1405 909 1405 865 1355 c 128,-1,22
 821 1305 821 1305 760.5 1273 c 128,-1,23
 700 1241 700 1241 628 1241 c 0,0,1
EndSplineSet
EndChar

StartChar: dotaccent
Encoding: 729 729 124
Width: 575
Flags: W
LayerCount: 2
Fore
SplineSet
278 1380 m 0,0,1
 259 1380 259 1380 241.5 1386.5 c 128,-1,2
 224 1393 224 1393 210.5 1405 c 128,-1,3
 197 1417 197 1417 189 1434 c 128,-1,4
 181 1451 181 1451 181 1472 c 0,5,6
 181 1495 181 1495 191 1515 c 128,-1,7
 201 1535 201 1535 217.5 1550 c 128,-1,8
 234 1565 234 1565 254.5 1573.5 c 128,-1,9
 275 1582 275 1582 296 1582 c 0,10,11
 321 1582 321 1582 339.5 1574.5 c 128,-1,12
 358 1567 358 1567 370 1554 c 128,-1,13
 382 1541 382 1541 387.5 1524.5 c 128,-1,14
 393 1508 393 1508 393 1489 c 0,15,16
 393 1465 393 1465 383 1444.5 c 128,-1,17
 373 1424 373 1424 357 1410 c 128,-1,18
 341 1396 341 1396 320 1388 c 128,-1,19
 299 1380 299 1380 278 1380 c 0,0,1
EndSplineSet
EndChar

StartChar: ring
Encoding: 730 730 125
Width: 575
Flags: W
LayerCount: 2
Fore
SplineSet
287 1320 m 256,0,1
 235 1320 235 1320 189.5 1339 c 128,-1,2
 144 1358 144 1358 109.5 1390.5 c 128,-1,3
 75 1423 75 1423 55 1467 c 128,-1,4
 35 1511 35 1511 35 1561 c 256,5,6
 35 1611 35 1611 55 1655 c 128,-1,7
 75 1699 75 1699 109.5 1731.5 c 128,-1,8
 144 1764 144 1764 189.5 1783 c 128,-1,9
 235 1802 235 1802 287 1802 c 256,10,11
 339 1802 339 1802 384.5 1783 c 128,-1,12
 430 1764 430 1764 464.5 1731.5 c 128,-1,13
 499 1699 499 1699 519 1655 c 128,-1,14
 539 1611 539 1611 539 1561 c 256,15,16
 539 1511 539 1511 519 1467 c 128,-1,17
 499 1423 499 1423 464.5 1390.5 c 128,-1,18
 430 1358 430 1358 384.5 1339 c 128,-1,19
 339 1320 339 1320 287 1320 c 256,0,1
287 1404 m 256,20,21
 319 1404 319 1404 347.5 1416 c 128,-1,22
 376 1428 376 1428 397 1449 c 128,-1,23
 418 1470 418 1470 430.5 1498 c 128,-1,24
 443 1526 443 1526 443 1559 c 0,25,26
 443 1591 443 1591 430.5 1619.5 c 128,-1,27
 418 1648 418 1648 397 1669 c 128,-1,28
 376 1690 376 1690 347.5 1702.5 c 128,-1,29
 319 1715 319 1715 287 1715 c 256,30,31
 255 1715 255 1715 226.5 1702.5 c 128,-1,32
 198 1690 198 1690 177 1669 c 128,-1,33
 156 1648 156 1648 143.5 1620 c 128,-1,34
 131 1592 131 1592 131 1560 c 0,35,36
 131 1527 131 1527 143.5 1498.5 c 128,-1,37
 156 1470 156 1470 177 1449 c 128,-1,38
 198 1428 198 1428 226.5 1416 c 128,-1,39
 255 1404 255 1404 287 1404 c 256,20,21
EndSplineSet
EndChar

StartChar: tilde
Encoding: 732 732 126
Width: 886
Flags: W
LayerCount: 2
Fore
SplineSet
55 1491 m 1,0,1
 74 1524 74 1524 102.5 1553.5 c 128,-1,2
 131 1583 131 1583 165.5 1605.5 c 128,-1,3
 200 1628 200 1628 239 1641 c 128,-1,4
 278 1654 278 1654 320 1654 c 0,5,6
 352 1654 352 1654 378 1642.5 c 128,-1,7
 404 1631 404 1631 426 1614.5 c 128,-1,8
 448 1598 448 1598 467.5 1578 c 128,-1,9
 487 1558 487 1558 507 1541.5 c 128,-1,10
 527 1525 527 1525 548.5 1513.5 c 128,-1,11
 570 1502 570 1502 596 1502 c 0,12,13
 628 1502 628 1502 656 1511.5 c 128,-1,14
 684 1521 684 1521 708 1536.5 c 128,-1,15
 732 1552 732 1552 752.5 1571.5 c 128,-1,16
 773 1591 773 1591 790 1610 c 1,17,-1
 831 1553 l 1,18,19
 811 1520 811 1520 783 1490.5 c 128,-1,20
 755 1461 755 1461 720.5 1438.5 c 128,-1,21
 686 1416 686 1416 646.5 1403 c 128,-1,22
 607 1390 607 1390 565 1390 c 0,23,24
 533 1390 533 1390 507 1401.5 c 128,-1,25
 481 1413 481 1413 459.5 1429.5 c 128,-1,26
 438 1446 438 1446 418 1466 c 128,-1,27
 398 1486 398 1486 378.5 1502.5 c 128,-1,28
 359 1519 359 1519 337 1530.5 c 128,-1,29
 315 1542 315 1542 289 1542 c 0,30,31
 257 1542 257 1542 229 1532.5 c 128,-1,32
 201 1523 201 1523 177 1507.5 c 128,-1,33
 153 1492 153 1492 132.5 1472.5 c 128,-1,34
 112 1453 112 1453 95 1434 c 1,35,-1
 55 1491 l 1,0,1
EndSplineSet
EndChar

StartChar: hungarumlaut
Encoding: 733 733 127
Width: 915
Flags: W
LayerCount: 2
Fore
SplineSet
701 1389 m 1,0,-1
 1034 1796 l 1,1,-1
 1125 1709 l 1,2,3
 1088 1661 1088 1661 1040 1612 c 128,-1,4
 992 1563 992 1563 941 1516 c 128,-1,5
 890 1469 890 1469 838.5 1425.5 c 128,-1,6
 787 1382 787 1382 743 1346 c 1,7,-1
 701 1389 l 1,0,-1
215 1389 m 1,8,-1
 549 1796 l 1,9,-1
 639 1709 l 1,10,11
 602 1661 602 1661 554 1612 c 128,-1,12
 506 1563 506 1563 455 1516 c 128,-1,13
 404 1469 404 1469 352.5 1425.5 c 128,-1,14
 301 1382 301 1382 257 1346 c 1,15,-1
 215 1389 l 1,8,-1
EndSplineSet
EndChar

StartChar: ogonek
Encoding: 731 731 128
Width: 709
Flags: W
LayerCount: 2
Fore
SplineSet
437 9 m 1,0,1
 408 1 408 1 372.5 -15 c 128,-1,2
 337 -31 337 -31 300.5 -54 c 128,-1,3
 264 -77 264 -77 229 -104.5 c 128,-1,4
 194 -132 194 -132 167.5 -162 c 128,-1,5
 141 -192 141 -192 124.5 -224 c 128,-1,6
 108 -256 108 -256 108 -287 c 0,7,8
 108 -357 108 -357 143 -389.5 c 128,-1,9
 178 -422 178 -422 251 -422 c 0,10,11
 293 -422 293 -422 337.5 -407 c 128,-1,12
 382 -392 382 -392 413 -373 c 1,13,-1
 431 -444 l 1,14,15
 411 -459 411 -459 382.5 -472.5 c 128,-1,16
 354 -486 354 -486 320.5 -496 c 128,-1,17
 287 -506 287 -506 249 -511.5 c 128,-1,18
 211 -517 211 -517 172 -517 c 0,19,20
 122 -517 122 -517 85 -501 c 128,-1,21
 48 -485 48 -485 23 -458.5 c 128,-1,22
 -2 -432 -2 -432 -14 -397.5 c 128,-1,23
 -26 -363 -26 -363 -26 -326 c 0,24,25
 -26 -278 -26 -278 1 -228 c 128,-1,26
 28 -178 28 -178 73 -132.5 c 128,-1,27
 118 -87 118 -87 177 -50 c 128,-1,28
 236 -13 236 -13 299 9 c 1,29,-1
 437 9 l 1,0,1
EndSplineSet
EndChar

StartChar: percent
Encoding: 37 37 129
Width: 2111
Flags: W
LayerCount: 2
Fore
SplineSet
1298 1601 m 1,0,-1
 1414 1601 l 1,1,-1
 828 0 l 1,2,-1
 709 0 l 1,3,-1
 1298 1601 l 1,0,-1
517 692 m 0,4,5
 446 690 446 690 390 719 c 128,-1,6
 334 748 334 748 295 797.5 c 128,-1,7
 256 847 256 847 235 913.5 c 128,-1,8
 214 980 214 980 214 1053 c 0,9,10
 214 1142 214 1142 241 1211 c 128,-1,11
 268 1280 268 1280 314 1327.5 c 128,-1,12
 360 1375 360 1375 420 1400 c 128,-1,13
 480 1425 480 1425 545 1427 c 0,14,15
 624 1430 624 1430 681 1401.5 c 128,-1,16
 738 1373 738 1373 775 1323 c 128,-1,17
 812 1273 812 1273 829.5 1205.5 c 128,-1,18
 847 1138 847 1138 847 1062 c 0,19,20
 847 973 847 973 820 904.5 c 128,-1,21
 793 836 793 836 747 789.5 c 128,-1,22
 701 743 701 743 641.5 718.5 c 128,-1,23
 582 694 582 694 517 692 c 0,4,5
525 771 m 0,24,25
 621 771 621 771 675.5 845.5 c 128,-1,26
 730 920 730 920 730 1055 c 0,27,28
 730 1121 730 1121 717.5 1175.5 c 128,-1,29
 705 1230 705 1230 680.5 1268.5 c 128,-1,30
 656 1307 656 1307 620 1328 c 128,-1,31
 584 1349 584 1349 536 1349 c 0,32,33
 489 1349 489 1349 451 1329 c 128,-1,34
 413 1309 413 1309 386.5 1271.5 c 128,-1,35
 360 1234 360 1234 346 1180.5 c 128,-1,36
 332 1127 332 1127 332 1061 c 0,37,38
 332 998 332 998 344.5 945 c 128,-1,39
 357 892 357 892 381.5 853 c 128,-1,40
 406 814 406 814 442 792.5 c 128,-1,41
 478 771 478 771 525 771 c 0,24,25
1274 525 m 0,42,43
 1274 614 1274 614 1301 683 c 128,-1,44
 1328 752 1328 752 1374 799.5 c 128,-1,45
 1420 847 1420 847 1480 872 c 128,-1,46
 1540 897 1540 897 1605 899 c 0,47,48
 1684 902 1684 902 1741 873.5 c 128,-1,49
 1798 845 1798 845 1835 795 c 128,-1,50
 1872 745 1872 745 1889.5 677.5 c 128,-1,51
 1907 610 1907 610 1907 534 c 0,52,53
 1907 445 1907 445 1880 376.5 c 128,-1,54
 1853 308 1853 308 1807 261.5 c 128,-1,55
 1761 215 1761 215 1701.5 190.5 c 128,-1,56
 1642 166 1642 166 1577 164 c 0,57,58
 1506 162 1506 162 1450 191 c 128,-1,59
 1394 220 1394 220 1355 269.5 c 128,-1,60
 1316 319 1316 319 1295 385.5 c 128,-1,61
 1274 452 1274 452 1274 525 c 0,42,43
1392 533 m 0,62,63
 1392 470 1392 470 1404.5 417 c 128,-1,64
 1417 364 1417 364 1441.5 325 c 128,-1,65
 1466 286 1466 286 1502 264.5 c 128,-1,66
 1538 243 1538 243 1585 243 c 0,67,68
 1631 243 1631 243 1669 262 c 128,-1,69
 1707 281 1707 281 1734 317.5 c 128,-1,70
 1761 354 1761 354 1775.5 407 c 128,-1,71
 1790 460 1790 460 1790 527 c 0,72,73
 1790 593 1790 593 1777.5 647.5 c 128,-1,74
 1765 702 1765 702 1740.5 740.5 c 128,-1,75
 1716 779 1716 779 1680 800 c 128,-1,76
 1644 821 1644 821 1596 821 c 0,77,78
 1549 821 1549 821 1511 801 c 128,-1,79
 1473 781 1473 781 1446.5 743.5 c 128,-1,80
 1420 706 1420 706 1406 652.5 c 128,-1,81
 1392 599 1392 599 1392 533 c 0,62,63
EndSplineSet
EndChar

StartChar: dotlessi
Encoding: 305 305 130
Width: 665
Flags: W
LayerCount: 2
Fore
SplineSet
117 66 m 1,0,-1
 282 83 l 1,1,-1
 282 975 l 1,2,-1
 137 1022 l 1,3,-1
 137 1073 l 1,4,-1
 380 1133 l 1,5,-1
 417 1114 l 1,6,-1
 417 83 l 1,7,-1
 584 66 l 1,8,-1
 584 0 l 1,9,-1
 117 0 l 1,10,-1
 117 66 l 1,0,-1
EndSplineSet
EndChar

StartChar: oslash
Encoding: 248 248 131
Width: 1237
Flags: W
LayerCount: 2
Fore
SplineSet
406 12 m 1,0,1
 325 45 325 45 267 103.5 c 128,-1,2
 209 162 209 162 172.5 237.5 c 128,-1,3
 136 313 136 313 119.5 401 c 128,-1,4
 103 489 103 489 104 582 c 0,5,6
 106 714 106 714 150 819.5 c 128,-1,7
 194 925 194 925 266.5 998.5 c 128,-1,8
 339 1072 339 1072 435 1111.5 c 128,-1,9
 531 1151 531 1151 636 1152 c 0,10,11
 719 1152 719 1152 785 1133 c 1,12,-1
 842 1300 l 1,13,-1
 906 1275 l 1,14,-1
 851 1110 l 1,15,16
 925 1076 925 1076 978.5 1020 c 128,-1,17
 1032 964 1032 964 1066.5 892.5 c 128,-1,18
 1101 821 1101 821 1117.5 739.5 c 128,-1,19
 1134 658 1134 658 1133 573 c 0,20,21
 1132 442 1132 442 1091.5 332 c 128,-1,22
 1051 222 1051 222 981 143 c 128,-1,23
 911 64 911 64 816 19.5 c 128,-1,24
 721 -25 721 -25 611 -25 c 0,25,26
 538 -25 538 -25 477 -10 c 1,27,-1
 416 -195 l 1,28,-1
 345 -169 l 1,29,-1
 406 12 l 1,0,1
756 1045 m 1,30,31
 699 1071 699 1071 626 1072 c 0,32,33
 539 1073 539 1073 470.5 1040.5 c 128,-1,34
 402 1008 402 1008 354 946 c 128,-1,35
 306 884 306 884 280.5 794 c 128,-1,36
 255 704 255 704 255 591 c 0,37,38
 255 515 255 515 266 443.5 c 128,-1,39
 277 372 277 372 299.5 310 c 128,-1,40
 322 248 322 248 357 197.5 c 128,-1,41
 392 147 392 147 441 114 c 1,42,-1
 756 1045 l 1,30,31
507 80 m 1,43,44
 558 61 558 61 618 60 c 0,45,46
 702 58 702 58 769.5 90 c 128,-1,47
 837 122 837 122 884 185.5 c 128,-1,48
 931 249 931 249 956.5 344 c 128,-1,49
 982 439 982 439 982 564 c 0,50,51
 982 634 982 634 972.5 700 c 128,-1,52
 963 766 963 766 943 823.5 c 128,-1,53
 923 881 923 881 891.5 928.5 c 128,-1,54
 860 976 860 976 817 1009 c 1,55,-1
 507 80 l 1,43,44
EndSplineSet
EndChar

StartChar: fi
Encoding: 64257 64257 132
Width: 1507
Flags: W
LayerCount: 2
Fore
SplineSet
124 66 m 1,0,-1
 328 83 l 1,1,-1
 328 1011 l 1,2,-1
 102 1011 l 1,3,-1
 102 1069 l 1,4,-1
 328 1112 l 1,5,-1
 328 1205 l 2,6,7
 328 1280 328 1280 345 1344 c 128,-1,8
 362 1408 362 1408 391.5 1461 c 128,-1,9
 421 1514 421 1514 460.5 1555 c 128,-1,10
 500 1596 500 1596 544 1624.5 c 128,-1,11
 588 1653 588 1653 634.5 1667.5 c 128,-1,12
 681 1682 681 1682 725 1682 c 0,13,14
 785 1682 785 1682 816.5 1677.5 c 128,-1,15
 848 1673 848 1673 868 1665 c 1,16,-1
 868 1538 l 1,17,18
 850 1549 850 1549 806.5 1558 c 128,-1,19
 763 1567 763 1567 697 1567 c 0,20,21
 655 1567 655 1567 614 1555.5 c 128,-1,22
 573 1544 573 1544 540.5 1510.5 c 128,-1,23
 508 1477 508 1477 488.5 1416.5 c 128,-1,24
 469 1356 469 1356 469 1259 c 2,25,-1
 469 1113 l 1,26,-1
 798 1113 l 1,27,-1
 798 1011 l 1,28,-1
 469 1011 l 1,29,-1
 469 83 l 1,30,-1
 711 66 l 1,31,-1
 711 0 l 1,32,-1
 124 0 l 1,33,-1
 124 66 l 1,0,-1
1164 1437 m 0,34,35
 1145 1437 1145 1437 1127.5 1443.5 c 128,-1,36
 1110 1450 1110 1450 1096.5 1462.5 c 128,-1,37
 1083 1475 1083 1475 1075 1492.5 c 128,-1,38
 1067 1510 1067 1510 1067 1532 c 0,39,40
 1067 1556 1067 1556 1077 1576.5 c 128,-1,41
 1087 1597 1087 1597 1103.5 1612.5 c 128,-1,42
 1120 1628 1120 1628 1140.5 1636.5 c 128,-1,43
 1161 1645 1161 1645 1182 1645 c 0,44,45
 1233 1645 1233 1645 1256.5 1617 c 128,-1,46
 1280 1589 1280 1589 1280 1549 c 0,47,48
 1280 1523 1280 1523 1270 1502.5 c 128,-1,49
 1260 1482 1260 1482 1243.5 1467.5 c 128,-1,50
 1227 1453 1227 1453 1206.5 1445 c 128,-1,51
 1186 1437 1186 1437 1164 1437 c 0,34,35
966 66 m 1,52,-1
 1130 83 l 1,53,-1
 1130 975 l 1,54,-1
 986 1022 l 1,55,-1
 986 1073 l 1,56,-1
 1228 1133 l 1,57,-1
 1266 1114 l 1,58,-1
 1266 83 l 1,59,-1
 1433 66 l 1,60,-1
 1433 0 l 1,61,-1
 966 0 l 1,62,-1
 966 66 l 1,52,-1
EndSplineSet
Ligature2: "'dlig' Discretionary Ligatures in Latin lookup 0 subtable" f i
EndChar

StartChar: fl
Encoding: 64258 64258 133
Width: 1507
Flags: W
LayerCount: 2
Fore
SplineSet
124 66 m 1,0,-1
 328 83 l 1,1,-1
 328 1011 l 1,2,-1
 102 1011 l 1,3,-1
 102 1069 l 1,4,-1
 328 1112 l 1,5,-1
 328 1205 l 2,6,7
 328 1280 328 1280 345 1344 c 128,-1,8
 362 1408 362 1408 391.5 1461 c 128,-1,9
 421 1514 421 1514 460.5 1555 c 128,-1,10
 500 1596 500 1596 544 1624.5 c 128,-1,11
 588 1653 588 1653 634.5 1667.5 c 128,-1,12
 681 1682 681 1682 725 1682 c 0,13,14
 785 1682 785 1682 816.5 1677.5 c 128,-1,15
 848 1673 848 1673 868 1665 c 1,16,-1
 868 1538 l 1,17,18
 850 1549 850 1549 806.5 1558 c 128,-1,19
 763 1567 763 1567 697 1567 c 0,20,21
 655 1567 655 1567 614 1555.5 c 128,-1,22
 573 1544 573 1544 540.5 1510.5 c 128,-1,23
 508 1477 508 1477 488.5 1416.5 c 128,-1,24
 469 1356 469 1356 469 1259 c 2,25,-1
 469 1113 l 1,26,-1
 798 1113 l 1,27,-1
 798 1011 l 1,28,-1
 469 1011 l 1,29,-1
 469 83 l 1,30,-1
 711 66 l 1,31,-1
 711 0 l 1,32,-1
 124 0 l 1,33,-1
 124 66 l 1,0,-1
988 66 m 1,34,-1
 1155 83 l 1,35,-1
 1155 1499 l 1,36,-1
 991 1522 l 1,37,-1
 991 1590 l 1,38,-1
 1261 1623 l 1,39,-1
 1295 1602 l 1,40,-1
 1295 83 l 1,41,-1
 1470 66 l 1,42,-1
 1470 0 l 1,43,-1
 988 0 l 1,44,-1
 988 66 l 1,34,-1
EndSplineSet
Ligature2: "'dlig' Discretionary Ligatures in Latin lookup 0 subtable" f l
EndChar

StartChar: ordfeminine
Encoding: 170 170 134
Width: 1063
Flags: W
LayerCount: 2
Fore
SplineSet
383 687 m 0,0,1
 346 687 346 687 302.5 700 c 128,-1,2
 259 713 259 713 221 741.5 c 128,-1,3
 183 770 183 770 157.5 814.5 c 128,-1,4
 132 859 132 859 132 922 c 0,5,6
 132 983 132 983 161.5 1027.5 c 128,-1,7
 191 1072 191 1072 239.5 1103 c 128,-1,8
 288 1134 288 1134 350.5 1154 c 128,-1,9
 413 1174 413 1174 478.5 1185 c 128,-1,10
 544 1196 544 1196 607 1199.5 c 128,-1,11
 670 1203 670 1203 721 1203 c 1,12,-1
 721 1257 l 2,13,14
 721 1320 721 1320 703 1358 c 128,-1,15
 685 1396 685 1396 652.5 1417 c 128,-1,16
 620 1438 620 1438 575.5 1445 c 128,-1,17
 531 1452 531 1452 478 1452 c 0,18,19
 438 1452 438 1452 398 1447 c 128,-1,20
 358 1442 358 1442 322 1432.5 c 128,-1,21
 286 1423 286 1423 256.5 1409.5 c 128,-1,22
 227 1396 227 1396 207 1380 c 1,23,-1
 177 1448 l 1,24,25
 199 1468 199 1468 237 1485.5 c 128,-1,26
 275 1503 275 1503 321.5 1516 c 128,-1,27
 368 1529 368 1529 419 1536.5 c 128,-1,28
 470 1544 470 1544 518 1544 c 0,29,30
 590 1544 590 1544 651.5 1533 c 128,-1,31
 713 1522 713 1522 758 1490 c 128,-1,32
 803 1458 803 1458 828.5 1398 c 128,-1,33
 854 1338 854 1338 854 1241 c 2,34,-1
 852 765 l 1,35,-1
 939 765 l 1,36,-1
 939 709 l 1,37,38
 929 704 929 704 911 699 c 128,-1,39
 893 694 893 694 872.5 690 c 128,-1,40
 852 686 852 686 832 683.5 c 128,-1,41
 812 681 812 681 797 681 c 0,42,43
 780 681 780 681 766.5 683.5 c 128,-1,44
 753 686 753 686 744 694 c 128,-1,45
 735 702 735 702 730 716.5 c 128,-1,46
 725 731 725 731 725 754 c 2,47,-1
 725 794 l 1,48,49
 706 780 706 780 677.5 761.5 c 128,-1,50
 649 743 649 743 607.5 726.5 c 128,-1,51
 566 710 566 710 511 698.5 c 128,-1,52
 456 687 456 687 383 687 c 0,0,1
437 776 m 0,53,54
 483 776 483 776 526.5 783.5 c 128,-1,55
 570 791 570 791 607 803 c 128,-1,56
 644 815 644 815 672.5 830.5 c 128,-1,57
 701 846 701 846 719 863 c 1,58,-1
 720 1132 l 1,59,60
 678 1132 678 1132 628.5 1129 c 128,-1,61
 579 1126 579 1126 529 1118.5 c 128,-1,62
 479 1111 479 1111 432.5 1098 c 128,-1,63
 386 1085 386 1085 350 1064 c 128,-1,64
 314 1043 314 1043 292.5 1014 c 128,-1,65
 271 985 271 985 271 945 c 0,66,67
 271 911 271 911 281.5 880.5 c 128,-1,68
 292 850 292 850 313 826.5 c 128,-1,69
 334 803 334 803 365 789.5 c 128,-1,70
 396 776 396 776 437 776 c 0,53,54
EndSplineSet
EndChar

StartChar: ordmasculine
Encoding: 186 186 135
Width: 1063
Flags: W
LayerCount: 2
Fore
SplineSet
519 684 m 0,0,1
 435 684 435 684 362 712.5 c 128,-1,2
 289 741 289 741 235.5 796 c 128,-1,3
 182 851 182 851 152 931 c 128,-1,4
 122 1011 122 1011 124 1114 c 0,5,6
 126 1226 126 1226 165 1307 c 128,-1,7
 204 1388 204 1388 264 1440 c 128,-1,8
 324 1492 324 1492 397.5 1516.5 c 128,-1,9
 471 1541 471 1541 543 1542 c 0,10,11
 636 1543 636 1543 709.5 1513 c 128,-1,12
 783 1483 783 1483 834 1426.5 c 128,-1,13
 885 1370 885 1370 912 1288.5 c 128,-1,14
 939 1207 939 1207 938 1104 c 0,15,16
 937 992 937 992 897.5 912.5 c 128,-1,17
 858 833 858 833 797 782.5 c 128,-1,18
 736 732 736 732 662 708 c 128,-1,19
 588 684 588 684 519 684 c 0,0,1
520 764 m 0,20,21
 655 761 655 761 723 841.5 c 128,-1,22
 791 922 791 922 791 1092 c 0,23,24
 791 1177 791 1177 775.5 1244.5 c 128,-1,25
 760 1312 760 1312 728 1360 c 128,-1,26
 696 1408 696 1408 647.5 1434 c 128,-1,27
 599 1460 599 1460 534 1461 c 256,28,29
 469 1462 469 1462 420 1438 c 128,-1,30
 371 1414 371 1414 338 1369.5 c 128,-1,31
 305 1325 305 1325 288 1262.5 c 128,-1,32
 271 1200 271 1200 271 1124 c 0,33,34
 271 1040 271 1040 289 974 c 128,-1,35
 307 908 307 908 340 862 c 128,-1,36
 373 816 373 816 418.5 790.5 c 128,-1,37
 464 765 464 765 520 764 c 0,20,21
EndSplineSet
EndChar

StartChar: section
Encoding: 167 167 136
Width: 1229
Flags: W
LayerCount: 2
Fore
SplineSet
166 68 m 1,0,-1
 214 -133 l 1,1,2
 249 -167 249 -167 292.5 -187 c 128,-1,3
 336 -207 336 -207 382.5 -217.5 c 128,-1,4
 429 -228 429 -228 477 -231.5 c 128,-1,5
 525 -235 525 -235 569 -235 c 0,6,7
 631 -235 631 -235 695 -219 c 128,-1,8
 759 -203 759 -203 811.5 -168 c 128,-1,9
 864 -133 864 -133 897 -76 c 128,-1,10
 930 -19 930 -19 930 62 c 0,11,12
 930 131 930 131 895 182.5 c 128,-1,13
 860 234 860 234 802.5 274.5 c 128,-1,14
 745 315 745 315 671.5 348.5 c 128,-1,15
 598 382 598 382 522 415 c 128,-1,16
 446 448 446 448 372.5 483.5 c 128,-1,17
 299 519 299 519 242 565 c 128,-1,18
 185 611 185 611 150 670 c 128,-1,19
 115 729 115 729 115 808 c 0,20,21
 115 854 115 854 123 899 c 128,-1,22
 131 944 131 944 146 984 c 128,-1,23
 161 1024 161 1024 182 1059 c 128,-1,24
 203 1094 203 1094 228 1121 c 1,25,26
 183 1163 183 1163 156.5 1216 c 128,-1,27
 130 1269 130 1269 130 1338 c 0,28,29
 130 1408 130 1408 153 1464 c 128,-1,30
 176 1520 176 1520 214 1563 c 128,-1,31
 252 1606 252 1606 302 1636.5 c 128,-1,32
 352 1667 352 1667 406 1686 c 128,-1,33
 460 1705 460 1705 515 1714 c 128,-1,34
 570 1723 570 1723 618 1723 c 0,35,36
 695 1723 695 1723 757.5 1715.5 c 128,-1,37
 820 1708 820 1708 868 1696.5 c 128,-1,38
 916 1685 916 1685 951 1671 c 128,-1,39
 986 1657 986 1657 1008 1644 c 1,40,-1
 1008 1377 l 1,41,-1
 940 1377 l 1,42,-1
 883 1577 l 1,43,44
 864 1595 864 1595 834 1608 c 128,-1,45
 804 1621 804 1621 767.5 1629 c 128,-1,46
 731 1637 731 1637 690 1640.5 c 128,-1,47
 649 1644 649 1644 607 1644 c 0,48,49
 557 1644 557 1644 497.5 1630.5 c 128,-1,50
 438 1617 438 1617 386 1584.5 c 128,-1,51
 334 1552 334 1552 299.5 1498.5 c 128,-1,52
 265 1445 265 1445 265 1366 c 0,53,54
 265 1300 265 1300 300 1251 c 128,-1,55
 335 1202 335 1202 392.5 1163 c 128,-1,56
 450 1124 450 1124 523.5 1091.5 c 128,-1,57
 597 1059 597 1059 673 1026.5 c 128,-1,58
 749 994 749 994 822.5 958.5 c 128,-1,59
 896 923 896 923 953.5 877.5 c 128,-1,60
 1011 832 1011 832 1046 772.5 c 128,-1,61
 1081 713 1081 713 1081 634 c 0,62,63
 1081 587 1081 587 1074 541 c 128,-1,64
 1067 495 1067 495 1054.5 452.5 c 128,-1,65
 1042 410 1042 410 1023.5 372.5 c 128,-1,66
 1005 335 1005 335 982 306 c 1,67,68
 1020 265 1020 265 1042.5 216 c 128,-1,69
 1065 167 1065 167 1065 104 c 0,70,71
 1065 -6 1065 -6 1023.5 -85.5 c 128,-1,72
 982 -165 982 -165 911 -216 c 128,-1,73
 840 -267 840 -267 746.5 -291.5 c 128,-1,74
 653 -316 653 -316 550 -316 c 0,75,76
 475 -316 475 -316 402.5 -307.5 c 128,-1,77
 330 -299 330 -299 268.5 -286 c 128,-1,78
 207 -273 207 -273 161 -258 c 128,-1,79
 115 -243 115 -243 94 -230 c 1,80,-1
 94 68 l 1,81,-1
 166 68 l 1,0,-1
250 836 m 0,82,83
 250 774 250 774 281.5 726.5 c 128,-1,84
 313 679 313 679 365 641 c 128,-1,85
 417 603 417 603 484 572 c 128,-1,86
 551 541 551 541 623 511 c 128,-1,87
 695 481 695 481 765.5 448.5 c 128,-1,88
 836 416 836 416 896 377 c 1,89,90
 919 420 919 420 932.5 477.5 c 128,-1,91
 946 535 946 535 945 592 c 1,92,93
 945 656 945 656 915 704.5 c 128,-1,94
 885 753 885 753 834.5 792 c 128,-1,95
 784 831 784 831 718.5 863 c 128,-1,96
 653 895 653 895 582.5 925.5 c 128,-1,97
 512 956 512 956 442 987.5 c 128,-1,98
 372 1019 372 1019 312 1057 c 1,99,100
 283 1015 283 1015 266.5 957 c 128,-1,101
 250 899 250 899 250 836 c 0,82,83
EndSplineSet
EndChar

StartChar: AE
Encoding: 198 198 137
Width: 2000
Flags: W
LayerCount: 2
Fore
SplineSet
4 65 m 1,0,-1
 164 90 l 1,1,-1
 749 1524 l 1,2,-1
 1718 1524 l 1,3,-1
 1747 1239 l 1,4,-1
 1671 1237 l 1,5,-1
 1625 1433 l 1,6,-1
 900 1445 l 1,7,-1
 1083 860 l 1,8,-1
 1573 866 l 1,9,-1
 1600 1031 l 1,10,-1
 1671 1031 l 1,11,-1
 1671 611 l 1,12,-1
 1600 611 l 1,13,-1
 1573 773 l 1,14,-1
 1108 778 l 1,15,-1
 1325 83 l 1,16,-1
 1741 96 l 1,17,-1
 1830 323 l 1,18,-1
 1896 291 l 1,19,-1
 1851 0 l 1,20,-1
 985 0 l 1,21,-1
 985 66 l 1,22,-1
 1163 89 l 1,23,-1
 1048 481 l 1,24,-1
 442 481 l 1,25,-1
 289 89 l 1,26,-1
 473 65 l 1,27,-1
 473 0 l 1,28,-1
 4 0 l 1,29,-1
 4 65 l 1,0,-1
1023 569 m 1,30,-1
 839 1199 l 1,31,-1
 794 1381 l 1,32,-1
 477 569 l 1,33,-1
 1023 569 l 1,30,-1
EndSplineSet
EndChar

StartChar: dollar
Encoding: 36 36 138
Width: 1164
Flags: W
LayerCount: 2
Fore
SplineSet
94 361 m 1,0,-1
 164 361 l 1,1,-1
 212 160 l 1,2,3
 247 126 247 126 290.5 105.5 c 128,-1,4
 334 85 334 85 381.5 74.5 c 128,-1,5
 429 64 429 64 477 61 c 128,-1,6
 525 58 525 58 569 58 c 0,7,8
 631 58 631 58 695 74 c 128,-1,9
 759 90 759 90 811 125.5 c 128,-1,10
 863 161 863 161 896 218 c 128,-1,11
 929 275 929 275 929 356 c 0,12,13
 929 427 929 427 894 482 c 128,-1,14
 859 537 859 537 801.5 581 c 128,-1,15
 744 625 744 625 671 662.5 c 128,-1,16
 598 700 598 700 521.5 737.5 c 128,-1,17
 445 775 445 775 372 815 c 128,-1,18
 299 855 299 855 242 905 c 128,-1,19
 185 955 185 955 150 1017.5 c 128,-1,20
 115 1080 115 1080 115 1162 c 0,21,22
 115 1229 115 1229 135.5 1283 c 128,-1,23
 156 1337 156 1337 191.5 1379 c 128,-1,24
 227 1421 227 1421 273.5 1451.5 c 128,-1,25
 320 1482 320 1482 371 1502 c 128,-1,26
 422 1522 422 1522 475 1533 c 128,-1,27
 528 1544 528 1544 576 1546 c 1,28,-1
 582 1731 l 1,29,-1
 699 1731 l 1,30,-1
 692 1544 l 1,31,32
 807 1536 807 1536 880.5 1512.5 c 128,-1,33
 954 1489 954 1489 992 1467 c 1,34,-1
 992 1201 l 1,35,-1
 924 1201 l 1,36,-1
 867 1400 l 1,37,38
 848 1418 848 1418 818.5 1431 c 128,-1,39
 789 1444 789 1444 752 1452.5 c 128,-1,40
 715 1461 715 1461 674 1464.5 c 128,-1,41
 633 1468 633 1468 592 1468 c 0,42,43
 542 1468 542 1468 482.5 1454 c 128,-1,44
 423 1440 423 1440 371 1407.5 c 128,-1,45
 319 1375 319 1375 284.5 1321.5 c 128,-1,46
 250 1268 250 1268 250 1188 c 0,47,48
 250 1119 250 1119 285 1066.5 c 128,-1,49
 320 1014 320 1014 377.5 971.5 c 128,-1,50
 435 929 435 929 508.5 892.5 c 128,-1,51
 582 856 582 856 658 820 c 128,-1,52
 734 784 734 784 807.5 744.5 c 128,-1,53
 881 705 881 705 938 655.5 c 128,-1,54
 995 606 995 606 1030 543 c 128,-1,55
 1065 480 1065 480 1065 398 c 0,56,57
 1065 299 1065 299 1031 224.5 c 128,-1,58
 997 150 997 150 938 99 c 128,-1,59
 879 48 879 48 800 19 c 128,-1,60
 721 -10 721 -10 631 -19 c 1,61,-1
 624 -231 l 1,62,-1
 506 -231 l 1,63,-1
 513 -22 l 1,64,65
 443 -20 443 -20 376.5 -11 c 128,-1,66
 310 -2 310 -2 253.5 10 c 128,-1,67
 197 22 197 22 155.5 36.5 c 128,-1,68
 114 51 114 51 94 63 c 1,69,-1
 94 361 l 1,0,-1
EndSplineSet
EndChar

StartChar: Oslash
Encoding: 216 216 139
Width: 1554
Flags: W
LayerCount: 2
Fore
SplineSet
491 24 m 1,0,1
 396 65 396 65 320 134.5 c 128,-1,2
 244 204 244 204 192 297 c 128,-1,3
 140 390 140 390 113 502.5 c 128,-1,4
 86 615 86 615 89 742 c 0,5,6
 93 931 93 931 151 1077 c 128,-1,7
 209 1223 209 1223 306 1323.5 c 128,-1,8
 403 1424 403 1424 530.5 1476.5 c 128,-1,9
 658 1529 658 1529 800 1532 c 0,10,11
 905 1534 905 1534 997 1508 c 1,12,-1
 1057 1683 l 1,13,-1
 1123 1658 l 1,14,15
 1108 1614 1108 1614 1093.5 1571 c 128,-1,16
 1079 1528 1079 1528 1064 1485 c 1,17,18
 1159 1446 1159 1446 1234 1378.5 c 128,-1,19
 1309 1311 1309 1311 1360 1220 c 128,-1,20
 1411 1129 1411 1129 1437.5 1017 c 128,-1,21
 1464 905 1464 905 1461 778 c 0,22,23
 1457 589 1457 589 1401 440.5 c 128,-1,24
 1345 292 1345 292 1251.5 189 c 128,-1,25
 1158 86 1158 86 1034 30.5 c 128,-1,26
 910 -25 910 -25 770 -28 c 0,27,28
 659 -30 659 -30 563 -1 c 1,29,30
 547 -49 547 -49 531 -96.5 c 128,-1,31
 515 -144 515 -144 498 -192 c 1,32,-1
 427 -166 l 1,33,-1
 491 24 l 1,0,1
966 1416 m 1,34,35
 883 1450 883 1450 787 1450 c 0,36,37
 668 1450 668 1450 568.5 1402.5 c 128,-1,38
 469 1355 469 1355 397.5 1264 c 128,-1,39
 326 1173 326 1173 286.5 1042 c 128,-1,40
 247 911 247 911 247 743 c 0,41,42
 247 642 247 642 265.5 549 c 128,-1,43
 284 456 284 456 320 376.5 c 128,-1,44
 356 297 356 297 408 233.5 c 128,-1,45
 460 170 460 170 527 127 c 1,46,-1
 966 1416 l 1,34,35
595 91 m 1,47,48
 683 53 683 53 787 53 c 0,49,50
 904 53 904 53 999 104.5 c 128,-1,51
 1094 156 1094 156 1161.5 250.5 c 128,-1,52
 1229 345 1229 345 1266 478.5 c 128,-1,53
 1303 612 1303 612 1303 777 c 0,54,55
 1303 877 1303 877 1285.5 969.5 c 128,-1,56
 1268 1062 1268 1062 1233.5 1140.5 c 128,-1,57
 1199 1219 1199 1219 1148 1281 c 128,-1,58
 1097 1343 1097 1343 1030 1384 c 1,59,60
 921 1060 921 1060 813.5 739 c 128,-1,61
 706 418 706 418 595 91 c 1,47,48
EndSplineSet
EndChar

StartChar: Lslash
Encoding: 321 321 140
Width: 1240
Flags: W
LayerCount: 2
Fore
SplineSet
102 65 m 1,0,-1
 282 90 l 1,1,-1
 282 606 l 1,2,-1
 71 510 l 1,3,-1
 71 620 l 1,4,-1
 282 716 l 1,5,-1
 282 1414 l 1,6,-1
 105 1429 l 1,7,-1
 105 1511 l 1,8,-1
 624 1511 l 1,9,-1
 624 1429 l 1,10,-1
 427 1414 l 1,11,-1
 426 782 l 1,12,-1
 885 992 l 1,13,-1
 885 882 l 1,14,-1
 426 672 l 1,15,-1
 426 83 l 1,16,-1
 1036 103 l 1,17,-1
 1143 348 l 1,18,-1
 1210 317 l 1,19,-1
 1145 0 l 1,20,-1
 102 0 l 1,21,-1
 102 65 l 1,0,-1
EndSplineSet
EndChar

StartChar: ae
Encoding: 230 230 141
Width: 1795
Flags: W
LayerCount: 2
Fore
SplineSet
98 314 m 0,0,1
 103 383 103 383 142.5 436.5 c 128,-1,2
 182 490 182 490 241.5 529.5 c 128,-1,3
 301 569 301 569 375.5 595.5 c 128,-1,4
 450 622 450 622 525.5 637.5 c 128,-1,5
 601 653 601 653 671 658.5 c 128,-1,6
 741 664 741 664 794 661 c 1,7,-1
 794 754 l 2,8,9
 794 843 794 843 774.5 899.5 c 128,-1,10
 755 956 755 956 719 988 c 128,-1,11
 683 1020 683 1020 632 1031.5 c 128,-1,12
 581 1043 581 1043 518 1043 c 0,13,14
 482 1043 482 1043 431.5 1033 c 128,-1,15
 381 1023 381 1023 329 1006 c 128,-1,16
 277 989 277 989 228 966.5 c 128,-1,17
 179 944 179 944 146 919 c 1,18,-1
 146 1013 l 1,19,20
 175 1033 175 1033 221.5 1055 c 128,-1,21
 268 1077 268 1077 324 1096 c 128,-1,22
 380 1115 380 1115 441.5 1127 c 128,-1,23
 503 1139 503 1139 563 1139 c 0,24,25
 621 1139 621 1139 675 1130.5 c 128,-1,26
 729 1122 729 1122 773.5 1099.5 c 128,-1,27
 818 1077 818 1077 851.5 1038 c 128,-1,28
 885 999 885 999 903 937 c 1,29,30
 970 1037 970 1037 1074 1093.5 c 128,-1,31
 1178 1150 1178 1150 1316 1152 c 0,32,33
 1399 1153 1399 1153 1466.5 1126.5 c 128,-1,34
 1534 1100 1534 1100 1582 1046.5 c 128,-1,35
 1630 993 1630 993 1657.5 915 c 128,-1,36
 1685 837 1685 837 1687 736 c 1,37,38
 1689 686 1689 686 1685.5 647 c 128,-1,39
 1682 608 1682 608 1678 576 c 1,40,-1
 925 576 l 1,41,-1
 925 566 l 1,42,43
 922 444 922 444 952 351.5 c 128,-1,44
 982 259 982 259 1037 197 c 128,-1,45
 1092 135 1092 135 1169 104 c 128,-1,46
 1246 73 1246 73 1337 73 c 0,47,48
 1380 73 1380 73 1423.5 80.5 c 128,-1,49
 1467 88 1467 88 1506.5 100 c 128,-1,50
 1546 112 1546 112 1578 126.5 c 128,-1,51
 1610 141 1610 141 1630 155 c 1,52,-1
 1661 88 l 1,53,54
 1634 62 1634 62 1591.5 40.5 c 128,-1,55
 1549 19 1549 19 1498.5 4 c 128,-1,56
 1448 -11 1448 -11 1393.5 -19.5 c 128,-1,57
 1339 -28 1339 -28 1287 -28 c 0,58,59
 1132 -28 1132 -28 1030 32.5 c 128,-1,60
 928 93 928 93 871 204 c 1,61,62
 840 154 840 154 795 112 c 128,-1,63
 750 70 750 70 692.5 40 c 128,-1,64
 635 10 635 10 564.5 -5.5 c 128,-1,65
 494 -21 494 -21 413 -18 c 0,66,67
 355 -16 355 -16 297 6.5 c 128,-1,68
 239 29 239 29 193 71 c 128,-1,69
 147 113 147 113 120 173.5 c 128,-1,70
 93 234 93 234 98 314 c 0,0,1
1537 664 m 1,71,72
 1542 748 1542 748 1532.5 822.5 c 128,-1,73
 1523 897 1523 897 1493 952 c 128,-1,74
 1463 1007 1463 1007 1410.5 1039 c 128,-1,75
 1358 1071 1358 1071 1278 1071 c 0,76,77
 1208 1071 1208 1071 1147.5 1045 c 128,-1,78
 1087 1019 1087 1019 1041 968 c 128,-1,79
 995 917 995 917 965 841 c 128,-1,80
 935 765 935 765 927 664 c 1,81,-1
 1537 664 l 1,71,72
247 305 m 0,82,83
 247 246 247 246 266 202.5 c 128,-1,84
 285 159 285 159 318 131 c 128,-1,85
 351 103 351 103 396.5 89.5 c 128,-1,86
 442 76 442 76 495 76 c 0,87,88
 546 76 546 76 597.5 92.5 c 128,-1,89
 649 109 649 109 691.5 140 c 128,-1,90
 734 171 734 171 762 214.5 c 128,-1,91
 790 258 790 258 794 312 c 1,92,-1
 794 586 l 1,93,94
 754 587 754 587 697.5 582.5 c 128,-1,95
 641 578 641 578 580 565.5 c 128,-1,96
 519 553 519 553 459.5 532 c 128,-1,97
 400 511 400 511 353 479.5 c 128,-1,98
 306 448 306 448 276.5 405 c 128,-1,99
 247 362 247 362 247 305 c 0,82,83
EndSplineSet
EndChar

StartChar: lslash
Encoding: 322 322 142
Width: 665
Flags: W
LayerCount: 2
Fore
SplineSet
130 66 m 1,0,-1
 297 83 l 1,1,-1
 297 802 l 1,2,-1
 96 718 l 1,3,-1
 96 820 l 1,4,-1
 297 907 l 1,5,-1
 297 1499 l 1,6,-1
 133 1522 l 1,7,-1
 133 1590 l 1,8,-1
 403 1623 l 1,9,-1
 437 1602 l 1,10,-1
 437 967 l 1,11,-1
 602 1039 l 1,12,-1
 602 929 l 1,13,-1
 437 860 l 1,14,-1
 437 83 l 1,15,-1
 612 66 l 1,16,-1
 612 0 l 1,17,-1
 130 0 l 1,18,-1
 130 66 l 1,0,-1
EndSplineSet
EndChar

StartChar: hyphen
Encoding: 45 45 143
Width: 1205
Flags: W
LayerCount: 2
Fore
SplineSet
160 862 m 1,0,-1
 1045 862 l 1,1,-1
 1045 754 l 1,2,-1
 160 754 l 1,3,-1
 160 862 l 1,0,-1
EndSplineSet
EndChar

StartChar: brokenbar
Encoding: 166 166 144
Width: 873
Flags: W
LayerCount: 2
Fore
SplineSet
357 1780 m 1,0,-1
 488 1780 l 1,1,-1
 488 886 l 1,2,-1
 357 886 l 1,3,-1
 357 1780 l 1,0,-1
357 708 m 1,4,-1
 488 708 l 1,5,-1
 488 -186 l 1,6,-1
 357 -186 l 1,7,-1
 357 708 l 1,4,-1
EndSplineSet
EndChar

StartChar: copyright
Encoding: 169 169 145
Width: 1940
Flags: W
LayerCount: 2
Fore
SplineSet
974 219 m 256,0,1
 859 219 859 219 751.5 250 c 128,-1,2
 644 281 644 281 550 337.5 c 128,-1,3
 456 394 456 394 379 472 c 128,-1,4
 302 550 302 550 247 644.5 c 128,-1,5
 192 739 192 739 161.5 846.5 c 128,-1,6
 131 954 131 954 131 1069 c 256,7,8
 131 1184 131 1184 161.5 1292 c 128,-1,9
 192 1400 192 1400 247 1495 c 128,-1,10
 302 1590 302 1590 379 1668 c 128,-1,11
 456 1746 456 1746 550 1802 c 128,-1,12
 644 1858 644 1858 751 1889 c 128,-1,13
 858 1920 858 1920 974 1920 c 0,14,15
 1089 1920 1089 1920 1196 1889 c 128,-1,16
 1303 1858 1303 1858 1396.5 1802 c 128,-1,17
 1490 1746 1490 1746 1567 1668 c 128,-1,18
 1644 1590 1644 1590 1699 1495.5 c 128,-1,19
 1754 1401 1754 1401 1784.5 1293 c 128,-1,20
 1815 1185 1815 1185 1815 1069 c 0,21,22
 1815 954 1815 954 1784.5 846.5 c 128,-1,23
 1754 739 1754 739 1699 644.5 c 128,-1,24
 1644 550 1644 550 1567 472 c 128,-1,25
 1490 394 1490 394 1396.5 337.5 c 128,-1,26
 1303 281 1303 281 1196 250 c 128,-1,27
 1089 219 1089 219 974 219 c 256,0,1
974 312 m 256,28,29
 1077 312 1077 312 1171.5 339.5 c 128,-1,30
 1266 367 1266 367 1348 417 c 128,-1,31
 1430 467 1430 467 1497.5 536.5 c 128,-1,32
 1565 606 1565 606 1613 690.5 c 128,-1,33
 1661 775 1661 775 1687 870.5 c 128,-1,34
 1713 966 1713 966 1713 1069 c 256,35,36
 1713 1172 1713 1172 1687 1268 c 128,-1,37
 1661 1364 1661 1364 1613 1448 c 128,-1,38
 1565 1532 1565 1532 1497.5 1602 c 128,-1,39
 1430 1672 1430 1672 1348 1722 c 128,-1,40
 1266 1772 1266 1772 1171.5 1799.5 c 128,-1,41
 1077 1827 1077 1827 974 1827 c 256,42,43
 871 1827 871 1827 776 1799.5 c 128,-1,44
 681 1772 681 1772 598.5 1722 c 128,-1,45
 516 1672 516 1672 448.5 1602 c 128,-1,46
 381 1532 381 1532 333 1448 c 128,-1,47
 285 1364 285 1364 259 1268 c 128,-1,48
 233 1172 233 1172 233 1069 c 256,49,50
 233 966 233 966 259 870.5 c 128,-1,51
 285 775 285 775 333 690.5 c 128,-1,52
 381 606 381 606 448.5 536.5 c 128,-1,53
 516 467 516 467 598.5 417 c 128,-1,54
 681 367 681 367 776 339.5 c 128,-1,55
 871 312 871 312 974 312 c 256,28,29
983 584 m 0,56,57
 872 584 872 584 788.5 619.5 c 128,-1,58
 705 655 705 655 649 718.5 c 128,-1,59
 593 782 593 782 564.5 869.5 c 128,-1,60
 536 957 536 957 536 1061 c 0,61,62
 536 1131 536 1131 554.5 1195.5 c 128,-1,63
 573 1260 573 1260 605 1315.5 c 128,-1,64
 637 1371 637 1371 680 1417 c 128,-1,65
 723 1463 723 1463 772 1496.5 c 128,-1,66
 821 1530 821 1530 874 1549.5 c 128,-1,67
 927 1569 927 1569 979 1573 c 0,68,69
 1051 1578 1051 1578 1107 1573 c 128,-1,70
 1163 1568 1163 1568 1203 1558 c 128,-1,71
 1243 1548 1243 1548 1266 1535.5 c 128,-1,72
 1289 1523 1289 1523 1297 1514 c 1,73,-1
 1297 1322 l 1,74,-1
 1208 1322 l 1,75,-1
 1169 1451 l 1,76,77
 1158 1458 1158 1458 1143 1465.5 c 128,-1,78
 1128 1473 1128 1473 1106.5 1478.5 c 128,-1,79
 1085 1484 1085 1484 1054 1487 c 128,-1,80
 1023 1490 1023 1490 979 1490 c 0,81,82
 911 1489 911 1489 855 1458.5 c 128,-1,83
 799 1428 799 1428 758 1375 c 128,-1,84
 717 1322 717 1322 694.5 1250.5 c 128,-1,85
 672 1179 672 1179 672 1096 c 0,86,87
 672 1010 672 1010 696.5 935.5 c 128,-1,88
 721 861 721 861 768 805 c 128,-1,89
 815 749 815 749 883.5 717 c 128,-1,90
 952 685 952 685 1039 685 c 0,91,92
 1078 685 1078 685 1116.5 693.5 c 128,-1,93
 1155 702 1155 702 1188.5 714.5 c 128,-1,94
 1222 727 1222 727 1247 741 c 128,-1,95
 1272 755 1272 755 1284 766 c 1,96,-1
 1307 706 l 1,97,98
 1286 682 1286 682 1252.5 659.5 c 128,-1,99
 1219 637 1219 637 1177 620.5 c 128,-1,100
 1135 604 1135 604 1085.5 594 c 128,-1,101
 1036 584 1036 584 983 584 c 0,56,57
EndSplineSet
EndChar

StartChar: registered
Encoding: 174 174 146
Width: 1940
Flags: W
LayerCount: 2
Fore
SplineSet
974 219 m 256,0,1
 859 219 859 219 751.5 250 c 128,-1,2
 644 281 644 281 550 337.5 c 128,-1,3
 456 394 456 394 379 472 c 128,-1,4
 302 550 302 550 247 644.5 c 128,-1,5
 192 739 192 739 161.5 846.5 c 128,-1,6
 131 954 131 954 131 1069 c 256,7,8
 131 1184 131 1184 161.5 1292 c 128,-1,9
 192 1400 192 1400 247 1495 c 128,-1,10
 302 1590 302 1590 379 1668 c 128,-1,11
 456 1746 456 1746 550 1802 c 128,-1,12
 644 1858 644 1858 751 1889 c 128,-1,13
 858 1920 858 1920 974 1920 c 0,14,15
 1089 1920 1089 1920 1196 1889 c 128,-1,16
 1303 1858 1303 1858 1396.5 1802 c 128,-1,17
 1490 1746 1490 1746 1567 1668 c 128,-1,18
 1644 1590 1644 1590 1699 1495.5 c 128,-1,19
 1754 1401 1754 1401 1784.5 1293 c 128,-1,20
 1815 1185 1815 1185 1815 1069 c 0,21,22
 1815 954 1815 954 1784.5 846.5 c 128,-1,23
 1754 739 1754 739 1699 644.5 c 128,-1,24
 1644 550 1644 550 1567 472 c 128,-1,25
 1490 394 1490 394 1396.5 337.5 c 128,-1,26
 1303 281 1303 281 1196 250 c 128,-1,27
 1089 219 1089 219 974 219 c 256,0,1
974 312 m 256,28,29
 1077 312 1077 312 1171.5 339.5 c 128,-1,30
 1266 367 1266 367 1348 417 c 128,-1,31
 1430 467 1430 467 1497.5 536.5 c 128,-1,32
 1565 606 1565 606 1613 690.5 c 128,-1,33
 1661 775 1661 775 1687 870.5 c 128,-1,34
 1713 966 1713 966 1713 1069 c 256,35,36
 1713 1172 1713 1172 1687 1268 c 128,-1,37
 1661 1364 1661 1364 1613 1448 c 128,-1,38
 1565 1532 1565 1532 1497.5 1602 c 128,-1,39
 1430 1672 1430 1672 1348 1722 c 128,-1,40
 1266 1772 1266 1772 1171.5 1799.5 c 128,-1,41
 1077 1827 1077 1827 974 1827 c 256,42,43
 871 1827 871 1827 776 1799.5 c 128,-1,44
 681 1772 681 1772 598.5 1722 c 128,-1,45
 516 1672 516 1672 448.5 1602 c 128,-1,46
 381 1532 381 1532 333 1448 c 128,-1,47
 285 1364 285 1364 259 1268 c 128,-1,48
 233 1172 233 1172 233 1069 c 256,49,50
 233 966 233 966 259 870.5 c 128,-1,51
 285 775 285 775 333 690.5 c 128,-1,52
 381 606 381 606 448.5 536.5 c 128,-1,53
 516 467 516 467 598.5 417 c 128,-1,54
 681 367 681 367 776 339.5 c 128,-1,55
 871 312 871 312 974 312 c 256,28,29
593 656 m 1,56,-1
 695 681 l 1,57,-1
 695 1458 l 1,58,-1
 593 1480 l 1,59,-1
 593 1553 l 1,60,-1
 739 1553 l 1,61,62
 769 1552 769 1552 790.5 1552.5 c 128,-1,63
 812 1553 812 1553 838.5 1554.5 c 128,-1,64
 865 1556 865 1556 902.5 1557.5 c 128,-1,65
 940 1559 940 1559 1003 1560 c 1,66,67
 1088 1560 1088 1560 1151.5 1543 c 128,-1,68
 1215 1526 1215 1526 1257 1494.5 c 128,-1,69
 1299 1463 1299 1463 1320 1419 c 128,-1,70
 1341 1375 1341 1375 1343 1322 c 1,71,72
 1343 1277 1343 1277 1332.5 1230.5 c 128,-1,73
 1322 1184 1322 1184 1293 1142.5 c 128,-1,74
 1264 1101 1264 1101 1213 1069.5 c 128,-1,75
 1162 1038 1162 1038 1081 1024 c 1,76,77
 1126 999 1126 999 1158 962.5 c 128,-1,78
 1190 926 1190 926 1215 886 c 128,-1,79
 1240 846 1240 846 1261.5 806 c 128,-1,80
 1283 766 1283 766 1307 734.5 c 128,-1,81
 1331 703 1331 703 1360 683 c 128,-1,82
 1389 663 1389 663 1430 663 c 1,83,-1
 1430 590 l 1,84,-1
 1314 590 l 2,85,86
 1267 590 1267 590 1236 615 c 128,-1,87
 1205 640 1205 640 1181.5 679.5 c 128,-1,88
 1158 719 1158 719 1137.5 767 c 128,-1,89
 1117 815 1117 815 1092.5 861.5 c 128,-1,90
 1068 908 1068 908 1035 947 c 128,-1,91
 1002 986 1002 986 952 1007 c 1,92,93
 922 1007 922 1007 891.5 1006.5 c 128,-1,94
 861 1006 861 1006 829 1007 c 1,95,-1
 829 678 l 1,96,-1
 941 656 l 1,97,-1
 941 591 l 1,98,-1
 593 591 l 1,99,-1
 593 656 l 1,56,-1
829 1087 m 1,100,101
 864 1082 864 1082 900.5 1080.5 c 128,-1,102
 937 1079 937 1079 988 1080 c 0,103,104
 1039 1080 1039 1080 1080 1097 c 128,-1,105
 1121 1114 1121 1114 1149.5 1142.5 c 128,-1,106
 1178 1171 1178 1171 1193.5 1208 c 128,-1,107
 1209 1245 1209 1245 1209 1285 c 0,108,109
 1209 1337 1209 1337 1191 1374 c 128,-1,110
 1173 1411 1173 1411 1142.5 1434.5 c 128,-1,111
 1112 1458 1112 1458 1071 1469 c 128,-1,112
 1030 1480 1030 1480 984 1480 c 0,113,114
 964 1480 964 1480 946.5 1480 c 128,-1,115
 929 1480 929 1480 911 1479 c 128,-1,116
 893 1478 893 1478 873.5 1475.5 c 128,-1,117
 854 1473 854 1473 829 1468 c 1,118,-1
 829 1087 l 1,100,101
EndSplineSet
EndChar

StartChar: macron
Encoding: 175 175 147
Width: 959
Flags: W
LayerCount: 2
Fore
SplineSet
214 1584 m 1,0,-1
 745 1584 l 1,1,-1
 745 1469 l 1,2,-1
 214 1469 l 1,3,-1
 214 1584 l 1,0,-1
EndSplineSet
EndChar

StartChar: degree
Encoding: 176 176 148
Width: 708
Flags: W
LayerCount: 2
Fore
SplineSet
353 1052 m 0,0,1
 288 1052 288 1052 230 1077 c 128,-1,2
 172 1102 172 1102 128.5 1145 c 128,-1,3
 85 1188 85 1188 60 1245.5 c 128,-1,4
 35 1303 35 1303 35 1368 c 256,5,6
 35 1433 35 1433 60 1490.5 c 128,-1,7
 85 1548 85 1548 128.5 1591 c 128,-1,8
 172 1634 172 1634 230 1659 c 128,-1,9
 288 1684 288 1684 353 1684 c 0,10,11
 419 1684 419 1684 477 1659 c 128,-1,12
 535 1634 535 1634 578.5 1591.5 c 128,-1,13
 622 1549 622 1549 647 1491.5 c 128,-1,14
 672 1434 672 1434 672 1368 c 0,15,16
 672 1303 672 1303 647 1245.5 c 128,-1,17
 622 1188 622 1188 578.5 1145 c 128,-1,18
 535 1102 535 1102 477 1077 c 128,-1,19
 419 1052 419 1052 353 1052 c 0,0,1
354 1139 m 256,20,21
 401 1139 401 1139 442.5 1157.5 c 128,-1,22
 484 1176 484 1176 514.5 1207.5 c 128,-1,23
 545 1239 545 1239 562.5 1280.5 c 128,-1,24
 580 1322 580 1322 580 1369 c 256,25,26
 580 1416 580 1416 562.5 1458 c 128,-1,27
 545 1500 545 1500 514.5 1531 c 128,-1,28
 484 1562 484 1562 442.5 1580 c 128,-1,29
 401 1598 401 1598 354 1598 c 256,30,31
 307 1598 307 1598 265.5 1580 c 128,-1,32
 224 1562 224 1562 193 1530.5 c 128,-1,33
 162 1499 162 1499 144.5 1457.5 c 128,-1,34
 127 1416 127 1416 127 1369 c 256,35,36
 127 1322 127 1322 144.5 1280.5 c 128,-1,37
 162 1239 162 1239 193 1207.5 c 128,-1,38
 224 1176 224 1176 265.5 1157.5 c 128,-1,39
 307 1139 307 1139 354 1139 c 256,20,21
EndSplineSet
EndChar

StartChar: plusminus
Encoding: 177 177 149
Width: 1233
Flags: W
LayerCount: 2
Fore
SplineSet
553 581 m 1,0,-1
 559 740 l 1,1,-1
 403 733 l 1,2,-1
 160 733 l 1,3,-1
 160 860 l 1,4,-1
 403 860 l 1,5,-1
 560 850 l 1,6,-1
 553 1011 l 1,7,-1
 553 1260 l 1,8,-1
 678 1260 l 1,9,-1
 678 1011 l 1,10,-1
 671 850 l 1,11,-1
 811 860 l 1,12,-1
 1073 860 l 1,13,-1
 1073 733 l 1,14,-1
 811 733 l 1,15,-1
 671 741 l 1,16,-1
 678 581 l 1,17,-1
 678 321 l 1,18,-1
 553 321 l 1,19,-1
 553 581 l 1,0,-1
173 177 m 1,20,-1
 1058 177 l 1,21,-1
 1058 68 l 1,22,-1
 173 68 l 1,23,-1
 173 177 l 1,20,-1
EndSplineSet
EndChar

StartChar: periodcentered
Encoding: 183 183 150
Width: 706
Flags: W
LayerCount: 2
Fore
SplineSet
345 708 m 0,0,1
 326 708 326 708 308.5 714.5 c 128,-1,2
 291 721 291 721 277.5 733 c 128,-1,3
 264 745 264 745 256 762.5 c 128,-1,4
 248 780 248 780 248 801 c 0,5,6
 248 824 248 824 258 844 c 128,-1,7
 268 864 268 864 284.5 879 c 128,-1,8
 301 894 301 894 321.5 902.5 c 128,-1,9
 342 911 342 911 363 911 c 0,10,11
 388 911 388 911 406.5 903.5 c 128,-1,12
 425 896 425 896 437 883 c 128,-1,13
 449 870 449 870 454.5 853 c 128,-1,14
 460 836 460 836 460 817 c 0,15,16
 460 793 460 793 450 772.5 c 128,-1,17
 440 752 440 752 424 738 c 128,-1,18
 408 724 408 724 387.5 716 c 128,-1,19
 367 708 367 708 345 708 c 0,0,1
EndSplineSet
EndChar

StartChar: multiply
Encoding: 215 215 151
Width: 1256
Flags: W
LayerCount: 2
Fore
SplineSet
192 463 m 1,0,-1
 550 799 l 1,1,-1
 195 1151 l 1,2,-1
 281 1239 l 1,3,-1
 626 874 l 1,4,-1
 967 1234 l 1,5,-1
 1058 1146 l 1,6,-1
 699 802 l 1,7,-1
 1059 443 l 1,8,-1
 973 356 l 1,9,-1
 624 725 l 1,10,-1
 283 360 l 1,11,-1
 192 463 l 1,0,-1
EndSplineSet
EndChar

StartChar: eth
Encoding: 240 240 152
Width: 1237
Flags: W
LayerCount: 2
Fore
SplineSet
106 502 m 0,0,1
 106 633 106 633 150.5 732 c 128,-1,2
 195 831 195 831 269.5 898 c 128,-1,3
 344 965 344 965 441 998.5 c 128,-1,4
 538 1032 538 1032 643 1032 c 0,5,6
 699 1032 699 1032 747 1020 c 128,-1,7
 795 1008 795 1008 834.5 987.5 c 128,-1,8
 874 967 874 967 906.5 939 c 128,-1,9
 939 911 939 911 964 879 c 1,10,11
 953 933 953 933 929.5 986.5 c 128,-1,12
 906 1040 906 1040 874.5 1090.5 c 128,-1,13
 843 1141 843 1141 807 1186.5 c 128,-1,14
 771 1232 771 1232 735.5 1271.5 c 128,-1,15
 700 1311 700 1311 669 1343 c 128,-1,16
 638 1375 638 1375 616 1397 c 1,17,-1
 447 1195 l 1,18,-1
 369 1267 l 1,19,-1
 548 1452 l 1,20,21
 495 1488 495 1488 449 1518 c 128,-1,22
 403 1548 403 1548 350 1572 c 1,23,-1
 350 1669 l 1,24,25
 430 1639 430 1639 494 1597 c 128,-1,26
 558 1555 558 1555 618 1513 c 1,27,-1
 787 1711 l 1,28,-1
 853 1638 l 1,29,-1
 690 1461 l 1,30,31
 784 1383 784 1383 865 1287.5 c 128,-1,32
 946 1192 946 1192 1005 1080 c 128,-1,33
 1064 968 1064 968 1097.5 841.5 c 128,-1,34
 1131 715 1131 715 1131 574 c 0,35,36
 1131 440 1131 440 1090.5 330.5 c 128,-1,37
 1050 221 1050 221 980 142 c 128,-1,38
 910 63 910 63 817 19 c 128,-1,39
 724 -25 724 -25 618 -27 c 0,40,41
 502 -30 502 -30 407.5 8.5 c 128,-1,42
 313 47 313 47 246 117.5 c 128,-1,43
 179 188 179 188 142.5 286.5 c 128,-1,44
 106 385 106 385 106 502 c 0,0,1
259 512 m 0,45,46
 259 423 259 423 282 340 c 128,-1,47
 305 257 305 257 351 193.5 c 128,-1,48
 397 130 397 130 467 92 c 128,-1,49
 537 54 537 54 631 54 c 0,50,51
 693 54 693 54 743 72.5 c 128,-1,52
 793 91 793 91 831.5 123 c 128,-1,53
 870 155 870 155 897.5 198 c 128,-1,54
 925 241 925 241 943.5 291.5 c 128,-1,55
 962 342 962 342 970.5 397 c 128,-1,56
 979 452 979 452 980 507 c 1,57,58
 980 590 980 590 977 671 c 1,59,60
 969 729 969 729 939 780.5 c 128,-1,61
 909 832 909 832 863.5 869.5 c 128,-1,62
 818 907 818 907 759 929 c 128,-1,63
 700 951 700 951 633 951 c 0,64,65
 543 951 543 951 473 919.5 c 128,-1,66
 403 888 403 888 355.5 830.5 c 128,-1,67
 308 773 308 773 283.5 692 c 128,-1,68
 259 611 259 611 259 512 c 0,45,46
EndSplineSet
EndChar

StartChar: logicalnot
Encoding: 172 172 153
Width: 1256
Flags: W
LayerCount: 2
Fore
SplineSet
180 700 m 1,0,-1
 1056 700 l 1,1,-1
 1056 171 l 1,2,-1
 934 171 l 1,3,-1
 934 604 l 1,4,-1
 180 604 l 1,5,-1
 180 700 l 1,0,-1
EndSplineSet
EndChar

StartChar: divide
Encoding: 247 247 155
Width: 1205
Flags: W
LayerCount: 2
Fore
SplineSet
596 1096 m 0,0,1
 578 1096 578 1096 560.5 1102.5 c 128,-1,2
 543 1109 543 1109 529.5 1121 c 128,-1,3
 516 1133 516 1133 508 1150.5 c 128,-1,4
 500 1168 500 1168 500 1189 c 0,5,6
 500 1212 500 1212 510 1232 c 128,-1,7
 520 1252 520 1252 536.5 1267 c 128,-1,8
 553 1282 553 1282 573.5 1290.5 c 128,-1,9
 594 1299 594 1299 615 1299 c 0,10,11
 666 1299 666 1299 689 1271 c 128,-1,12
 712 1243 712 1243 712 1205 c 0,13,14
 712 1181 712 1181 702 1160.5 c 128,-1,15
 692 1140 692 1140 675.5 1126 c 128,-1,16
 659 1112 659 1112 638.5 1104 c 128,-1,17
 618 1096 618 1096 596 1096 c 0,0,1
160 862 m 1,18,-1
 1045 862 l 1,19,-1
 1045 754 l 1,20,-1
 160 754 l 1,21,-1
 160 862 l 1,18,-1
500 402 m 0,22,23
 500 425 500 425 510 445 c 128,-1,24
 520 465 520 465 536.5 480 c 128,-1,25
 553 495 553 495 573.5 503.5 c 128,-1,26
 594 512 594 512 615 512 c 0,27,28
 640 512 640 512 658.5 504.5 c 128,-1,29
 677 497 677 497 689 484 c 128,-1,30
 701 471 701 471 706.5 454 c 128,-1,31
 712 437 712 437 712 418 c 0,32,33
 712 394 712 394 702 373.5 c 128,-1,34
 692 353 692 353 675.5 339 c 128,-1,35
 659 325 659 325 638.5 317 c 128,-1,36
 618 309 618 309 596 309 c 0,37,38
 578 309 578 309 560.5 315.5 c 128,-1,39
 543 322 543 322 529.5 334 c 128,-1,40
 516 346 516 346 508 363.5 c 128,-1,41
 500 381 500 381 500 402 c 0,22,23
EndSplineSet
EndChar

StartChar: double
Encoding: 65539 -1 156
Width: 886
Flags: W
LayerCount: 2
Fore
SplineSet
361 436 m 1,0,-1
 375 587 l 1,1,-1
 65 583 l 1,2,-1
 66 693 l 1,3,-1
 380 689 l 1,4,-1
 361 1002 l 1,5,-1
 375 1155 l 1,6,-1
 65 1151 l 1,7,-1
 66 1260 l 1,8,-1
 389 1256 l 1,9,-1
 372 1472 l 1,10,-1
 368 1648 l 1,11,-1
 518 1648 l 1,12,-1
 513 1472 l 1,13,-1
 496 1256 l 1,14,-1
 793 1260 l 1,15,-1
 794 1151 l 1,16,-1
 509 1155 l 1,17,-1
 523 1002 l 1,18,-1
 506 689 l 1,19,-1
 793 693 l 1,20,-1
 794 583 l 1,21,-1
 509 587 l 1,22,-1
 523 436 l 1,23,-1
 485 -295 l 1,24,-1
 399 -295 l 1,25,-1
 361 436 l 1,0,-1
EndSplineSet
EndChar

StartChar: onehalf
Encoding: 189 189 168
Width: 2626
Flags: W
LayerCount: 2
Fore
SplineSet
1528 1881 m 1,0,-1
 1634 1881 l 1,1,-1
 1008 -343 l 1,2,-1
 900 -342 l 1,3,-1
 1528 1881 l 1,0,-1
269 785 m 1,4,-1
 568 806 l 1,5,-1
 568 1550 l 1,6,7
 490 1521 490 1521 419.5 1495 c 128,-1,8
 349 1469 349 1469 272 1449 c 1,9,-1
 257 1528 l 1,10,11
 287 1537 287 1537 325.5 1552 c 128,-1,12
 364 1567 364 1567 404.5 1585.5 c 128,-1,13
 445 1604 445 1604 485.5 1624.5 c 128,-1,14
 526 1645 526 1645 560.5 1663.5 c 128,-1,15
 595 1682 595 1682 621 1698 c 128,-1,16
 647 1714 647 1714 659 1724 c 1,17,-1
 711 1709 l 1,18,-1
 709 806 l 1,19,-1
 985 785 l 1,20,-1
 985 718 l 1,21,-1
 269 718 l 1,22,-1
 269 785 l 1,4,-1
1584 72 m 1,23,24
 1722 153 1722 153 1845.5 225.5 c 128,-1,25
 1969 298 1969 298 2061 369 c 128,-1,26
 2153 440 2153 440 2207 513.5 c 128,-1,27
 2261 587 2261 587 2261 671 c 0,28,29
 2261 781 2261 781 2193 830.5 c 128,-1,30
 2125 880 2125 880 1994 880 c 0,31,32
 1947 880 1947 880 1897.5 866.5 c 128,-1,33
 1848 853 1848 853 1801.5 831 c 128,-1,34
 1755 809 1755 809 1714 780.5 c 128,-1,35
 1673 752 1673 752 1643 722 c 1,36,-1
 1602 787 l 1,37,38
 1630 823 1630 823 1678 857.5 c 128,-1,39
 1726 892 1726 892 1786 919 c 128,-1,40
 1846 946 1846 946 1913.5 962.5 c 128,-1,41
 1981 979 1981 979 2049 979 c 0,42,43
 2143 979 2143 979 2210.5 957 c 128,-1,44
 2278 935 2278 935 2321 897.5 c 128,-1,45
 2364 860 2364 860 2384.5 811.5 c 128,-1,46
 2405 763 2405 763 2405 710 c 0,47,48
 2405 643 2405 643 2381 584.5 c 128,-1,49
 2357 526 2357 526 2314 473 c 128,-1,50
 2271 420 2271 420 2210.5 371 c 128,-1,51
 2150 322 2150 322 2077 274 c 128,-1,52
 2004 226 2004 226 1919.5 178 c 128,-1,53
 1835 130 1835 130 1745 78 c 1,54,-1
 2367 109 l 1,55,-1
 2457 270 l 1,56,-1
 2522 249 l 1,57,-1
 2462 0 l 1,58,-1
 1612 0 l 1,59,-1
 1584 72 l 1,23,24
EndSplineSet
EndChar

StartChar: onequarter
Encoding: 188 188 169
Width: 2626
Flags: W
LayerCount: 2
Fore
SplineSet
1528 1881 m 1,0,-1
 1634 1881 l 1,1,-1
 1008 -343 l 1,2,-1
 900 -342 l 1,3,-1
 1528 1881 l 1,0,-1
269 785 m 1,4,-1
 568 806 l 1,5,-1
 568 1550 l 1,6,7
 490 1521 490 1521 419.5 1495 c 128,-1,8
 349 1469 349 1469 272 1449 c 1,9,-1
 257 1528 l 1,10,11
 287 1537 287 1537 325.5 1552 c 128,-1,12
 364 1567 364 1567 404.5 1585.5 c 128,-1,13
 445 1604 445 1604 485.5 1624.5 c 128,-1,14
 526 1645 526 1645 560.5 1663.5 c 128,-1,15
 595 1682 595 1682 621 1698 c 128,-1,16
 647 1714 647 1714 659 1724 c 1,17,-1
 711 1709 l 1,18,-1
 709 806 l 1,19,-1
 985 785 l 1,20,-1
 985 718 l 1,21,-1
 269 718 l 1,22,-1
 269 785 l 1,4,-1
1996 1120 m 1,23,-1
 2046 1120 l 1,24,-1
 2116 1058 l 1,25,-1
 1612 339 l 1,26,-1
 1567 268 l 1,27,-1
 2071 290 l 1,28,-1
 2073 595 l 1,29,-1
 2201 613 l 1,30,-1
 2201 295 l 1,31,-1
 2478 308 l 1,32,-1
 2480 181 l 1,33,-1
 2201 181 l 1,34,-1
 2201 -184 l 1,35,-1
 2068 -184 l 1,36,-1
 2070 181 l 1,37,-1
 1461 181 l 1,38,-1
 1436 254 l 1,39,-1
 1996 1120 l 1,23,-1
EndSplineSet
EndChar

StartChar: threequarters
Encoding: 190 190 170
Width: 2795
Flags: W
LayerCount: 2
Fore
SplineSet
1528 1881 m 1,0,-1
 1634 1881 l 1,1,-1
 1008 -343 l 1,2,-1
 900 -342 l 1,3,-1
 1528 1881 l 1,0,-1
219 787 m 1,4,5
 252 778 252 778 288 772 c 128,-1,6
 324 766 324 766 359.5 762.5 c 128,-1,7
 395 759 395 759 428 757.5 c 128,-1,8
 461 756 461 756 487 756 c 0,9,10
 569 756 569 756 632 774 c 128,-1,11
 695 792 695 792 738 824 c 128,-1,12
 781 856 781 856 803 901.5 c 128,-1,13
 825 947 825 947 825 1003 c 0,14,15
 825 1031 825 1031 813.5 1062.5 c 128,-1,16
 802 1094 802 1094 770.5 1120 c 128,-1,17
 739 1146 739 1146 684.5 1162.5 c 128,-1,18
 630 1179 630 1179 544 1178 c 1,19,-1
 369 1143 l 1,20,-1
 369 1236 l 1,21,22
 471 1251 471 1251 544.5 1274.5 c 128,-1,23
 618 1298 618 1298 665 1330 c 128,-1,24
 712 1362 712 1362 734 1401.5 c 128,-1,25
 756 1441 756 1441 756 1488 c 0,26,27
 756 1518 756 1518 742.5 1544 c 128,-1,28
 729 1570 729 1570 701 1588.5 c 128,-1,29
 673 1607 673 1607 631.5 1616.5 c 128,-1,30
 590 1626 590 1626 534 1624 c 0,31,32
 494 1622 494 1622 449 1613 c 128,-1,33
 404 1604 404 1604 361 1589.5 c 128,-1,34
 318 1575 318 1575 281 1557 c 128,-1,35
 244 1539 244 1539 221 1520 c 1,36,-1
 183 1573 l 1,37,38
 207 1593 207 1593 246 1615.5 c 128,-1,39
 285 1638 285 1638 334 1658.5 c 128,-1,40
 383 1679 383 1679 438.5 1693.5 c 128,-1,41
 494 1708 494 1708 550 1712 c 0,42,43
 640 1719 640 1719 706 1707.5 c 128,-1,44
 772 1696 772 1696 815.5 1669 c 128,-1,45
 859 1642 859 1642 880 1601 c 128,-1,46
 901 1560 901 1560 901 1508 c 0,47,48
 901 1467 901 1467 885 1427 c 128,-1,49
 869 1387 869 1387 838 1352.5 c 128,-1,50
 807 1318 807 1318 760.5 1289.5 c 128,-1,51
 714 1261 714 1261 653 1243 c 1,52,53
 755 1244 755 1244 818 1222 c 128,-1,54
 881 1200 881 1200 915.5 1165 c 128,-1,55
 950 1130 950 1130 961.5 1087 c 128,-1,56
 973 1044 973 1044 973 1004 c 0,57,58
 973 932 973 932 940 871 c 128,-1,59
 907 810 907 810 846.5 766.5 c 128,-1,60
 786 723 786 723 699 698.5 c 128,-1,61
 612 674 612 674 504 675 c 0,62,63
 474 675 474 675 439 678 c 128,-1,64
 404 681 404 681 366.5 685.5 c 128,-1,65
 329 690 329 690 291.5 696.5 c 128,-1,66
 254 703 254 703 219 712 c 1,67,-1
 219 787 l 1,4,5
1996 1120 m 1,68,-1
 2046 1120 l 1,69,-1
 2116 1058 l 1,70,-1
 1612 339 l 1,71,-1
 1567 268 l 1,72,-1
 2071 290 l 1,73,-1
 2073 595 l 1,74,-1
 2201 613 l 1,75,-1
 2201 295 l 1,76,-1
 2478 308 l 1,77,-1
 2480 181 l 1,78,-1
 2201 181 l 1,79,-1
 2201 -184 l 1,80,-1
 2068 -184 l 1,81,-1
 2070 181 l 1,82,-1
 1460 181 l 1,83,-1
 1436 254 l 1,84,-1
 1996 1120 l 1,68,-1
EndSplineSet
EndChar

StartChar: grave.cap
Encoding: 65540 -1 171
Width: 574
Flags: W
LayerCount: 2
Fore
SplineSet
348 1587 m 1,0,1
 297 1613 297 1613 251 1644 c 128,-1,2
 205 1675 205 1675 165.5 1709 c 128,-1,3
 126 1743 126 1743 94 1777.5 c 128,-1,4
 62 1812 62 1812 40 1845 c 1,5,-1
 130 1920 l 1,6,-1
 396 1630 l 1,7,-1
 348 1587 l 1,8,-1
 348 1587 l 1,0,1
EndSplineSet
EndChar

StartChar: dieresis.cap
Encoding: 65541 -1 172
Width: 886
Flags: W
LayerCount: 2
Fore
SplineSet
663 1692 m 0,0,1
 644 1692 644 1692 626.5 1698.5 c 128,-1,2
 609 1705 609 1705 595.5 1717 c 128,-1,3
 582 1729 582 1729 574 1746.5 c 128,-1,4
 566 1764 566 1764 566 1785 c 0,5,6
 566 1808 566 1808 576 1828 c 128,-1,7
 586 1848 586 1848 602.5 1863 c 128,-1,8
 619 1878 619 1878 639.5 1886.5 c 128,-1,9
 660 1895 660 1895 681 1895 c 0,10,11
 706 1895 706 1895 724.5 1887.5 c 128,-1,12
 743 1880 743 1880 755 1867 c 128,-1,13
 767 1854 767 1854 773 1837.5 c 128,-1,14
 779 1821 779 1821 779 1802 c 0,15,16
 779 1778 779 1778 769 1757.5 c 128,-1,17
 759 1737 759 1737 742.5 1722.5 c 128,-1,18
 726 1708 726 1708 705.5 1700 c 128,-1,19
 685 1692 685 1692 663 1692 c 0,0,1
207 1693 m 0,20,21
 188 1693 188 1693 170.5 1699.5 c 128,-1,22
 153 1706 153 1706 139.5 1718 c 128,-1,23
 126 1730 126 1730 118 1747 c 128,-1,24
 110 1764 110 1764 110 1786 c 0,25,26
 110 1809 110 1809 120 1829 c 128,-1,27
 130 1849 130 1849 146.5 1863.5 c 128,-1,28
 163 1878 163 1878 183.5 1886.5 c 128,-1,29
 204 1895 204 1895 225 1895 c 0,30,31
 250 1895 250 1895 268.5 1887.5 c 128,-1,32
 287 1880 287 1880 299 1867 c 128,-1,33
 311 1854 311 1854 316.5 1837.5 c 128,-1,34
 322 1821 322 1821 322 1802 c 0,35,36
 322 1778 322 1778 312 1757.5 c 128,-1,37
 302 1737 302 1737 286 1723 c 128,-1,38
 270 1709 270 1709 249.5 1701 c 128,-1,39
 229 1693 229 1693 207 1693 c 0,20,21
EndSplineSet
EndChar

StartChar: onesuperior
Encoding: 185 185 173
Width: 1085
Flags: W
LayerCount: 2
Fore
SplineSet
269 785 m 1,0,-1
 568 806 l 1,1,-1
 568 1550 l 1,2,3
 490 1521 490 1521 419.5 1495 c 128,-1,4
 349 1469 349 1469 272 1449 c 1,5,-1
 257 1528 l 1,6,7
 287 1537 287 1537 325.5 1552 c 128,-1,8
 364 1567 364 1567 404.5 1585.5 c 128,-1,9
 445 1604 445 1604 485.5 1624.5 c 128,-1,10
 526 1645 526 1645 560.5 1663.5 c 128,-1,11
 595 1682 595 1682 621 1698 c 128,-1,12
 647 1714 647 1714 659 1724 c 1,13,-1
 711 1709 l 1,14,-1
 709 806 l 1,15,-1
 985 785 l 1,16,-1
 985 718 l 1,17,-1
 269 718 l 1,18,-1
 269 785 l 1,0,-1
EndSplineSet
EndChar

StartChar: twosuperior
Encoding: 178 178 174
Width: 1256
Flags: W
LayerCount: 2
Fore
SplineSet
187 792 m 1,0,1
 325 873 325 873 445 950 c 128,-1,2
 565 1027 565 1027 654.5 1103 c 128,-1,3
 744 1179 744 1179 795 1256 c 128,-1,4
 846 1333 846 1333 846 1415 c 0,5,6
 846 1457 846 1457 832 1493 c 128,-1,7
 818 1529 818 1529 788 1556 c 128,-1,8
 758 1583 758 1583 710 1597.5 c 128,-1,9
 662 1612 662 1612 593 1610 c 0,10,11
 539 1608 539 1608 487 1593 c 128,-1,12
 435 1578 435 1578 387.5 1554.5 c 128,-1,13
 340 1531 340 1531 299 1502 c 128,-1,14
 258 1473 258 1473 228 1443 c 1,15,-1
 187 1520 l 1,16,17
 215 1555 215 1555 260.5 1589.5 c 128,-1,18
 306 1624 306 1624 363.5 1651 c 128,-1,19
 421 1678 421 1678 488 1695 c 128,-1,20
 555 1712 555 1712 626 1712 c 0,21,22
 719 1712 719 1712 788 1690 c 128,-1,23
 857 1668 857 1668 902 1630.5 c 128,-1,24
 947 1593 947 1593 968.5 1542.5 c 128,-1,25
 990 1492 990 1492 989 1434 c 0,26,27
 988 1338 988 1338 941.5 1256 c 128,-1,28
 895 1174 895 1174 812.5 1098 c 128,-1,29
 730 1022 730 1022 616.5 948.5 c 128,-1,30
 503 875 503 875 369 797 c 1,31,-1
 965 836 l 1,32,-1
 1050 1016 l 1,33,-1
 1115 995 l 1,34,-1
 1047 720 l 1,35,-1
 221 720 l 1,36,-1
 187 792 l 1,0,1
EndSplineSet
EndChar

StartChar: threesuperior
Encoding: 179 179 175
Width: 1063
Flags: W
LayerCount: 2
Fore
SplineSet
219 787 m 1,0,1
 252 778 252 778 288 772 c 128,-1,2
 324 766 324 766 359.5 762.5 c 128,-1,3
 395 759 395 759 428 757.5 c 128,-1,4
 461 756 461 756 487 756 c 0,5,6
 569 756 569 756 632 774 c 128,-1,7
 695 792 695 792 738 824 c 128,-1,8
 781 856 781 856 803 901.5 c 128,-1,9
 825 947 825 947 825 1003 c 0,10,11
 825 1031 825 1031 813.5 1062.5 c 128,-1,12
 802 1094 802 1094 770.5 1120 c 128,-1,13
 739 1146 739 1146 684.5 1162.5 c 128,-1,14
 630 1179 630 1179 544 1178 c 1,15,-1
 369 1143 l 1,16,-1
 369 1236 l 1,17,18
 471 1251 471 1251 544.5 1274.5 c 128,-1,19
 618 1298 618 1298 665 1330 c 128,-1,20
 712 1362 712 1362 734 1401.5 c 128,-1,21
 756 1441 756 1441 756 1488 c 0,22,23
 756 1518 756 1518 742.5 1544 c 128,-1,24
 729 1570 729 1570 701 1588.5 c 128,-1,25
 673 1607 673 1607 631.5 1616.5 c 128,-1,26
 590 1626 590 1626 534 1624 c 0,27,28
 494 1622 494 1622 449 1613 c 128,-1,29
 404 1604 404 1604 361 1589.5 c 128,-1,30
 318 1575 318 1575 281 1557 c 128,-1,31
 244 1539 244 1539 221 1520 c 1,32,-1
 183 1573 l 1,33,34
 207 1593 207 1593 246 1615.5 c 128,-1,35
 285 1638 285 1638 334 1658.5 c 128,-1,36
 383 1679 383 1679 438.5 1693.5 c 128,-1,37
 494 1708 494 1708 550 1712 c 0,38,39
 640 1719 640 1719 706 1707.5 c 128,-1,40
 772 1696 772 1696 815.5 1669 c 128,-1,41
 859 1642 859 1642 880 1601 c 128,-1,42
 901 1560 901 1560 901 1508 c 0,43,44
 901 1467 901 1467 885 1427 c 128,-1,45
 869 1387 869 1387 838 1352.5 c 128,-1,46
 807 1318 807 1318 760.5 1289.5 c 128,-1,47
 714 1261 714 1261 653 1243 c 1,48,49
 755 1244 755 1244 818 1222 c 128,-1,50
 881 1200 881 1200 915.5 1165 c 128,-1,51
 950 1130 950 1130 961.5 1087 c 128,-1,52
 973 1044 973 1044 973 1004 c 0,53,54
 973 932 973 932 940 871 c 128,-1,55
 907 810 907 810 846.5 766.5 c 128,-1,56
 786 723 786 723 699 698.5 c 128,-1,57
 612 674 612 674 504 675 c 0,58,59
 474 675 474 675 439 678 c 128,-1,60
 404 681 404 681 366.5 685.5 c 128,-1,61
 329 690 329 690 291.5 696.5 c 128,-1,62
 254 703 254 703 219 712 c 1,63,-1
 219 787 l 1,0,1
EndSplineSet
EndChar

StartChar: commabelow
Encoding: 65542 -1 176
Width: 247
Flags: W
LayerCount: 2
Fore
SplineSet
281 0 m 1,0,1
 330 -5 330 -5 371.5 -24 c 128,-1,2
 413 -43 413 -43 443 -73 c 128,-1,3
 473 -103 473 -103 490 -141.5 c 128,-1,4
 507 -180 507 -180 508 -224 c 0,5,6
 509 -287 509 -287 483 -337.5 c 128,-1,7
 457 -388 457 -388 417 -427.5 c 128,-1,8
 377 -467 377 -467 328.5 -495 c 128,-1,9
 280 -523 280 -523 235 -540 c 1,10,-1
 194 -503 l 1,11,-1
 194 -470 l 1,12,13
 225 -458 225 -458 255.5 -437 c 128,-1,14
 286 -416 286 -416 310 -390 c 128,-1,15
 334 -364 334 -364 349 -332.5 c 128,-1,16
 364 -301 364 -301 364 -268 c 0,17,18
 364 -234 364 -234 351.5 -205.5 c 128,-1,19
 339 -177 339 -177 318.5 -156 c 128,-1,20
 298 -135 298 -135 271.5 -122.5 c 128,-1,21
 245 -110 245 -110 216 -107 c 1,22,-1
 216 -74 l 1,23,-1
 281 0 l 1,0,1
EndSplineSet
EndChar

StartChar: commaaccent
Encoding: 65543 -1 177
Width: 787
Flags: W
LayerCount: 2
Fore
SplineSet
281 0 m 1,0,1
 330 -5 330 -5 371.5 -24 c 128,-1,2
 413 -43 413 -43 443 -73 c 128,-1,3
 473 -103 473 -103 490 -141.5 c 128,-1,4
 507 -180 507 -180 508 -224 c 0,5,6
 509 -287 509 -287 483 -337.5 c 128,-1,7
 457 -388 457 -388 417 -427.5 c 128,-1,8
 377 -467 377 -467 328.5 -495 c 128,-1,9
 280 -523 280 -523 235 -540 c 1,10,-1
 194 -503 l 1,11,-1
 194 -470 l 1,12,13
 225 -458 225 -458 255.5 -437 c 128,-1,14
 286 -416 286 -416 310 -390 c 128,-1,15
 334 -364 334 -364 349 -332.5 c 128,-1,16
 364 -301 364 -301 364 -268 c 0,17,18
 364 -234 364 -234 351.5 -205.5 c 128,-1,19
 339 -177 339 -177 318.5 -156 c 128,-1,20
 298 -135 298 -135 271.5 -122.5 c 128,-1,21
 245 -110 245 -110 216 -107 c 1,22,-1
 216 -74 l 1,23,-1
 281 0 l 1,0,1
EndSplineSet
EndChar

StartChar: carondl
Encoding: 65544 -1 178
Width: 142
Flags: W
LayerCount: 2
Fore
SplineSet
108 1593 m 1,0,-1
 232 1593 l 1,1,-1
 173 1017 l 1,2,-1
 83 1017 l 1,3,-1
 108 1593 l 1,0,-1
EndSplineSet
EndChar

StartChar: circumflex.cap
Encoding: 65545 -1 179
Width: 816
Flags: W
LayerCount: 2
Fore
SplineSet
63 1598 m 1,0,-1
 353 1920 l 1,1,-1
 496 1920 l 1,2,-1
 782 1598 l 1,3,-1
 713 1562 l 1,4,-1
 422 1819 l 1,5,-1
 124 1562 l 1,6,-1
 63 1598 l 1,0,-1
EndSplineSet
EndChar

StartChar: caron.cap
Encoding: 65546 -1 180
Width: 708
Flags: W
LayerCount: 2
Fore
SplineSet
-19 1882 m 1,0,-1
 27 1920 l 1,1,-1
 347 1697 l 1,2,-1
 659 1920 l 1,3,-1
 702 1887 l 1,4,-1
 413 1616 l 1,5,-1
 289 1616 l 1,6,-1
 -19 1882 l 1,0,-1
EndSplineSet
EndChar

StartChar: breve.cap
Encoding: 65547 -1 181
Width: 574
Flags: W
LayerCount: 2
Fore
SplineSet
287 1599 m 0,0,1
 211 1599 211 1599 151 1626 c 128,-1,2
 91 1653 91 1653 49 1697.5 c 128,-1,3
 7 1742 7 1742 -15 1799.5 c 128,-1,4
 -37 1857 -37 1857 -37 1918 c 1,5,-1
 29 1918 l 1,6,7
 34 1894 34 1894 48 1857.5 c 128,-1,8
 62 1821 62 1821 91.5 1787 c 128,-1,9
 121 1753 121 1753 168.5 1729 c 128,-1,10
 216 1705 216 1705 288 1705 c 256,11,12
 360 1705 360 1705 408 1729.5 c 128,-1,13
 456 1754 456 1754 485.5 1788.5 c 128,-1,14
 515 1823 515 1823 529 1859.5 c 128,-1,15
 543 1896 543 1896 548 1919 c 1,16,-1
 611 1919 l 1,17,18
 611 1858 611 1858 587.5 1800.5 c 128,-1,19
 564 1743 564 1743 521 1698 c 128,-1,20
 478 1653 478 1653 418.5 1626 c 128,-1,21
 359 1599 359 1599 287 1599 c 0,0,1
EndSplineSet
EndChar

StartChar: dotaccent.cap
Encoding: 65548 -1 182
Width: 574
Flags: W
LayerCount: 2
Fore
SplineSet
281 1691 m 0,0,1
 262 1691 262 1691 244.5 1697.5 c 128,-1,2
 227 1704 227 1704 213.5 1716 c 128,-1,3
 200 1728 200 1728 192 1745.5 c 128,-1,4
 184 1763 184 1763 184 1784 c 0,5,6
 184 1807 184 1807 194 1827 c 128,-1,7
 204 1847 204 1847 220.5 1862 c 128,-1,8
 237 1877 237 1877 257.5 1885.5 c 128,-1,9
 278 1894 278 1894 299 1894 c 0,10,11
 324 1894 324 1894 342.5 1886.5 c 128,-1,12
 361 1879 361 1879 373 1866 c 128,-1,13
 385 1853 385 1853 390.5 1836.5 c 128,-1,14
 396 1820 396 1820 396 1801 c 0,15,16
 396 1777 396 1777 386 1756.5 c 128,-1,17
 376 1736 376 1736 360 1721.5 c 128,-1,18
 344 1707 344 1707 323.5 1699 c 128,-1,19
 303 1691 303 1691 281 1691 c 0,0,1
EndSplineSet
EndChar

StartChar: ring.cap
Encoding: 65549 -1 183
Width: 574
Flags: W
LayerCount: 2
Fore
SplineSet
272 1454 m 256,0,1
 220 1454 220 1454 174.5 1471.5 c 128,-1,2
 129 1489 129 1489 94.5 1520.5 c 128,-1,3
 60 1552 60 1552 40 1594.5 c 128,-1,4
 20 1637 20 1637 20 1687 c 256,5,6
 20 1737 20 1737 40 1779.5 c 128,-1,7
 60 1822 60 1822 94.5 1853.5 c 128,-1,8
 129 1885 129 1885 174.5 1902.5 c 128,-1,9
 220 1920 220 1920 272 1920 c 256,10,11
 324 1920 324 1920 369.5 1902.5 c 128,-1,12
 415 1885 415 1885 449.5 1854 c 128,-1,13
 484 1823 484 1823 504 1780 c 128,-1,14
 524 1737 524 1737 524 1687 c 256,15,16
 524 1637 524 1637 504 1594.5 c 128,-1,17
 484 1552 484 1552 449.5 1520.5 c 128,-1,18
 415 1489 415 1489 369.5 1471.5 c 128,-1,19
 324 1454 324 1454 272 1454 c 256,0,1
272 1535 m 256,20,21
 305 1535 305 1535 334 1546 c 128,-1,22
 363 1557 363 1557 384.5 1577 c 128,-1,23
 406 1597 406 1597 419 1624.5 c 128,-1,24
 432 1652 432 1652 432 1685 c 256,25,26
 432 1718 432 1718 419 1745.5 c 128,-1,27
 406 1773 406 1773 384.5 1793 c 128,-1,28
 363 1813 363 1813 334 1824.5 c 128,-1,29
 305 1836 305 1836 272 1836 c 256,30,31
 239 1836 239 1836 210 1825 c 128,-1,32
 181 1814 181 1814 159 1794 c 128,-1,33
 137 1774 137 1774 124.5 1746.5 c 128,-1,34
 112 1719 112 1719 112 1687 c 0,35,36
 112 1654 112 1654 124.5 1626 c 128,-1,37
 137 1598 137 1598 159 1577.5 c 128,-1,38
 181 1557 181 1557 210 1546 c 128,-1,39
 239 1535 239 1535 272 1535 c 256,20,21
EndSplineSet
EndChar

StartChar: ogonek.cap
Encoding: 65550 -1 184
Width: 709
Flags: W
LayerCount: 2
Fore
SplineSet
437 9 m 1,0,1
 408 1 408 1 372.5 -15 c 128,-1,2
 337 -31 337 -31 300.5 -54 c 128,-1,3
 264 -77 264 -77 229 -104.5 c 128,-1,4
 194 -132 194 -132 167.5 -162 c 128,-1,5
 141 -192 141 -192 124.5 -224 c 128,-1,6
 108 -256 108 -256 108 -287 c 0,7,8
 108 -357 108 -357 143 -389.5 c 128,-1,9
 178 -422 178 -422 251 -422 c 0,10,11
 293 -422 293 -422 337.5 -407 c 128,-1,12
 382 -392 382 -392 413 -373 c 1,13,-1
 431 -444 l 1,14,15
 411 -459 411 -459 382.5 -472.5 c 128,-1,16
 354 -486 354 -486 320.5 -496 c 128,-1,17
 287 -506 287 -506 249 -511.5 c 128,-1,18
 211 -517 211 -517 172 -517 c 0,19,20
 122 -517 122 -517 85 -501 c 128,-1,21
 48 -485 48 -485 23 -458.5 c 128,-1,22
 -2 -432 -2 -432 -14 -397.5 c 128,-1,23
 -26 -363 -26 -363 -26 -326 c 0,24,25
 -26 -278 -26 -278 1 -228 c 128,-1,26
 28 -178 28 -178 73 -132.5 c 128,-1,27
 118 -87 118 -87 177 -50 c 128,-1,28
 236 -13 236 -13 299 9 c 1,29,-1
 437 9 l 1,0,1
EndSplineSet
EndChar

StartChar: tilde.cap
Encoding: 65551 -1 185
Width: 886
Flags: W
LayerCount: 2
Fore
SplineSet
55 1740 m 1,0,1
 74 1773 74 1773 102.5 1802.5 c 128,-1,2
 131 1832 131 1832 165.5 1854.5 c 128,-1,3
 200 1877 200 1877 239 1890 c 128,-1,4
 278 1903 278 1903 320 1903 c 0,5,6
 352 1903 352 1903 378 1891.5 c 128,-1,7
 404 1880 404 1880 426 1863.5 c 128,-1,8
 448 1847 448 1847 467.5 1827 c 128,-1,9
 487 1807 487 1807 507 1790.5 c 128,-1,10
 527 1774 527 1774 548.5 1762.5 c 128,-1,11
 570 1751 570 1751 596 1751 c 0,12,13
 628 1751 628 1751 656 1760.5 c 128,-1,14
 684 1770 684 1770 708 1785.5 c 128,-1,15
 732 1801 732 1801 752.5 1820.5 c 128,-1,16
 773 1840 773 1840 790 1859 c 1,17,-1
 831 1802 l 1,18,19
 811 1769 811 1769 783 1739 c 128,-1,20
 755 1709 755 1709 720.5 1686.5 c 128,-1,21
 686 1664 686 1664 646.5 1651 c 128,-1,22
 607 1638 607 1638 565 1638 c 0,23,24
 533 1638 533 1638 507 1649.5 c 128,-1,25
 481 1661 481 1661 459.5 1678 c 128,-1,26
 438 1695 438 1695 418 1714.5 c 128,-1,27
 398 1734 398 1734 378.5 1751 c 128,-1,28
 359 1768 359 1768 337 1779.5 c 128,-1,29
 315 1791 315 1791 289 1791 c 0,30,31
 257 1791 257 1791 229 1781.5 c 128,-1,32
 201 1772 201 1772 177 1756.5 c 128,-1,33
 153 1741 153 1741 132.5 1721.5 c 128,-1,34
 112 1702 112 1702 95 1683 c 1,35,-1
 55 1740 l 1,0,1
EndSplineSet
EndChar

StartChar: hungarumlaut.cap
Encoding: 65552 -1 186
Width: 709
Flags: W
LayerCount: 2
Fore
SplineSet
536 1664 m 1,0,-1
 767 1920 l 1,1,-1
 860 1832 l 1,2,3
 835 1800 835 1800 804.5 1775 c 128,-1,4
 774 1750 774 1750 738 1726.5 c 128,-1,5
 702 1703 702 1703 661.5 1678 c 128,-1,6
 621 1653 621 1653 577 1621 c 1,7,-1
 536 1664 l 1,0,-1
45 1664 m 1,8,-1
 276 1920 l 1,9,-1
 369 1832 l 1,10,11
 343 1800 343 1800 312.5 1775 c 128,-1,12
 282 1750 282 1750 247 1726.5 c 128,-1,13
 212 1703 212 1703 172 1678 c 128,-1,14
 132 1653 132 1653 87 1621 c 1,15,-1
 45 1664 l 1,8,-1
EndSplineSet
EndChar

